<svg xmlns="http://www.w3.org/2000/svg" width="2500" height="977" viewBox="0 0 256 100" preserveAspectRatio="xMinYMin meet"><g fill-rule="evenodd"><path fill="#F90" d="M33.3 95l-15-5.4v-22l15 5.2V95m2.8 0l15-5.4v-22L36 73V95M20 66l15-4.3 14 4.6L35 71l-15-5m-4.5-1.7L.5 59V37l15 5v22.3m2.7 0l15-5.4V37l-15 5v22.3M2 35.3L17.2 31l14 4.6-14 4.8-15.2-5m48.5 29l-15-5.5V37l15 5v22.3m2.7 0l15-5.4V37l-15 5v22.3M37 35.3L52.2 31l14 4.6-14 4.8-15.2-5m31.3-1.8l-15-5.4v-22l15 5.2v22.2m2.7 0l15-5.4v-22l-15 5.2v22.2m-16.2-29L70 .4 84 5 70 9.6l-15.2-5m48.5 29l-15-5.5v-22l15 5.2v22.2m2.7 0l15-5.4v-22l-15 5.2v22.2m-16.2-29L105 .4 119 5l-14 4.7-15.2-5"/><path d="M95.6 80.7l-5 17.5h-2.2l-4-13-3.5 13h-2.3l-5.3-17.5H76l4 13 3.6-13h2l4 13 3.8-13h2.2z"/><path stroke="#000" d="M95.6 80.7l-5 17.5h-2.2l-4-13-3.5 13h-2.3l-5.3-17.5H76l4 13 3.6-13h2l4 13 3.8-13h2.2z"/><path d="M109.6 93l2.5.5c-.4 1.5-1.3 2.7-2.6 3.7s-3 1.5-4.7 1.5c-2.4 0-4.3-1-5.8-2.6-1.6-1.5-2.3-3.7-2.3-6.5s.8-5 2.3-6.7c1.5-1.7 3.4-2.6 5.8-2.6 2.2 0 4 .8 5.5 2.4 1.4 1.6 2 4 2 7H99.8c0 2.7.6 4.5 1.7 5.4 1 1 2.2 1.4 3.5 1.4 2 0 3.7-1 4.6-3.4zm-.2-5.4c0-1-.2-1.8-.5-2.6-.4-.7-1-1.4-1.6-2-.7-.5-1.6-.7-2.6-.7-1.3 0-2.4.5-3.4 1.4-1 1-1.5 2.3-1.6 4h9.6z"/><path stroke="#000" d="M109.6 93l2.5.5c-.4 1.5-1.3 2.7-2.6 3.7s-3 1.5-4.7 1.5c-2.4 0-4.3-1-5.8-2.6-1.6-1.5-2.3-3.7-2.3-6.5s.8-5 2.3-6.7c1.5-1.7 3.4-2.6 5.8-2.6 2.2 0 4 .8 5.5 2.4 1.4 1.6 2 4 2 7H99.8c0 2.7.6 4.5 1.7 5.4 1 1 2.2 1.4 3.5 1.4 2 0 3.7-1 4.6-3.4zm-.2-5.4c0-1-.2-1.8-.5-2.6-.4-.7-1-1.4-1.6-2-.7-.5-1.6-.7-2.6-.7-1.3 0-2.4.5-3.4 1.4-1 1-1.5 2.3-1.6 4h9.6z"/><path d="M117.3 98.2H116V74.6h2.7v9c1.2-2.3 3-3.4 5-3.4s3.8.8 5.2 2.4c1.2 1.6 2 4 2 7 0 2.5-.8 4.7-2 6.4-1.4 1.8-3 2.7-5.3 2.7-2.4 0-4.2-1.2-5.4-3.4l-1 3zm1.4-7c0 2 .7 3.2 1.7 4 1 .8 2 1.2 3 1.2 1.4 0 2.5-.6 3.4-1.8.8-1.2 1.3-2.8 1.3-5 0-2-.4-4-1.2-5.2-.8-1.3-2-2-3.4-2-1 0-2 .5-3 1.4-1 1-1.5 2-1.7 3.6v4z"/><path stroke="#000" d="M117.3 98.2H116V74.6h2.7v9c1.2-2.3 3-3.4 5-3.4s3.8.8 5.2 2.4c1.2 1.6 2 4 2 7 0 2.5-.8 4.7-2 6.4-1.4 1.8-3 2.7-5.3 2.7-2.4 0-4.2-1.2-5.4-3.4l-1 3zm1.4-7c0 2 .7 3.2 1.7 4 1 .8 2 1.2 3 1.2 1.4 0 2.5-.6 3.4-1.8.8-1.2 1.3-2.8 1.3-5 0-2-.4-4-1.2-5.2-.8-1.3-2-2-3.4-2-1 0-2 .5-3 1.4-1 1-1.5 2-1.7 3.6v4z"/><path d="M138 93.6l2.5-.5c.5 2.3 2.4 3.4 5.4 3.4 1 0 2-.2 2.8-.8.8-.5 1.2-1.2 1.2-2 0-1.5-1-2.3-3-2.7l-3.7-.8c-1.4-.3-2.6-.8-3.4-1.6-1-.8-1.4-2-1.4-3.2 0-1.5.6-2.7 1.7-3.7 1.2-1 2.8-1.5 4.7-1.5 3.8 0 6.2 1.5 7 4.5l-2.4.5c-.8-1.8-2.2-2.7-4.5-2.7-1 0-2 .2-2.6.6-.7.6-1 1.2-1 2 0 1.3 1 2 2.7 2.5l3.5.6c3.5.7 5.3 2.5 5.3 5.3 0 1.6-.6 3-2 4-1.3 1-3 1.4-5.3 1.4-4 0-6.7-1.7-7.6-5z"/><path stroke="#000" d="M138 93.6l2.5-.5c.5 2.3 2.4 3.4 5.4 3.4 1 0 2-.2 2.8-.8.8-.5 1.2-1.2 1.2-2 0-1.5-1-2.3-3-2.7l-3.7-.8c-1.4-.3-2.6-.8-3.4-1.6-1-.8-1.4-2-1.4-3.2 0-1.5.6-2.7 1.7-3.7 1.2-1 2.8-1.5 4.7-1.5 3.8 0 6.2 1.5 7 4.5l-2.4.5c-.8-1.8-2.2-2.7-4.5-2.7-1 0-2 .2-2.6.6-.7.6-1 1.2-1 2 0 1.3 1 2 2.7 2.5l3.5.6c3.5.7 5.3 2.5 5.3 5.3 0 1.6-.6 3-2 4-1.3 1-3 1.4-5.3 1.4-4 0-6.7-1.7-7.6-5z"/><path d="M167.3 93l2.6.5c-.6 1.5-1.5 2.7-2.8 3.7-1.4 1-3 1.5-4.8 1.5-2.3 0-4.3-1-5.8-2.6-1.4-1.5-2.2-3.7-2.2-6.5s.8-5 2.3-6.7c1.6-1.7 3.5-2.6 5.8-2.6s4 .8 5.5 2.4c1.4 1.6 2 4 2 7h-12.5c0 2.7.5 4.5 1.6 5.4 1.2 1 2.4 1.4 3.6 1.4 2.2 0 3.8-1 4.7-3.4zm0-5.4c-.2-1-.3-1.8-.6-2.6-.3-.7-.8-1.4-1.5-2-.7-.5-1.6-.7-2.6-.7-1.4 0-2.5.5-3.4 1.4-1 1-1.5 2.3-1.6 4h9.6z"/><path stroke="#000" d="M167.3 93l2.6.5c-.6 1.5-1.5 2.7-2.8 3.7-1.4 1-3 1.5-4.8 1.5-2.3 0-4.3-1-5.8-2.6-1.4-1.5-2.2-3.7-2.2-6.5s.8-5 2.3-6.7c1.6-1.7 3.5-2.6 5.8-2.6s4 .8 5.5 2.4c1.4 1.6 2 4 2 7h-12.5c0 2.7.5 4.5 1.6 5.4 1.2 1 2.4 1.4 3.6 1.4 2.2 0 3.8-1 4.7-3.4zm0-5.4c-.2-1-.3-1.8-.6-2.6-.3-.7-.8-1.4-1.5-2-.7-.5-1.6-.7-2.6-.7-1.4 0-2.5.5-3.4 1.4-1 1-1.5 2.3-1.6 4h9.6z"/><path d="M175.8 98.2H173V80.7h2.5v4c.8-1.8 1.7-3 2.5-3.6.8-.5 1.7-.8 2.6-.8h1V83h-.5c-1.4 0-2.6.4-3.6 1.5-1 1-1.5 2.6-1.6 4.4V98z"/><path stroke="#000" d="M175.8 98.2H173V80.7h2.5v4c.8-1.8 1.7-3 2.5-3.6.8-.5 1.7-.8 2.6-.8h1V83h-.5c-1.4 0-2.6.4-3.6 1.5-1 1-1.5 2.6-1.6 4.4V98z"/><path d="M198.6 80.7l-6 17.5h-3l-6-17.5h3l4.8 14.2 4.8-14.3h2.4z"/><path stroke="#000" d="M198.6 80.7l-6 17.5h-3l-6-17.5h3l4.8 14.2 4.8-14.3h2.4z"/><path d="M200.8 74.6h3v3h-3v-3zm0 6h2.8v17.6H201V80.7z"/><path stroke="#000" d="M200.8 74.6h3v3h-3v-3zm0 6h2.8v17.6H201V80.7z"/><path d="M218 92l2.3.5c-.3 2-1 3.4-2.3 4.5-1.2 1-2.7 1.7-4.4 1.7-2.4 0-4.3-1-5.5-2.7-1.2-1.8-1.8-4-1.8-6.5 0-2.7.6-5 2-6.7 1.3-1.7 3-2.6 5.4-2.6 2 0 3.4.6 4.6 1.7 1 1 1.8 2.5 2 4.3l-2.3.5c-.6-3-2-4.3-4.3-4.3-1.5 0-2.7.6-3.5 2-.8 1.2-1.2 2.8-1.2 4.8 0 2.3.4 4 1.2 5.2.8 1.3 2 2 3.4 2 2.2 0 3.7-1.5 4.3-4.4z"/><path stroke="#000" d="M218 92l2.3.5c-.3 2-1 3.4-2.3 4.5-1.2 1-2.7 1.7-4.4 1.7-2.4 0-4.3-1-5.5-2.7-1.2-1.8-1.8-4-1.8-6.5 0-2.7.6-5 2-6.7 1.3-1.7 3-2.6 5.4-2.6 2 0 3.4.6 4.6 1.7 1 1 1.8 2.5 2 4.3l-2.3.5c-.6-3-2-4.3-4.3-4.3-1.5 0-2.7.6-3.5 2-.8 1.2-1.2 2.8-1.2 4.8 0 2.3.4 4 1.2 5.2.8 1.3 2 2 3.4 2 2.2 0 3.7-1.5 4.3-4.4z"/><path d="M235.7 93l2.5.5c-.5 1.5-1.4 2.7-2.7 3.7-1.3 1-3 1.5-4.7 1.5-2.4 0-4.3-1-5.8-2.6-1.5-1.5-2.2-3.7-2.2-6.5s.8-5 2.3-6.7c1.6-1.7 3.5-2.6 6-2.6 2 0 4 .8 5.4 2.4 1.4 1.6 2 4 2 7H226c0 2.7.6 4.5 1.7 5.4 1 1 2.2 1.4 3.5 1.4 2.2 0 3.8-1 4.7-3.4zm-.2-5.4c0-1-.2-1.8-.5-2.6-.3-.7-.8-1.4-1.5-2-.7-.5-1.6-.7-2.6-.7-1.4 0-2.5.5-3.5 1.4-1 1-1.4 2.3-1.6 4h9.5z"/><path stroke="#000" d="M235.7 93l2.5.5c-.5 1.5-1.4 2.7-2.7 3.7-1.3 1-3 1.5-4.7 1.5-2.4 0-4.3-1-5.8-2.6-1.5-1.5-2.2-3.7-2.2-6.5s.8-5 2.3-6.7c1.6-1.7 3.5-2.6 6-2.6 2 0 4 .8 5.4 2.4 1.4 1.6 2 4 2 7H226c0 2.7.6 4.5 1.7 5.4 1 1 2.2 1.4 3.5 1.4 2.2 0 3.8-1 4.7-3.4zm-.2-5.4c0-1-.2-1.8-.5-2.6-.3-.7-.8-1.4-1.5-2-.7-.5-1.6-.7-2.6-.7-1.4 0-2.5.5-3.5 1.4-1 1-1.4 2.3-1.6 4h9.5z"/><path d="M240 93.6l2.6-.5c.6 2.3 2.4 3.4 5.5 3.4 1.2 0 2.2-.2 3-.8.8-.5 1.2-1.2 1.2-2 0-1.5-1-2.3-3-2.7l-3.7-.8c-1.5-.3-2.6-.8-3.5-1.6-.8-.8-1.2-2-1.2-3.2 0-1.5.5-2.7 1.7-3.7s2.7-1.5 4.7-1.5c3.8 0 6 1.5 7 4.5l-2.5.5c-.7-1.8-2-2.7-4.4-2.7-1 0-2 .2-2.7.6-.7.6-1 1.2-1 2 0 1.3 1 2 2.7 2.5l3.4.6c3.5.7 5.3 2.5 5.3 5.3 0 1.6-.6 3-2 4-1.3 1-3 1.4-5.3 1.4-4 0-6.7-1.7-7.7-5z"/><path stroke="#000" d="M240 93.6l2.6-.5c.6 2.3 2.4 3.4 5.5 3.4 1.2 0 2.2-.2 3-.8.8-.5 1.2-1.2 1.2-2 0-1.5-1-2.3-3-2.7l-3.7-.8c-1.5-.3-2.6-.8-3.5-1.6-.8-.8-1.2-2-1.2-3.2 0-1.5.5-2.7 1.7-3.7s2.7-1.5 4.7-1.5c3.8 0 6 1.5 7 4.5l-2.5.5c-.7-1.8-2-2.7-4.4-2.7-1 0-2 .2-2.7.6-.7.6-1 1.2-1 2 0 1.3 1 2 2.7 2.5l3.4.6c3.5.7 5.3 2.5 5.3 5.3 0 1.6-.6 3-2 4-1.3 1-3 1.4-5.3 1.4-4 0-6.7-1.7-7.7-5z"/><path d="M178.6 43.3V39a1 1 0 0 1 1-1h19c.5 0 1 .5 1 1v3.7c0 .6-.5 1.4-1.4 2.7l-9.8 14c3.7-.2 7.5.3 10.8 2.2.7.4 1 1 1 1.6v4.5c0 .6-.7 1.3-1.4 1-5.8-3-13.5-3.4-20 0-.6.4-1.2-.4-1.2-1v-4.2c0-.7 0-2 .7-3l11.3-16h-10c-.5 0-1-.6-1-1.2m-67.3 26.3h-5.8c-.5 0-1-.5-1-1V39.2c0-.6.5-1 1-1h5.4c.5 0 1 .4 1 1V43c1.5-3.8 4-5.5 7.6-5.5 3.6 0 6 1.7 7.5 5.5 1.5-3.8 4.6-5.5 8-5.5 2.4 0 5 1 6.6 3.2 1.8 2.5 1.4 6 1.4 9.2v18.5c0 .6-.5 1-1 1H136c-.6 0-1-.4-1-1V53c0-1.3 0-4.4-.2-5.6-.4-2-1.7-2.5-3.3-2.5-1.4 0-3 .8-3.5 2.3-.6 1.5-.5 4-.5 5.6v15.5c0 .6-.5 1-1 1h-5.8c-.7 0-1.2-.4-1.2-1V53c0-3.4.6-8.2-3.5-8.2-4 0-4 4.7-4 8v15.7c0 .6-.4 1-1 1m102-32c8.6 0 13 7.3 13 16.6 0 9-5 16.2-13 16.2s-12.6-7.3-12.6-16.4c0-9.2 4.5-16.3 12.7-16.3zm.2 6.8c-4.2 0-4.5 5.7-4.5 9.3 0 3.6 0 10.5 4.4 10.5s4.7-5.3 4.7-9c0-2.6 0-5.5-.8-8-.6-2-2-2.7-3.7-2.7zm25 25.3H233c-.6 0-1-.5-1-1V39c0-.5.4-1 1-1h5.3c.5 0 1 .5 1 1v4.4c1.7-4 4-6 8-6 2.5 0 5 1 6.6 3.6 1.4 2.3 1.4 6.3 1.4 9v18.6c0 .5-.5 1-1 1h-5.8c-.5 0-1-.5-1-1v-16c0-3.2.3-8-3.6-8-1.4 0-2.7 1-3.3 2.5-.8 2-1 3.7-1 5.7v15.8c0 .6-.4 1-1 1m-74.4-14c0 2.2 0 4-1 6-1 1.7-2.5 2.7-4 2.7-2.3 0-3.5-1.7-3.5-4.2 0-4.8 4.3-5.7 8.5-5.7v1.2zm5.7 14c-.3.3-1 .3-1.3 0-2-1.5-2.3-2.2-3.3-3.7-3 3.2-5.4 4.2-9.4 4.2-5 0-8.6-3-8.6-9 0-4.6 2.5-7.8 6-9.3 3.2-1.4 7.5-1.6 11-2V49c0-1.4 0-3-.8-4.2-.7-1-2-1.5-3.2-1.5-2.2 0-4.2 1-4.6 3.4 0 .6-.5 1-1 1l-5.6-.5c-.5 0-1-.5-.8-1.2 1.2-6.7 7.3-8.8 12.8-8.8 2.7 0 6.4.8 8.6 3 2.8 2.5 2.5 6 2.5 9.7v9c0 2.5 1 3.7 2.2 5.2.3.5.4 1 0 1.5l-4.4 3.8zm-80.2-14c0 2.2 0 4-1 6-1 1.7-2.4 2.7-4 2.7-2.2 0-3.5-1.7-3.5-4.2 0-4.8 4.4-5.7 8.5-5.7v1.2zm5.8 14c-.4.3-1 .3-1.3 0-2-1.5-2.3-2.2-3.3-3.7-3.2 3.2-5.4 4.2-9.5 4.2-4.8 0-8.5-3-8.5-9 0-4.6 2.5-7.8 6-9.3 3.2-1.4 7.5-1.6 10.8-2V49c0-1.4 0-3-.7-4.2-.6-1-2-1.5-3-1.5-2.3 0-4.2 1-4.7 3.4 0 .6-.5 1-1 1l-5.5-.5c-.5 0-1-.5-1-1.2 1.4-6.7 7.5-8.8 13-8.8 2.7 0 6.4.8 8.5 3 2.8 2.5 2.6 6 2.6 9.7v9c0 2.5 1 3.7 2 5.2.4.5.5 1 0 1.5l-4.4 3.8z"/></g></svg>