<svg xmlns="http://www.w3.org/2000/svg" width="2105" height="2500" viewBox="0 0 256 304" preserveAspectRatio="xMinYMin meet"><path fill="#EE4323" d="M13 287.3c-5 0-6.6-3-6.6-7.6 0-1.5.2-3.2.4-5 1.2-7.8 4-12.3 10.7-12.3 4.5 0 6.7 2 6.7 5.7v2h4.5v-2c0-5.5-3.2-10.6-11.2-10.6-11 0-15.5 6-17 17.5-.4 1.5-.5 3-.5 4.5 0 7 2.7 13 12.3 13 7.4 0 11.7-3.5 14.3-8l-4.3-2.8c-2.8 4.4-5.8 5.6-9.2 5.6zm29.7-21.7C34 265.6 30 270 29 279a23.3 23.3 0 0 0-.4 3.2c0 5.8 2.7 10.4 10.2 10.4 8.7 0 12.6-4.7 14-13.5v-3c0-6-2.7-10.4-10-10.4zm3.6 13.5c-1 6.6-3 8.5-6.8 8.5-3 0-4.6-1.2-4.6-5 0-1 0-2 .2-3.4 1-6.4 2.8-8.3 6.7-8.3 3 0 4.6 1.2 4.6 5 0 1 0 2-.3 3.4zM75 258l-1.6 8.7c0 .8 0 .5.3 1.2-1.4-1-4-1.7-5.5-1.7-8 0-12.3 3.6-13.7 13.5a19.4 19.4 0 0 0-.2 3.2c0 7.2 4.2 10 10 10 2.4 0 4.7 0 6.6-1.6l.3 3H76l5.2-36.2H75zm-4.6 28.4c-2 1.2-4.2 1.5-5.5 1.5-3.5 0-4.5-1.8-4.5-4.7 0-1 .2-2.3.4-3.7 1-7.5 3.4-8.8 6.5-8.8 2 0 3.6.3 5 1l-2 14.7zM95 265.6c-8.7 0-12.7 4.2-14 13.5l-.3 3.3c0 6.4 3.2 10.3 10.4 10.3 5.7 0 10-2.4 12-6.6l-4.7-2c-1.4 2-3.2 3.5-6.5 3.5-3.5 0-5-1-5-4 0-.6.2-1.5.3-1.5h17c.4-2.5.7-4.2.7-5.6 0-4.7-1.8-10.8-9.7-10.8zm3.3 11.5H88c1-2.3 2.7-6 6.2-6 2.8 0 4.2 1.6 4.2 4.4v1.7zm24.6-12l.4-4.8H110l-.5 5h3.5l-3.8 24h-3.5l-.5 4.8h13.3l.6-4.8h-3.4l3.8-24h3.5zm27 7.3l1.7-4.8H147l-3.2.7c-2-1.2-4.4-2-6.7-2-6.7 0-12.5 3.2-12.5 10.6 0 2 .8 3.8 1.7 5-1.4.7-2.7 2-2.7 3.6 0 .8.3 1.6 1 2.3-3 1.7-4.7 4.5-4.7 7.8 0 6.4 6.7 7.8 11.8 7.8 6.4 0 14-1.5 14-9.7 0-2.8-1.7-5-6.7-6l-9.3-1.6c-1-.2-1.2-.5-1.2-1 0-.7.4-1 1-1h.7c1.2.3 2.7.4 4 .4 6.7 0 12.6-2.8 12.6-10.2 0-1-.2-1.7-.7-3 1 .5 2 1 2.4 1h1.6zM137 292c1.8.2 2.4 1 2.4 2 0 4-4 4.4-7 4.4-4.7 0-6.4-1-6.4-3.5 0-2.3.6-3.2 2-4.8l9 1.7zm-2-12.5c-2.7 0-4.2-1-4.2-3.4 0-3.4 2-5.4 5.5-5.4 3 0 4.3 1.2 4.3 3.5 0 3.6-2 5.5-5.6 5.5zm31.8-14c-2.7 0-5 1.4-8 3.8l-.4-1.8h-5.2l-3.6 26.5h6.2l2.8-20c1.8-1.2 4-3 6-3 2.4 0 3.3 1.3 3.3 3.4l-.3 2.7-2.3 17h6.3l2.3-17 .2-3c0-4.5-2-8.4-7.4-8.4zm19.4 22v-.8l2.7-19.2h-10.5l-.7 4.8h4.6c-.4 0-.6.4-.6.8l-2 13v2.4c0 3.3 1.7 5.6 5.4 5.6h3.2l.7-4.8h-2c-.6 0-.8-1.3-.8-1.8zm4-29.7h-6c-.5 0-.5-1.4-.6-1l-.8 7c0 .3 0 1.3.3 1.3h6.3c.4 0 .4-1.6.4-2l1-5.3c0-.4 0 0-.5 0zm13 29.7c-1.7 0-2.5-.6-2.5-2l2-13.2h7.3l2-4.8h-8.6L205 257l-6.7 2-1.2 8.5h-3.7l-.7 4.8h4.4c-.4 2.4-.8 1-.8 1.3l-1.8 11.5v1.5c0 4.4 3.3 6 7.2 6 3.7 0 6.7-1 9-3l-3-3.5c-1.4 1-2.4 1.5-4.5 1.5zm23-22c-8.7 0-12.8 4.3-14.2 13.6l-.2 3.3c0 6.4 3.3 10.3 10.5 10.3 5.5 0 9.7-2.4 12-6.6l-4.8-2c-1.4 2-3.3 3.5-6.5 3.5-3.5 0-5-1-5-4 0-.6 0-1.5.2-1.5h17c.3-2.5.6-4.2.6-5.6 0-4.7-1.8-10.8-9.7-10.8zm3.2 11.6H219c1-2.3 2.8-6 6.4-6 2.8 0 4.2 1.6 4.2 4.4 0 .5 0 1.7-.2 1.7zm23.8-11.4c-2.3 0-4.4 1.3-6.5 3.4l-.4-1.5H241l-3.5 26.5h6.3l2.8-20.5c1.6-1 3.5-2 5.3-2h3.2l.8-5.4c-1 0-2-.4-2.8-.4zM92.5 238.8c-14.3-6.2-27.7-22-27.7-38 0-17.6 11-32.5 25-42.3-1.8 6.3-2.7 12 1.5 17.7 3.8 5.2 10.5 7.8 16.8 6.4 15-3.3 15.6-19.5 6.8-29-8.6-9.4-17-20-13.7-33.6 1.7-6.8 6-13.2 11.2-17.8-4 10.7 7.5 21.3 15.2 26.6 13.2 9 27.8 16 40 26.7 12.8 11.3 22.2 26.5 20.3 44.2-2 19-17.3 32.4-34.3 39 36-7.8 73.3-35.8 74-75.8.7-33-22-58.3-49.8-72.8l-1.5-.8c1 2 1 3.5 1 5 .3-1 .5-2.2.6-3.3a15.7 15.7 0 0 1-.6 4v-.7a16.4 16.4 0 0 1-2 5l.4-.5c-5.6 9.2-20.6 11.3-28 1.7-12-15.4.2-32 2-48.3 2-20.5-10.8-40.3-26.7-52.2 8.7 14.2-2.8 33-12 43.4-9 10-19.8 18.6-29.7 27.8-10.6 10-20.8 20.4-29.5 32-17.5 23.3-28.2 52.5-20.3 81.6 7.8 29 33 47.5 61.3 54z"/></svg>