<svg xmlns="http://www.w3.org/2000/svg" width="1684" height="2500" viewBox="0 0 256 380" preserveAspectRatio="xMidYMid"><path fill="#1A4658" d="M255.8 364.2c0 8.5-57.2 15.5-127.8 15.5-70.7 0-128-7-128-15.5 0-8.6 67.2-15.6 128-15.6 72.2 0 127.8 7 127.8 15.6"/><path fill="#EDF7FA" d="M248 252c-4 0-8.3-1.7-11.3-15.7S229 208 229 208c5 0 7.7-2.2 7.7-2.2-3.4-1.5-10.7-6.7-15.6-13-4.6-6.5-17-16.8-17-16.8v-20.7c0-14 9-25 9-25-6 0-9 5.5-9 5.5v-29.6C204 77 218.5 64 218.5 64c-4.5-.5-7.6 1.6-7.6 1.6 2-21.6 8.7-28 8.7-28-24.4-6.4-38 8-38 8-2.7-13 8-20.8 8-20.8-12.5-2.8-22.8 1-22.8 1C167 6.6 174.3.2 174.3.2 136.4.2 115 29 115 29c-1.7-12.3 1.7-23 1.7-23C79.7 21.6 70 56 70 56c-2.3-5.8-2.6-19-2.6-19S52 62.5 49.4 80.2c-2.8 17.7 2.4 68.4 2.4 68.4s-2.4-3-7.6-3.7c0 0 5.5 6 5.5 19.6 0 0-2-1.8-5.8-1 0 0 5.6 5.3 6.2 14 0 0-6.7 4.7-10.4 9.2 0 0-5.8.2-9 1.2 0 0 5 2.7 6 5 0 0-14.4 14.8-21.7 26.6 0 0 6.5-4 11-2.7 0 0-10 12.2-13.4 32.3 0 0 5-2.5 7-1.2 0 0-6 12.8-6.3 26l-6.7 4 5 4S8 298.3 7.2 307.7c0 0 3-3 5.5-4 0 0 3.4 8 8 14 4.5 6.2 15 11.4 21 11.4l11.4-.5c-1.4 6-4.2 11.3-10 11.6l-.8 1a7 7 0 0 0-.2 0c0 1.8-3.8 2-4.7 3.4-3 3.7-5.3 9-6.8 13.5-1 3.4-.6 3.4-1.4 7 0 1-1.3 2.2-1.7 3.4 3.3-1 12.4-2 17.2-2.2v4.2s1 .8 2.2 1.3H48c7.2-.6 12.2.6 20.6 0 1.6-.3 3-.5 4.6-1.4.4-1.2.4-1.2.6-2.8v-1h.5a1 1 0 0 1 .4 0l.5-.2a.4.4 0 0 1 .2 0l5.4-.3c5 0 11.4.5 11.4.5.4-5.5.8-14 9.7-39l2-1.3s27.4 9.7 52.7-.4c2 5 8.5 21.7 9.6 32 .8 1.4.7 3 .8 4.6 0 1.4 0 2.8.3 4.2 1 0 4.2-.5 8.3-.5l5.5.3a.4.4 0 0 1 .3 0h.4a1 1 0 0 1 .4 0l.5.2v1c.3 1.5.4 1.5.8 2.7l.4.2c4.5-.6 9-.7 13.7-.5 3.6.2 7 .8 10.7 1.5.4 0 .8 0 1 .2l5.8.7v-6.3c3.8.2 9.3 1 11.7 1.3l2.4.5h.2l3 .8-.6-4.6c-.2-2-1.6-8-4.3-10.5l4 1.6c-3-4-4.3-9.5-13.4-13.4 0 0 1.6-.8 3-1-1.5-1-2.7-1.3-4.3-1.2.5-1.5 3-5.4 5-6 0 0-1.3-.8-3.3 0a19.3 19.3 0 0 0-2 1.2c-.4.2-.8 0-.8-.3-.7-2.4-1-4.8-1.4-7 18.2-1 20.7-10 20.7-10 1.5 1 1.5 3.7 1.5 3.7 8-10.2 7-20.6 7-20.6 2 .4 3.4 1.7 3.4 1.7 1-16-4-43-4-43 2.4 1.2 4-.3 4-.3-2.8-1.2-3-4.2-3-4.2 4 .3 4.4-3.4 4.4-3.4"/><path fill="#CDE9EE" d="M73.7 367s.7-7.7-1.8-13.3c0 0 4.6.4 5.4 13l-3.8.3m-24-26l.2-.2s0 .2-.2.2m4.5 25.4v-.2.2"/><path fill="#CDE9EE" d="M115 29c-1.7-12.3 1.7-23 1.7-23C79.7 21.6 70 56 70 56c-2.3-5.8-2.6-19-2.6-19S52 62.5 49.4 80.2c-2.8 17.7 2.4 68.4 2.4 68.4s-2.4-3-7.6-3.7c0 0 5.5 6 5.5 19.6 0 0-2-1.8-5.8-1 0 0 5.6 5.3 6.2 14 0 0-6.7 4.7-10.4 9.2 0 0-5.8.2-9 1.2 0 0 5 2.7 6 5 0 0-14.4 14.8-21.7 26.6 0 0 6.5-4 11-2.7 0 0-10 12.2-13.4 32.3 0 0 5-2.5 7-1.2 0 0-6 12.8-6.3 26l-6.7 4 5 4S8 298.3 7.2 307.7c0 0 3-3 5.5-4 0 0 3.4 8 8 14 4.5 6.2 15 11.4 21 11.4l.7-.2-1.2 6.3c0 .3-.5.5-.8.3a19.2 19.2 0 0 0-2.2-1.3c-2-.7-3.2.2-3.2.2 2 .5 4.4 4.4 5 6-1.7-.2-3 .2-4.4 1 1.5.3 3 1 3 1-9 4-10.3 9.5-13.2 13.4 1-.7 3.8-2 3.8-2-2.7 2.6-4 8.6-4.3 10.6l-.5 4.6c2.4-.8 3.5-1 5.5-1.3 3-.6 11.3-1.7 14.4-1.4l-.5 6c1.6-.5 3-.5 4.3-.6 0-1.6 0-3.2.2-4.8 0-2.8.3-5.3.8-8v-.4c1.2-4 3-6 4.4-7.4.4-.5.8-1 1-1.5a15.4 15.4 0 0 0 2.2-4c1.2-3.6.7-11-2-18.4 2.8 3.8 5 7 6.4 8.3v-9.5s4.8 5 9 8.6c2.2 2 4.8 4.3 6.6 5.3 0 0 .2-.8.3.5v-.4c2.6 1.4 5 2.5 7.5 4l.8.5c1 .7 3 1.6 4.7 2.5L92 367c1.5-20.4 13-40 13-40h-.3c-3.6-1.2-30-10.3-45.6-43-1-2 6 2.5 6 2.5-6.4-15.5-9-40.5-9-40.5 2.3 1.8 4.4 2 4.4 2-4.5-12.6-6.3-28.5-6.3-42.8-1.2-77 27.3-94.7 27.3-94.7-5-1.8-10-1.7-10-1.7C77 95.3 95.6 76.4 95.6 76.4 90.6 76.7 71 82 71 82c16-42.4 32.6-53.7 32.6-53.7-1.2 10.2 2.7 21 2.7 21C141.7 5.6 170 7.6 170 7.6c2-4.3 4.5-7.3 4.5-7.3C136.5.3 115 29 115 29m99.7 337.8s-.3-11-3-16.6c0 0 6.7 4 6.7 16.7l-3.7-.3"/><path fill="#ABD8D7" d="M44.4 310c4.3-42.3 5.4-125 5.4-125-9.3 18.6-17 52.2-17 52.2l2 7.3-4-1.8c-6.7 23-2.3 53.6-.8 62.2 4.2 3.2 9.2 4.3 14.4 5m-9-1a666.6 666.6 0 0 0 4.4 20h2.4c1-4 1.2-10.4 2-18-3-.5-6-1-8.7-2"/><path fill="#CDE9EE" d="M178.6 345.5a.4.4 0 0 1-.5-.2c-.3 0-.6 0-1 .2 6.4-4.6 7-9.4 7-9.4-4.2 2-8.6 2.8-11 3 14.8-12.6 17-36 17-36-6 7.4-14.2 13.5-20.7 17.7S165 323 161 325a.5.5 0 0 0-.6 0c-2 1-4 2-5.2 2 0 0 3.5 6.3 5 9.6l-.4.2s5 11.5 6.7 22.7c0 2 .3 3.5.4 4.8v2.7c6.4-1 15.5 0 15.5 0 0 1 .5 3.6.6 4 3-.4 6.3-.6 9.4-.6 0-10.8-.5-28.7-13.7-25"/><path fill="#83BAC0" d="M44 313.2C34 311.5 24.8 300 24.8 300c7.3 7.8 16.5 8.8 16.5 8.8 1.2-9-6.2-29.4-6.2-29.4 5.7 6.8 8.7 14.7 10.3 21.2L44 313.2"/><path fill="#ABD8D7" d="M67 297.4s8 14 14.8 20c7.5 6.6 14.5 15.8 17.5 21.4 0 0 3.8-8.7 5.8-11.8 0 0-22-6.5-38-29.6m103.6 27.3c1-1.5 2.4-3 3.6-4.5 2-2.4 4.3-4.7 6-7.4-3 2.2-6 4-9.3 6-9.6 6.4-16 8.2-16 8.2 2 3 5.6 11.8 5.6 11.8 1.8-3.4 5-8 9-12.7.4-.3.8-.7 1-1.2"/><path fill="#545352" d="M64 89c-1 .2-3.7.2-3.7.2-25 1.8-43.6-17.7-43.6-17.7S15 86.7 26 100s33 15.6 33 15.6c.7 3-1 10-1 10s6.6-7 8.2-20.6c1.2-9.5-1.8-16-2.3-16"/><path fill="#6E7979" d="M64 89c-1 .2-3.7.2-3.7.2-25 1.8-43.6-17.7-43.6-17.7s11.5 33.2 49.8 30.6c0 0 1-6-2.6-13"/><path fill="#545352" d="M189.3 89c.8.2 3.6.2 3.6.2 25 1.8 43.4-17.7 43.4-17.7S238 86.7 227 100c-11 13.3-33 15.6-33 15.6-.6 3 1 10 1 10s-6.5-7-8-20.6c-1.3-9.5 1.6-16 2.2-16"/><path fill="#6E7979" d="M189.3 89c.8.2 3.6.2 3.6.2 25 1.8 43.4-17.7 43.4-17.7S225 104.7 186.7 102c0 0-1-6 2.6-13"/><path fill="#CDE9EE" d="M50.8 201.6s-18 64.8 0 106.4V201.6m179.7 102.6c-9 6.8-18.2 7.2-18.2 7.2-.4-9 9.3-28.3 9.3-28.3a21 21 0 0 0-5.4 4.8v-6.5l7-5.8-5.7-4.6 7-28.8-6.7 4.6s-2-41-.6-58.6c0 0-8.7-8.7-13-12.2 0 0 .8 12.6 1.8 32.8 3.8 16.2 10 49.6 2.4 79 0 6 0 12 .2 18 0 0 3.7 13.2 5 22.3 0 0 1 .3 3 0l-.2-14c9.4-3 14-9.7 14-9.7M146 178.7c0 7 4.6 12.5 10 12.5 5.5 0 10-5.5 10-12.4 0-7-4.5-12.6-10-12.6-5.4 0-10 5.6-10 12.6"/><path fill="#FFF" d="M146.4 175.2c0 6.8 4.3 12.4 9.7 12.4 5.6 0 10-5.6 10-12.4 0-6.8-4.4-12.3-10-12.3-5.2 0-9.5 5.3-9.5 12"/><path fill="#474746" d="M153.5 169a3.8 3.8 0 0 0 0 .8c0 1.8 1 3.2 2.4 3.2 1 0 2-1.2 2.3-2.6.8 1 1.3 2.4 1.3 4 0 3.2-2 5.8-4.7 5.8s-4.8-2.6-4.8-5.8c0-2.6 1.4-4.8 3.2-5.5"/><path fill="#CDE9EE" d="M98.6 178.6c0 7 4.4 12.5 10 12.5 5.3 0 9.8-5.4 9.8-12.3 0-7-4.5-12.6-10-12.6-5.4 0-9.8 5.7-9.8 12.7"/><path fill="#FFF" d="M99 175.2c0 6.8 4.2 12.4 9.6 12.4 5.4 0 9.8-5.6 9.8-12.4 0-6.8-4.4-12.3-9.8-12.3s-9.6 5.3-9.6 12"/><path fill="#474746" d="M108 169a3.8 3.8 0 0 0-.3.8c0 1.8 1.2 3.2 2.5 3.2s2.3-1.2 2.5-2.6c.8 1 1.3 2.4 1.3 4 0 3.2-2 5.8-4.7 5.8-2.5 0-4.6-2.6-4.6-5.8 0-2.6 1.3-4.8 3.2-5.5"/><path fill="#545352" d="M181.7 188.4c-.6 2-2.7 2.4-8.7 3.5h-.4c-6 1-16.4 1-22.2 0a30.8 30.8 0 0 1-.7 0c-5.4-1-6-1.7-7.7-4.4-1.8-3-2.8-11.3-3-13-.3-1.8-.4-2.7 2-3.7 3-1.5 16.4-3.4 22-3.6 4.2-.2 13.4.4 17.7 1 .6 0 1 .2 1.4.3.7 0 2.5 1 2.4 3 0 2.4-1.7 14-2.6 16.6zM123 174.6c0 1.8-1.2 10.2-3 13-1.7 2.8-2.3 3.5-7.7 4.4h-.7c-5.8 1-16.3 1-22.2 0H89c-6-1.2-8-1.7-8.7-3.6-1-2.5-2.5-14.2-2.6-16.7 0-2 1.7-2.8 2.2-3l1.2-.2c4.3-.6 13.5-1.2 17.8-1 5.6.2 19 2 22 3.5 2.4 1 2.3 2 2 3.6zm66.4-11c-4.4-.7-12-1.5-21.3-1-12 .6-22.2 2.3-28.3 3.3l-4.4.5H134c-1.4.3-2.2.5-3 .5-.8 0-1.6 0-3-.3h-1.2c-1-.3-2.5-.5-4.4-.8-6-1-16.4-3-28.5-3.5-9.4-.5-17 .3-21.5 1 0 0-4.7.5-8.8 2.2l.8 5s4.2-1 8.4-1.4c.7 7.2 2.2 16.5 2.2 16.5v.2l.3 1.4c1 3.6 1.7 5.8 5.2 7 3.3 1.3 11.3 2.5 19.3 3 3 0 6.5 0 10-.6 5-.8 9.5-2 11.3-3.4 2.6-2 4-6.7 4.8-9.8l.5-1 1-3.2c.2-1.6.6-3.2 1-3.7 0-.2.3-.6 1.4-.7h2.3c1 0 1.4.5 1.4.6.4.4.8 2 1 3.6l1 3.3.3.8c.8 3 2.2 8 4.7 9.8 1.8 1.4 6.3 2.7 11.4 3.5 3.6.5 7 .7 10 .5 8-.4 16-1.6 19.3-2.8 3.5-1.3 4.3-3.5 5.2-7 0-.6.2-1 .3-1.5v-.3s1.5-9.4 2.3-16.6c4.3.5 8.5 1.5 8.5 1.5l.8-5.2c-4-1.6-8.8-2.2-8.8-2.2z"/><path fill="#A0D1DE" d="M111.5 150.6s-11-5.3-17.3 4.5c0 0-.6-9.5 8.2-10.6 9-1 9 6.3 9 6.3m-4-14.3s-10.2-4.8-15 4.5c0 0-1.4-8 6-10s9 5.4 9 5.4m43.5 20.2s8.4-4 13.3 3.5c0 0 .5-7.4-6.4-8.3-7-.8-7 5-7 5m6-13.6s8.6-1.3 10 6.6c0 0 3-5.7-2-8.7-5-3-8 2-8 2"/><path fill="#B2DCE5" d="M110.8 227.4s6-4 9.6-4.7c0 0 .7 7.7 4.3 11.5 0 0 7.6-7 15.2-7.4 0 0 1.7 4.2 5 5.7 1 .8 2.4 1.5 4 1.8 0 0 4-2.6 5.4-7.4 0 0 .4 10-6 15.5 0 0-4.8-2.4-8.3-6.2-1-1-2-2.2-2.6-3.2 0 0-11.2 8-11.6 12.6 0 0-8.2-8-11-14 0 0-5.3 1.7-6.8 2.8 0 0-4.4-7-5.3-13.5 0 0 5.2 5 7.8 6.3"/><path fill="#545352" d="M131 207.5c-.3 0 11.5.8 23 .4 0 0 .7-2.5 1.6-3.7 0 0-.2 3.8 1 4.5 0 0-6 2.2-11.8 2.2 0 0 6.4-1 8.5-2.2 0 0-11.6.7-22.2-1.5"/></svg>