<svg xmlns="http://www.w3.org/2000/svg" width="512" height="512" viewBox="0 0 548.2 548.2"><path fill="#FFFFFF" d="M505.3 170.7c-28.5-28.5-63-42.8-103.3-42.8H146.2c-40.4 0-74.8 14.2-103.4 42.7C14.3 199.3 0 233.7 0 274c0 40.4 14.3 75 42.8 103.4 28.6 28.6 63 43 103.4 43 36.5 0 68.7-12.3 96.5-36.7h62.8c27.8 24.4 60 36.6 96.5 36.6 40.3 0 74.8-14.3 103.3-43 28.6-28.4 43-63 43-103.2 0-40.3-14.4-74.7-43-103.3zM237.5 292.4c0 2.6-.8 4.8-2.5 6.5-1.7 1.6-4 2.5-6.6 2.5h-54.8v54.8c0 2.7-1 5-2.6 6.6-1.7 1.6-4 2.4-6.5 2.4H128c-2.8 0-5-.8-6.7-2.5-1.7-1.8-2.5-4-2.5-6.7v-54.8H64c-2.7 0-5-1-6.6-2.6-1.7-1.8-2.6-4-2.6-6.6v-36.6c0-2.6 1-4.8 2.6-6.6 1.7-1.7 4-2.5 6.6-2.5h54.8V192c0-2.8.8-5 2.5-6.7 1.8-1.7 4-2.6 6.6-2.6h36.5c2.6 0 4.8 1 6.5 2.6 1.7 1.7 2.6 4 2.6 6.6v54.7h54.8c2.7 0 5 .8 6.6 2.5 1.7 1.8 2.5 4 2.5 6.6v36.6zm153.8 44c-7 7.2-15.8 10.8-26 10.8-10 0-18.6-3.6-25.7-10.7-7-7.2-10.7-15.8-10.7-26 0-10 3.5-18.6 10.6-25.7 7-7 15.8-10.7 25.8-10.7s18.8 3.7 26 10.8c7 7 10.6 15.7 10.6 25.8 0 10-3.6 18.7-10.7 26zm73-73c-7 7-15.7 10.7-25.8 10.7s-18.7-3.5-25.8-10.6c-7-7.2-10.7-15.8-10.7-26 0-10 3.6-18.6 10.7-25.7 7-7 15.7-10.7 25.8-10.7s18.7 3.6 26 10.7c7 7 10.6 15.8 10.6 25.8s-3.5 18.7-10.6 26z"/></svg>
