<svg xmlns="http://www.w3.org/2000/svg" width="263.1" height="212.7"><path fill="#1C80CE" d="M255.7 84c-3.4-4-8.4-6-13.2-8-6.7-2.4-13.6-4-20.2-6.7-5-2-10-3.3-15.4-3.4-11.3-.3-22.4-2-33.6-1.4-2.7 0-4-.8-4.4-4-.8-7.8-.8-15.7-4-23-.8-2-2.4-3.7-2.8-5.8-.6-3.8-3.2-6.5-5.5-9-6.7-6.8-14.4-12.6-23-17.3C125.8 1 117-.8 108 .3c-9 1-18 2.4-24.2 10.3-2 2.7-4 2.2-6-.4-1.2 0-2.4-.2-3.3-1-2.5-3-5.8-3.8-9.2-4.4-9.8-1.7-19-1-27.2 5.8-2 1.8-4.4 3.4-6.8 5-3.3 3-6.5 6-10 9l-.8 1c-.4.5-1 1-1.6 1.4l-1 1c0 .4-.2.6-.5.7L16 30l-3 5C7 44 1.4 53 .3 64c-1 10.3.7 20.4 1.3 30.5.5 7.7 3.2 15 3.7 22.7 3.3 3.3 7.5 4 12 4.2 1 0 1.8.3 2 1.6 0 .3 0 1-.4 1-1.2 1-1.5-.4-2-.8-1-.7-2.3-1-3 0-1 1 .2 1.7 1 2.4 2 2 4 4.5 6.3 6.3 1.5 1 1.5 2.3 1.2 3.8-.3 2-2.4 4 0 6 .2.2 0 .8 0 1-3 2-.5 3 .8 4.3.4.4 1 .6 1 1.3-.3.8-1 .7-1.7.8-2.2.5-4.5-.2-7 .7 1.6 1.5 3.5 2 4.6 3.4-1.4 1-2.7.4-4 .8l-.2.2c-.3 1.8 0 4.5-1.5 5.2-2 1-2.8 2.2-3 3.7l1.4 6.5v1.4c.3 1.8.5 3.7.4 5.7 0 .8.3 1.6.4 2.5.8 3.3 1.7 6.5 2 10 .2 1.2.2 2.6.3 4 .4.8.6 1.6.8 2.5 1 3 2 5.8 2.8 9 1.5 1.7 3 3.6 4.4 5.5 1.7 1 3.4 1.7 5.2 2.5 1 0 2-.2 2.7-.5 1.6-.6 3.4-2 3.6-3.8.2-3.7.5-7.7-.3-11.3-1.2-5-2.2-10.2-3-15.3-1-6.2-2.2-12.4-3-18.7-.5-2.7-.7-5.6-.6-8.5l-.2-6.2c0-2 0-4.2-3.2-5 3-.7 2.5-2 2.3-3.5-.6-6.3-2.3-12.3-2.5-18.6-.3-.4-.2-.8.2-1.2-.7-1.2-1.6-2.4-1-4l-3-14.5c-.4-1.4-.4-2.7-.2-4 .3-3.3.8-6.5-.8-9.6-1-2 .3-4 0-6.2-.3-4.3-.3-8.7 0-13 0-5 3.4-8.7 5.8-12.8 4.2-7.4 8.5-14.6 14-21 3.3-3.5 7.6-5.4 11.5-7.7 2-1.2 1.7.8 1.3 2C51 35 49 40.6 47.5 46.5c-2.7 10-4.6 20.7-1.2 30.7 5 15 11.7 20 29.4 21 15.8 1 29-5.2 39-17 8.3-9.6 12.3-25 5.6-37.7-.4-.7-.5-1.6-.7-2.4-.2 0-.3-.3-.3-.5-.2 0-.3-.2-.3-.3-.6 0-.7-.5-.7-1-1.6-1-2-2.5-2.4-4l-1-1.8c-3-2.3-4.5-6-7.5-8.4l-.6-.7c-.8-1-3-1.5-2.3-3.2.7-1.4 2.6-1.4 4-1.6 10.5-1.8 19 1.8 27.5 8 5.2 3.6 8.3 8.3 10.3 13.7 1.7 4.4 2 9.3 2.5 14 .5 6 .5 12 .6 17.8 0 1.7.4 3.2 1 4.8 1.2 0 2 .7 2.8 1.5 2.6 3 6.4 3.5 9.8 3.2 10.2-1 20.4-1 30.5 0 6.2.3 12.5.6 18.7 2 3.5 1 6.8 2.8 10.3 3.7 7 2 13.7 4 20 7 1.7.6 3.4 1.6 3 3.7-.5 2.3-2.2 3.2-4.3 3.4-6.2.5-12.3 1.3-18.5 1.5-6 0-12 .8-18 1-7.2.2-14.2 2.6-21.4 3-13.4 1-27-.4-40.5 1-6 .8-9.7 3.7-13.5 7.5-.2.2-.2.8 0 1.2 1.2 4.5 6.7 9 11.6 9 15.5 0 31 .6 46.3-.4 15.3-1 30.6-3 46-4 7.2-.5 14.6-1 21.7-3.2 2.7-.7 4-2.4 5.5-4.5 2.2-3 1.6-6.2 2.2-9.3 1.7-8.3-2-15-7-21.2zm-157-18c-.2.5-.6.7-1 .7l-.8 1.2c0 1-.6 1-1.4 1.2 0 .3-.2.5-.4.7v.2H95c-.4 0-.7.3-1 .4-5.5 4-11.6 6.6-18.2 7.8-2.8.5-5.7 1.5-8.3-.6-2-.3-2.2-1.6-2-3.2-.7-.3-1-.7-.6-1.4-.7-1.3-.6-2.7-.4-4V68c-.4-3.2 0-6.3 1-9.3 0-.2 0-.4.3-.5-.3-.6-.2-1 0-1.5 0-.2 0-.3.2-.4.6-6.8 3.3-13 6.3-19 .8-1.7 2-2 4.2-1.4 3.8 1 8 1.2 11.8.7 5.7-.8 7-.3 9.5 4.7 1.4 3 2.8 5.7 4 8.6 2.2 6 .6 11.2-3.4 16z"/><path fill="#1C80CE" d="M111.7 181c-.2-8.8-.8-18.6-.5-28.4.3-10.3 0-20.8 3.2-31 .7-2.2 1-5 3.5-6.2 1-.6 2.2-1 2.4 1 0 1.5 2.6 2.6.8 4.8-.6.7.7 1.2 1.6 1.4 4.3.8 6.8 2.6 6.6 7.6v9c-.3 10.8-.8 21.5-1 32.2-.2 2-.3 4-1 5.7-1.6 4.4-.8 8.7.3 13 1 4.2-.4 6-5 5.2-7.8-1.2-11-5.2-11-14.2zM28.2 143.3c-1.3-4.4-2-9-3.4-13.4-1.7-6.3-11.3-3.6-9.6 2.6 1.2 4.4 2 9 3.3 13.3 1.8 6 11.4 3.5 9.7-2.7z"/><path fill="#1C80CE" d="M142 117.6c-12.7 1.2-20.5 10-24 21.7-1.8 5.3 6.6 9 9 3.8 3.8-8 9-17.7 19-18-.4-3.3-1-6.6-1.3-10-8 2.8-16 5.8-23.2 10.6l7.3 5.7c1.5-5.4 7.5-8.6 12.5-10l-2.6-9.5c-7.7 2.4-14.4 6.3-20.2 12 2.8 1 5.7 2.3 8.5 3.5.3-3.8 4.5-5.6 7.7-6.5l-5-8.4c-3.3 3.3-7.3 5.7-11.5 8l7.3 3c0 .7 1.3-.8 2.3-1.4 2-1 4.3-1.5 6.4-2 3.8-1 8-1.4 11.8-1 5.7.5 6.7-8.6 1.3-10-9.4-2.2-20.5 1.6-28.5 6.6l7 7c3.8-7.3 15-7.8 22.2-8.2 9.3-.5 18.6.2 27.8.5 11.3.2 22.6.7 33.8.6 12 0 24.6-.8 35.6-6 5.8-2.8.8-11.4-5-8.6-11 5.2-24.7 4.7-36.5 4.6-10.8 0-21.5-.4-32.2-1-10.2-.3-20.3-.8-30.4.4-9 1-19.3 3.8-24 12.4-2.3 4.3 2.5 9.6 7 7 5.5-3.7 14-7.3 20.7-5.6.4-3.3 1-6.6 1.3-10-10.4-.8-32.4 2.6-30 17 .4 3.5 4.6 4.5 7.2 3 5-2.4 9.6-5.5 13.7-9.3 3.6-3.5-.2-9.7-5-8.4-8 2.4-14.3 7.7-15 16.3-.3 4.5 5.6 6.3 8.6 3.5 4.5-4.4 9.7-7.4 15.8-9.4 6-2 3.6-11.2-2.7-9.6-8.4 2-17.2 8-19.5 16.8-1 4 3.6 8.2 7.3 5.7 6.5-4.4 13.5-7 21-9.5 5-1.8 4.4-10-1.5-10-14 .6-22 11.6-27.6 23.3l9 4c2.3-7.2 6.6-13.6 14.6-14.4 6.4-.6 6.4-10.6 0-10zM7 76.5c.5.4.8 1 1 1.4 3-1 6.3-1.8 9.5-2.7l-.7-2C14.8 67 6 69.6 7.2 76c.6 3 1 6 1.2 9.3h10c-.2-1.6-.6-3-.7-4.7-3.3.5-6.6 1-9.8 1.3.5 2.8.7 5.7 1.2 8.6l9.6-2.7-1.3-7.4L8 83.3c.5 1.8 1 3.4 1 5.3h10c0-2-.5-4-.6-6-3.3.5-6.6 1-10 1.3 1 3 1.5 6.2 2 9.3l9.8-2.7c-.6-2.2-.8-4.4-1.4-6.7-1.6-6.3-11.2-3.7-9.6 2.6l2 8c1.6 6.3 11 3.6 9.6-2.7-.5-2.7-1-5.3-1-8l-10 1.3c.6 2 .5 4 .6 6h10c-.2-3-.6-6.2-.7-9.4L10 83.2c.8 3 1 5.6 1 8.6l9.8-1.4c-.5-2.2-1-4.4-1-6.7l-10 1.3c.7 2.8.8 5.8 1.4 8.6l9.6-2.7-2-6c-2-6-11.3-3.6-9.6 2.6 1.3 4.8 2 9.7 2.7 14.6.7 5.6 10.2 4.3 9.7-1.3l-.7-4.7c-3.3.5-6.5 1-9.8 1.3.5 3 .5 6.2.5 9.3l9.8-1.4-2-10-9.6 2.6c2 5.8 2.6 12 4 18 1.2 6.3 10.8 3.6 9.5-2.7l-2-9.4c-1.3-6.4-10.5-3.5-9.6 2.7.6 5.5 2 10.8 4 16 2 6 11 3.7 9.5-2.7-.5-2.2-.7-4.5-1.3-6.7-1.7-6.3-11-3.7-9.7 2.6 1.2 5.5 2 11 2.5 16.7.7 6.2 10.4 6.5 10 0 0-2.3-.5-4.5-.6-6.7-.4-6.4-10.2-6.5-10 0 0 5.6 1.2 11 1.3 16.7l9.8-1.4-.7-2.7c-3.2 1-6.4 1.8-9.6 2.6 1.3 4 2 8.3 2.7 12.6 3-1 6.3-1.8 9.5-2.7-.4-1.7-.5-3-.5-4.7-3.3.4-6.5 1-9.8 1.3 1.3 4.4 2 8.8 2.7 13.3 3-1 6.3-1.8 9.5-2.7-.5-1.8-1-3.5-1-5.4-.5-6.4-10.2-6.5-10 0 0 5.7.5 11.5.5 17.3l9.8-1.4c-.5-1.6-.7-3.2-1.3-4.7l-9 3.8c1 2.8 2 5.5 3.2 8 3-1.5 5.8-3.2 8.6-5-1.5-3.2-2.2-6.5-2.8-10l-9 3.8c.8 2 1.5 4 2 6 3-1 6-2.4 9.2-3.7-1.5-2.6-2.5-5-2.7-8l-9.8 1.3c5 14 10.2 29 7.3 44-1 5.3 6.3 9 9.2 3.8 4-7 .7-16.2-1.8-23.4-2.8-8-7.6-16.5-8.3-25-3 1-6.2 1.7-9.3 2.5 2 2.7 4 5.2 4.8 8.3l9.6-2.7c-1-3.2-2.3-6.2-3.8-9.2-3-5.8-11.5-.7-8.6 5 1 2.3 2 4.5 2.8 7 1.8 6 11.4 3.4 9.6-2.8-1-4-3.3-7.2-5.8-10.5-2.6-3.4-9.8-3-9.3 2.6.7 8 4 15.6 7 23 1.4 4 3 8.3 4 12.5.5 2.4 1.5 6 .3 8l9.2 4c3.2-17-1.6-33.4-7.4-49.4-1.8-5-10-4.6-9.8 1.3.3 4.8 1.7 9 4 13 3 5 10.6 1.7 9.2-3.7-.8-3-2-5.8-3.2-8.5-2.6-5.5-10-1.4-9 3.8.6 4.4 1.8 8.5 3.7 12.5 2.7 6 11.3 1 8.6-5-1.2-2.5-2-5.3-3.3-8-2.3-5-11-1.4-9 4 .4 1.5.6 3 1.2 4.6 1.8 5 10 4.6 9.8-1.3 0-5.8-.6-11.6-.6-17.4h-10c0 2.7.6 5.3 1.5 8 1.8 6.3 10.4 3.5 9.5-2.7-.6-4.5-1.3-9-2.7-13.3-1.6-5.4-9.8-4.5-9.8 1.3 0 2.5.2 5 1 7.3 1.5 6.4 10.4 3.5 9.5-2.6-.6-4.3-1.4-8.6-2.7-12.7-2-6.2-11-3.6-9.6 2.6l.7 2.6c1 5.6 9.8 4.3 9.7-1.3 0-5.6-1.2-11-1.3-16.7h-10c0 2.2.5 4.4.6 6.7h10c-.7-6.5-1.5-13-2.8-19.3l-9.7 2.6c.6 2.2 1 4.5 1.4 6.7 3-1 6.3-1.8 9.5-2.7-2-5.2-3.2-10.5-4-16l-9.6 2.7c.5 3 1.2 6.2 2 9.3 3-1 6.3-1.8 9.5-2.6-1.3-6-2-12.2-4-18-2-6.2-11-3.7-9.6 2.6.5 3.3 1.2 6.7 2 10 1 5.6 9.7 4.2 9.7-1.3 0-4-.2-8-1-12-.8-5.6-10.2-4.3-9.7 1.3l.7 4.7c3.3-.5 6.5-1 9.8-1.3-.7-5-1.4-10-2.7-14.7-3.2 1-6.4 1.8-9.6 2.6l2 6c2 6 11 3.6 9.6-2.7-.5-3-.7-5.8-1.3-8.7-1-5.5-10-4.3-9.8 1.3 0 3 .7 6.2 1.5 9.3 1.4 5.5 9.8 4.3 9.8-1.4 0-4-.2-7.7-1.5-11.4-1.7-5.2-10-4.5-9.8 1.3 0 3 .5 6.2.7 9.3.2 6.4 10 6.5 10 0 0-3-.2-5.8-1-8.7-1.3-5.4-10-4.3-9.7 1.3 0 3.6.8 7 1.5 10.6 3.2-1 6.4-1.8 9.6-2.6l-2-8-9.6 2.6c.6 2.2.8 4.5 1.3 6.7 1.7 6.3 11 3.6 9.7-2.7l-2-9.3C17 76 8 77 8.4 82.6c0 2 .5 4 .6 6 .5 6.4 10.3 6.5 10 0 0-2.8-.6-5.3-1.5-8-2-6-11-3.6-9.6 2.7.4 2.4.7 5 1.2 7.3C10.6 97 20 94.2 18.8 88c-.5-3-.7-5.8-1.3-8.7-1.2-5.5-10.3-4.3-9.8 1.3 0 1.6.5 3 .7 4.7.6 6.3 10 6.5 10 0-.2-4-.8-8-1.6-12-3.2 1-6.4 1.8-9.6 2.6l.7 2c2 6 11 3.6 9.5-2.7-.3-1.5-1-2.7-1.8-4-4-5-12.6 0-8.7 5.2z"/><path fill="#1C80CE" d="M4 113c1 9.3 2.6 18.3 5 27.4 2.3 9 2.7 18.2 6 27 2 6 11.7 3.3 9.5-2.8-3-8-3.7-16.6-5.4-25-1.8-9-4-17.6-5-26.7-.7-6.4-10.8-6.4-10 0z"/><path fill="#1C80CE" d="M6.2 125.3c2.4 7 1.3 14.6 2.3 22 1.2 8 4.3 15.7 6.4 23.6 1.5 6.2 11 3.5 9.5-2.7-2-7.4-4.7-14.4-6-22-1.5-8 0-16-2.7-23.7-2-6-11.7-3.5-9.6 2.7z"/><path fill="#1C80CE" d="M10.5 134c1 6 .2 12.3.4 18.5 0 6 1.6 12 3.2 17.8l8.4-5s-.2 0-.3-.2c-2.7-5.7-11.3-.7-8.6 5 .5 1 1 1.8 1.8 2.5 3.7 3.2 9.7.2 8.3-5-1.6-6-3-12-3-18.6 0-6 .3-11.8-.6-17.7-1-6.4-10.7-3.7-9.7 2.6z"/><path fill="#1C80CE" d="M9.7 136c-1.2 13 .6 25.6 4.8 38 2 6 11.8 3.4 9.7-2.7-4-11.6-5.6-23-4.5-35.4.6-6.5-9.4-6.4-10 0z"/></svg>