<svg xmlns="http://www.w3.org/2000/svg" width="542.9" height="573.3"><path fill="#1C80CE" d="M439.4 386c-2.3-1-4.6-2.3-7-3.4-3.6-1.8-5.3-1.2-7 2.7-.7 1.7-1 3.5-3.7 2-1.8-.7-3 1.8-5 2 .5 1 0 1.6-.5 2.2.5 2-.5 2.8-2.2 3l-.2.2c-1.2 3.3-3 6-6.2 7.7l-.3.2c0 1.2-1 1.2-1.7 1.3 0 .4-.2.8-.8 1l-.2.2c0 .4.2.7-.4.8-6 7-12.4 13.8-19.6 19.8-1 .8-1.7 1.7-3 1.6-.2 1.3-1.2 2-2.2 2.6-15 10.5-29.8 21-43.8 32.4-1 .7-1.6 1.5-2.8 1.5-1.7 2.7-4.7 4-7 6-.5.5-1.2.4-1.8 0-2.5-1.7-5.2-1.2-8-.6-6.2 1.6-12.6 2.4-18.7 4.8-1 .4-2.2.7-3.2.6-6-.7-11 1.7-16.4 4-6.4 3-13 5-20 6-8.8 1.5-17.4 3-26 4-8.8 1-17.5.7-26 .2-10.2-.5-20.4-1.7-30.4-3-6.2-1-12.2-2.4-18.2-4.4-7.8-2.4-14.7-6.3-21.5-10.5-5.2-3.2-9.3-8.2-13.5-13l-2.8-3c-6-5-10.3-11.2-13.2-18.2-3.5-4.4-6.3-9.4-8-14.8-.3-.7-.4-1.3-.4-2l-1.2-3.4c-1.2-3.5-2-7-3-10.6l-.2-1-3-8.7c-3-8.2-4-17-4-25.7 0-1.3.3-2.3 1-3l-.3-2.2c-.4-3.5 2.6-16.2-1-18.3 1.3.8 3 .5 4 2 4.7 1.2 9.4 2.4 14.2 3 6.4.8 11.5-2.7 17-4.7 1.2-.4 2.3-1 3.4-1.5l1.3-.8c1.4-1.4 2.8-2.4 4.5-3 0 0 .2 0 .3-.2 2.7-1.6 5-3.5 7.4-5.6 1.2-1.8 2.6-3.4 4-5 4-6.8 8.4-13 7.6-21.6l-1.4-2.4c-1.7-1.4-3.6-2.5-5.2-4-.6-.2-1.3-.3-2-.3-1 .2-2.2.7-3.2 1.2-.6.6-1.2 1.3-1.8 2.3l-.7.8-3 5.4c-.8 1.8-1.4 3.7-2.3 5.4-1 2-2.2 3.7-3.6 5.2-1.3 1.5-2.8 2.7-4.6 3.3l-1.6.7c-1 .6-2.4 1-3.8 1-4 1.2-11.4-.5-13.6-3.3-1.8-2.3 0-3.2 1.5-3.7 5.2-2 7.4-6 8-11 1-5 2-10.2-1-15-.5-1-.4-1.6 0-2 0-.4.2-.6.4-1 .8-1 2-2 3-2.8 7.2-6.2 20.2.3 29.7 3.4l2.3-1c1.3-1.5 1.2-2.7.3-4.4-4-6.8-8.3-13.3-14.7-18-8.4-6.4-17.2-8-27-4-3 1.2-6 2.5-8.6 4.8l-.7.6-.7.6c0 .6-.4.8-1 1-2.2 5.6-6.4 8.6-12.6 9-2.6 2-3.3 1-3.7-2-1-8.6-1.5-17.2.4-25.8.8-3.8 2-4.5 5.2-3 7 4 14.7 6 22.5 7.7 6.3 1.6 12.8 1.6 19.3 1.4 2-1 3.8-1.8 6-2 7.7-.2 8-.5 7.6-7.7 0 0-.3 0-.3-.3-3.4-3.6-8.6-5.2-11.2-9.7-1.7-3-4-5.5-7-7.3-1.3-.8-2.5-1.3-4-1.3-8.4 0-16.3-2.5-24.4-4h-1c-1.8 1.6-4 2.8-5.5 5-1 1.2-2.8.8-4.2-.6-.6-1.5-.4-3 0-4.6-.3-.4-.3-1 0-1.3-.3-.6-.3-1.2 0-1.8-.4-1.7-1-3.4.3-5 0-1.5 0-3 .4-4.2-.4-2.3-1-4.7.5-7-.2-1-.2-1.8.3-2.8-.4-.4-.3-.8.2-1 0-1.2-.2-2.4.3-3.6-.6-2.5-.2-5 1.2-7l.2-2.7c-.5-.6-.4-1 .2-1.2 0-.7.3-1.4.4-2-.8-2.7 1.2-2.5 2.6-2.6 3.8 0 7.5-.6 11.3-1 6-.7 11.3-2.8 16.7-5.2 1.3-.6 2.5-1.2 4-.8l1-1c.8-1.6 2.6-1.4 4-1.8l.2-.2 6-4.5c1-.7 2-1.5 3 .2.3 0 .5 0 .7.2.7 0 1 .2 1.2.8 4.3 1.6 8.5 4 13.2 4.2 9.7.8 19.4 1.6 28.7-2.8 7-3.4 12.6-8.6 16-15.5 1.7-3.3 2-7.5 2-11.5 0-1-.4-2-1.2-2.5-3-2-5.5-4.4-9.3-5-4.7-.5-9 1.8-10 6.4-2.2 8.4-8 11.5-15.5 12.6-2.8.3-5.5 1.3-8.3 1.4-6.5.3-10-4.5-13.2-9-1-1.3-1.6-2.7-2.4-4-3-4.2-7.4-3-11.6-3.3-.2.6-.5.7-1 .6-3.4 3.6-3.8 7.6-1.6 12 1 1.8.3 2.8-1.6 3.4l-20 7.4c-2.4 1-5 .5-7.6 1-1.2.3-1.8-.6-1.4-1.5 1.4-3.5 1.6-7.5 4.3-10.3l3.3-9.3c.4-1 1-2.4.4-3.4-1-1.4-2 .2-3 .4-2 .3-4 .5-5.7 1.4-.7.2-1.6.4-2-.2-2.2-3-5.4-2.3-8.3-2.4l-1.2 2.5c.8 1 .2 1.3-.6 1.5l-4.5 11.4c-.6 1.3-1.2 3-2.8 3-1.6 0-2.2-1.7-2.7-3l-1.6-5.5c-1.3-1-2-2 0-3l2.3-.7v-.2h.3s0-.2.3-.2c1.6-2 2.8-4.4 5.2-5.6 0-.5 0-1 .2-1.5-1.8-1.7-4-2.7-6.4-2.5-.6 0-1.5 0-2-.4l-.3-.4c-1.6 0-3.3.2-5 0-1.2.4-2.7.4-4 .4-.5 0-1 0-1.2-.2-5.3 1-11.2 1.7-15.4-1.8-1.6-.6-3-1.5-4-2.6-.6 0-1-.4-1.5-1-.8-.4-1.4-1-2-1.6 0-.2-.2-.4-.3-.5-2.2-2.3-3-5-2.8-9v-.2c-.3-.6-.3-1.3 0-2 0-.5.2-.8.4-1.2-.3-4.6 2-9.6 5-13.7 2-4.3 4.8-8 8.3-11l.4-.3.3-.2c.5-.8 1-1.6 2-2.2.5-.4 1-1 1.7-1.2.2 0 .3 0 .5-.2 1-1 2-1.7 3.2-2.4l1.4-1c8-6.4 19.7-7 30.2-4.7 1-.8 2-2 2.8-3 3.3-3.7 1.3-7.5-4.8-9.8l-6-2.2c-.4 0-.8-.2-1.2-.4-1.2.2-2.3 0-3.5-.3-.7 0-1.3 0-2-.4h-1.3c-.5 0-.8-.2-1-.5H67c-.2 0-.3-.2-.5-.4h-1c-1.5 0-1.5-2.2 0-2.3 0-.2.2-.3.4-.5l.4-.3c.2-.3.4-.4.8-.5.2 0 .4-.2.6-.4.5-1 1.4-2 2.7-2.3h.3c1.8-2 3.7-3.4 5.8-4.5 1-1 2.2-2 3.6-2.8.5-.3 1-.4 1.5-.4l.8-.6c.5-.4 1-.5 1.7-.6 3-1.7 6-3.2 8.8-5 4-2.5 8-4.6 12.3-5.7h.2s0-.2.2-.2c2-.8 4.2-1.4 6.4-2h.4l2-.8 1-.3.8-.3c4-1.8 8.3-3.2 12.5-4.5h.6c2.7-1 5.5-1.6 8.3-2.2 7.7-1.5 15.4-3.7 23-4.4 8-.7 15.8-2 23.7-1.6 4.8.3 9.4 2 13.7 4.5 7 4 13.8 9 22 11.3 3.2 1 6.6 1.4 10 2l1.7.5 4.4.8 3.2-.6c5.3-1 8-2.4 12.7-5.6l.2-.2 2.4-1.8c.3-.3.7-.5 1-.6 21.5-16 48.2-17.8 74-10.6.3 0 .5 0 .8.2 5.5 1 11 2 16.5 2.8 9.4 1.6 19 3 28.6 3.3 11 .4 22 2 32.6 5 5 1.6 8.6 5 12.8 7.6 5 3.3 10 4.4 15.6 2.3 1.6-.6 2.2-2 3.4-3 .5-3-.4-5.6-2-8-.3 0-.4 0-.6-.2-3.5-1-6.8-2.2-10-4-5.7-3.8-11-8.3-17.5-10.8-7.3-2.8-14.4-5.5-22.4-6.3-11.4-1.3-22.8-2-34-3.6l-21-3c-13.3-2.5-27-4-40.5-3-8.6.5-17 2.5-25.5 5.3-10.4 3.6-18.7 10.3-27 17-3 2.3-6.4 1-9.5.6-10-1-18.3-5.8-26.7-10.8-6.8-4-14.5-6.4-22.4-7C169 4.8 157 7 145.4 9c-8.8 1.5-17.5 3.6-26.2 5.8-9 2.3-17.5 6-26 9.6-10.5 4-20 10-29.5 15.7-8.6 5.4-17 11.2-24.3 18.4C33 65 30 73 26.7 81.2c-2.6 6.3-6.2 12-9.3 18-5 9.3-6.5 18.8-3.8 29 .2.7 0 1.4.2 2.2 3 7.8 8.4 13.7 16 17.4 4.6 2.3 9.5 3.7 14.6 4 3.8.3 6 1.7 7.5 5.7 2.4 7 6.6 13.5 12.6 18.5 1.7 1.4 2.5 2.8 2 5.3-.4 2.2-1.5 3-3.3 3.2-5 .4-9 3-13.5 4.3-9.8 3.3-20 2.5-27.5-5.5-2.6-2.7-3.6-6-3.7-9.8-.5-.4-1-.7 0-1.2-.5-3.4-.2-6.7 1-9.8l.3-1.4.3-.8s.2-1 0-.4l.7-2.2c0-.3.2-.6.3-.8 0-.3.2-.5.4-.8v-.7c-.4-.8-.5-1.7-.4-2.5l-1-1.3-1.6-1.2-.5-.6c-2-.4-4-1-5.8-1.8H12c-7.4 1-9.5 2.8-10.6 10.5-.3 2.3-.8 4.6-1.3 6.8v1c.2 2.8.2 5.5 0 8.3h.2c0 .4 0 .7.2 1 0 .5.2 1 .4 1.4v1.7c.6 1.2 1 2.5 1.5 3.8l.5.8c.6 1.7 1.2 3.3 1.6 5l.7 2 3 4 .7 1.2L10 197l1 .7 1 1c1.6 1 2.8 2.3 4.3 3.2 8.4 5 17.4 7.4 27.3 6 5.8-1 11.6-1.8 17-4 1.4-.7 2.4-.6 2.3 1.2-1 14-1.2 28-3.5 42 0 .7-.5 1.2-.8 1.8 0 .4 0 .8-.2 1.2.7 3.3-.4 6.5-.6 9.7-.7 13 .5 26.3 1.5 39.4.5 5.8 1 11.7 2 17.4 1.8 8.8 3 17.7 4.8 26.5 1.7 8.6 3 17.3 2.7 26 5 4 5.5 9 2.5 14.3 2 9.6 2.8 19.4 4.3 29 1.3 8 3 15.8 6.4 23 1.5 3 4 5.5 4.5 9 4.4 5.3 8.7 10.8 13.2 16 2.5 3.2 5 6.5 7.7 9.5l5 4.3c1 0 2 .4 2.8 1.2 5 4.8 10.2 9.3 16.5 12.4.3 0 .6 0 1 .3 3.7 1.7 7 4 10 6.6l4.7 2.3c11.4 4.4 23.4 6 35.5 7.3 12.5 1.3 24.8 4 37.4 3.6l7.2-.2c2.8 0 4.6 1 4.8 4.2 1 12 .3 23.8.5 35.7 0 5.5-.5 11 .5 16.5 1 5.4 5.4 9 10.8 8.8 1.5 0 3 0 4.5-.2 1-2 1.6-4.5 4.4-5 1-1.4 0-2.7 0-4-1-2.6-.4-5.4-.3-8 .8-12.8-.3-25.6-.4-38.4 0-1-.5-2.3-.7-3.5-1.4-7.7-.2-8.7 6.8-9.8 9.5-1.4 19-2.6 28-6.6 3-1.4 5.6-3.7 9-4.6 12.7-3.2 25.5-6 38.4-8.3 2.5-.4 3 1 3 3 .7 7.2.3 14.5.3 21.7 0 9-.6 18.2-1 27.3 1 .8.7 2 .7 3v15.6c0 7 7 12 13.4 9.8 3.8-1.2 6.5-5.8 6-9.8-.3-2.7.3-5.4.7-8-1.2-2.6-.7-5.4-.7-8l.7-31c.2-9.5-1-19-2.3-28.4-.4-2.4-.4-4.3 2-6.2 9.8-8 20.3-14.7 30.2-22.4 13.5-10.2 26-21.3 36.4-34.8 2.6-3.4 5.5-6.7 8.3-10 0-.6 0-1 .8-1 .2 0 .3-.3.4-.4 0-.3 0-.6.3-.6 1-1.8 2.4-3 3.7-4.5-.3-1 .6-1.3 1-1.8 1-.8 2.2-1.6 3-2.5 3.3-4 2.6-7.4-1.8-9.7zM82.7 322c-.6-7.4-2.8-14.4-3-21.6.2-1.2-1-3 1-3.2 2-.2 3.6 1 3.8 3 .2 2 .6 4 .3 6-.6 4.2-.5 8.4 2.5 12 1.3 1.6-1 5.3-3 5.3-1 0-1.5-.7-1.6-1.6zM235 563.5s0-.3-.2-.4h.3l.2.2-.2.2z"/><path fill="#1C80CE" d="M542 186.7c-.6-11-3-21.4-5-32-2.3-13.4-4.2-27-5.8-40.4l-.3-1c-1-3.3-1.5-6.6-1.8-10l-.5-2-.5-2.3v-.2c-.8-1.7-1.3-3.5-1.7-5.3l-.2-.4c-.8-3.7-3.4-6.8-4.8-10.4-3-9-10.3-13.8-18.7-17.3-1-.4-2-1-2.8-1.8-1.4-1.3-3-2.2-5.2-2.4-2.4 0-4.6-.8-6.8-1.7-7.7-3.3-15.8-4-24-3h-2.4c-7-.8-13.6-.7-19 4.7-1.4 1.5-1.8 3-.2 4.4.7.6 1 1.4 1.5 2 1 2.4 2.8 3.5 5.6 3.5 5.5 0 11-.2 16.4.3 3.6.3 7.4-.5 11.2-.2 0 0 .3 0 .4.2 1.2 0 2.4 0 3.6.2 1.2 0 2.2.7 3 1.4.2 0 .5 0 .7.2.7 0 1.4 0 2 .5 2 .5 4 1.2 5.5 2l.4.2c0-.3 0-.4.2 0 3 1.2 5.6 2.8 7.3 5.5 4 6.4 7.2 13.2 8.5 20.7 2.5 2 2 5 2.4 7.6 2.6 18.8 5.7 37.5 9.3 56 1 4.4 1.5 8.7 2.2 13 0 .6.3 1.4 0 2l1.5 9.3c.2 1.2 0 2.4-.7 3.3 0 7.4.8 14.8 1 22.2.3 6.5-.4 13-.7 19.4 0 4.7 0 9.5-.4 14.2.2 3.2 0 6.4-.6 9.6v2.9c-.6 7-.7 14-2.3 21-.2.5-.4 1-1.2 1l-.6 1.7c.5 1.6-.4 2.8-1.7 3.4-1.5.8-1.3-1.5-2-1.7-3.6-1-4.3-3.4-4.5-6.5 0-.5 0-1-.3-1.3-.5-.6-1-1-1.3-1.8l-.3-.5c-.3 0-.5-.2-.7-.3l-1-.8c0-.2-.2-.3-.4-.3-1-.5-1.6-1.3-2-2.2-3.8-3-8.3-5.2-13-7-3.4-1-6.6-3-9.7-4.8-7.6-4.7-15.7-5-24-3-1 .3-2 1-2.2-.6-.4-.5-.5-1-.5-1.8-.4-.6-.6-1.4-.6-2.2l-.3-7.8c-.7-4.2-1.7-8.3-2-12.5 0-2-1-4-2.6-5-3-2.3-6.4-4.4-10.3-5.7-5.2-1.7-10.5-1-15.8-1.6-3-.4-4.2-1.8-5-4.3-1.5-6-1.8-12.3-2-18.6 0-8 .5-16.2-.5-24.4-.6-5.3-2.7-9.5-7-12.2-4.3-1-8.7-.7-11 4l-.8 2.8c.4 1.8 0 3.6.2 5.4.5 3.8.2 7.7.2 11.6v11.8c.2 2.2.4 4.5.4 6.8 1 5 1.5 10 2 15 1.6 5 4.3 9.8 7.3 14 2.6 3.7 7 6.4 12.3 6.6h8.8c5.8 0 8.7 3.4 7 8.8.2 0 .2.2.2.4v4.1c.3 1.6.3 3.4.5 5v1c1 5.7 1.5 11.6 1.5 17.5 0 .6 0 1.2-.3 1.7.7 5.6 1.8 11 3.2 16.4 3.6 4 7.4 4 11.2-1.3 0-.6 0-1 .2-1.6l1.2-4c0-.6 0-1.2.2-1.8.3-2.2 1-4 2.2-6l.5-1c.4-.5 1-1 1.3-1.5.3-.6.8-1 1.5-1.5l3-1.5c4.2-3 11.6-3 16-1.2.5 0 1 .3 1.4.5 1.4.5 2.8 1 4 2 3 1 5.7 2.6 7.7 4.8 1 .4 1.7 1 2.4 1.6 1.7 1.5 2.8 3.5 4.4 5l.6 1c2 2.3 3 5.4 4.8 8 1.2 1.8 3 3 4.6 4.3 1 .7 3.2.2 4-2 1.2-3 3-3.4 5-1 5 4.7 8.2 5 14.2 1.7l1.2-.6c.2-.4.6-.7 1-1 .2 0 .3-.2.5-.3v-.2l1-1.3c3-12.5 5-25 6-37.8.5-8.7 1.2-17.4 1.4-26 .4-15 0-30.2-.7-45.3zM222.5 375.2v2c-2.4 1.2-4.8 3.4-7.3 3.6l-10.5 1c-8.5 1.3-16.8 3.5-25.3 4h-6.7l-3-1-.3-.4c0-.2-.2-.2-.3-.3l-.3-.3-.4-.7c.5-1.3-2.5-3.3.7-4.2.6 0 .3-.7-.2-1-2-1-1-1.5 0-3 3-3.3 3-7.4 1-11.4-1.3-2.4-3.7-3.4-6.5-3.2l-.7-.6c.3-5-3.6-8.8-4.5-13.6v-2.2c.4 0 1 0 1-.5-.4-3.3-.4-6.6-1.6-9.7.2-4 1-8 2.4-12 .7-2 1.8-4 1.7-6.2l.3-.7c1-2 1.3-4.2 1.8-6.3 0-.3.3-.6.4-1 2-3 3.2-6.5 4.6-10 3-7.5 7-14.2 13-20 2.8-2.7 5.6-2.4 8.4.5 2.7 2.7 3.3 5.8 2 9.6-3.5 10.5-8.8 20.2-12 30.8-2.3 7.2-4.8 14.3-4 21.8.5 7 2 14 3.2 21.2.4 2.5 1.6 3.2 4 3.4 7.7.5 15.3-.2 22.8 0 7.5.4 12.8 4 16.5 10.4zM305 292c-.5-.5-.8-1-.7-2l-.5-.8c-2.8-5-7-9-11.5-12.5-.4 0-.5-.2-.6-.5l-1.2-1c-1.5-.6-3-1.7-4-3.2 0 0-.4 0 0 0h-.2l-1-.5-1.5-1c-1.2-.5-2.2-1.2-2.7-2.4 0 0 0-.3-.2-.5-7-2.4-14.2-3.2-21.6-1.7l-5.3 2.4c-5 2-8.7 5-10.4 10-1.4 4.3-2.2 8.6-3 13-.2 2.5.4 4.6 2.3 6 2 1.6 2 3.4 1.6 5.6-.5 2.2-.5 4.4.2 6.7 1.8 5.5 4.7 10 9.2 13.8 3 .7 6 1.6 9.4.4 3.6-1.3 6-4 5.6-7.7-.4-4.3 2-8.2 1-12.5-.5-1.2.7-1.4 1.6-1.4 2.4 0 4.8-.2 7 .4 4 1 8 1 12 1.2 0-.8.3-1.2 1-1.2s1.2.3 1 1h3.7c.2-.3.5-.5 1 0l1.3-.5c.7-.6 1.5-.8 2.4-.8l2-1c0-1 .3-2 1-3 .6-.5 1-1.2 1.5-1.8 0-1.5-.2-3-.6-4.4zM372 164.6c6.8-3.6 14.6-4.8 21.8-7.7.3-.2.6-.3 1-.3.8-1.2 2.2-2 3.3-3 3-2.8 5.2-5.8 3.5-10.2-1-.4-1.7-1-2-2 0-.2-.3-.4-.5-.6-3-1.3-5.5-3.8-9-2.5l-5.8 2c-7.7 3.2-15.7 5-24 5.5-7.3.4-12-3-14.5-10-1-2.5-1.5-5-2.2-7.7-1.2-4-1.7-8-4.7-11.3-3.7-3.8-10.5-5.3-12.6 1.6-.5 1.6-1.3 3-2 4.7v2c1.4 6.4 2.6 13 6 19 4.3 7.8 10.2 14.3 18 18 6.2 2.6 13.2 3.5 20 2.8 1.3 0 2.5-.2 3.7-.4zM301.4 249.6c-2-2-3-4.8-5-7-1-1.2-2.4-2.4-3-3.7-2-5-6.3-6.6-10.8-8-1.5-.4-3-.5-4.5-.2-6.3 1.3-12.8 1.6-19 3.5h-1.3l-.7.3-.2.2H255c-.3.3-.7.4-1 .5-3 2-7 3-9 6.4.5 1.5 0 2.6-1.5 3.3 0 .5 0 1-.2 1.4.6.6.6 1.2 0 1.8l1 2.2c1.5 1.5 1.4 3 0 4.4 0 .6.3 1.3.5 2l.4.5c0 .4.2 1 .4 1.3 2.5 2 5.2 3.3 8.6 4 8.3 1.4 16.4-.6 24.5-1.5 1.6 0 3.2 0 4.7-.6h.2c.4-.4 1-.6 1.4-.8l1.5-1.6c.7-1.2 1.5-.2 2.2.2l2 .8c1.2 0 2.3.3 3.3.5h.3c1 0 2-.3 3-1 .4 0 1 0 1.3-.2 1.7-.2 4.2.6 4.6-2 .3-2.2.4-4.7-1.8-6.7zM285.4 324.4c-.5.7-1.3 1.2-2 1.5l-2 2c-6.4 5.8-13.8 8.7-22.7 7.3-2-.3-4-.8-5.5-2.5-3-3.5-7.4-2-11.3-2.5-.8 0-1.6.6-2 1.5-1.6 4-.6 8.3 2.6 11.3 3 2.8 5.7 6 9.2 8.2l13.6 3c8.8.8 15-5.4 22-8.6 3-1.3 5.7-3.3 8.7-4.8 3.5-1.7 5.3-5 7-8.4 2.5-9.7-11.2-17-17.6-8zM529 352.6h.2l1-.8c0-1.6.7-2.7 2-3.7 0-1.2 0-2.6.2-4 0-1.7 0-3.5.4-5.2v-.6-.6c-.4-.6-.6-1.3-.6-2 0-2.7 0-5-.5-7.6l-1-3-.3-1h-.2c-1.2-.6-2.4-1-3.6-1.2-.2 0-.3.2-.4.3-2.6 2-6 2.5-8.8 1.2-1.7 1-3 2.7-4 4.8v.2c0 .4-.3.8-.4 1.3-.4 5.2-1.4 10.4-2.2 15.5-.3 2.5-1 5-2.8 7 0 .5-.2 1-.4 1.4-.6 1.7-1.4 3.4-3 4.6 0 .2 0 .4-.2.6-1.6 3.6-5.4 4.5-8.3 6.6-4.6 4.3-10 6.8-16.5 6.6-2.5 0-5.7.2-6.5 2.6-1.2 3.4-2 7.4 1.3 10.5.7.6 1 1.6 1.6 2.4.5 0 1 .4 1 1l.2.4c2.5 1.4 5.3 1.4 8 2.3.2 0 .4.2.5.3 7.6 1.4 13.6-2.5 19.8-6 .7-.4 1.3-.8 2-.6l.4-.2c0-2 1-2.5 2.8-2.4.4-.7 1.2-.8 2-.7l1-1.3c-.3-1.4 1-2 1.8-2.7 3.7-3.3 7-6.7 8-12 1-4.8 3-9.3 5.6-13.6h-.2zM297.2 121.2c-.6-4-3.6-4.6-6.5-5.3-2.6-.8-4.4.6-6 2.7-1.8 2.2-3 5.4-6 6.3-5.4 1.7-11 3-16.7 4-11 1.8-22 3-33 2.4-10-.6-18.5-4-23.5-13.4l-3-6.4c-.6-1.2-1.2-2.5-2.7-1.8-4 2-8.8 3-11.3 7l-.2 4.6c4.8 8.8 11.7 15.6 20 21 1.3 0 2.3.5 3 1.2l3 1.2c1 0 1.6.4 2.3.6 5.6 1.5 11.3 2.5 17 2.8 12 .6 24-.2 35.8-3 2.2-.5 4-1.7 6.3-2 .3-.3.7-.5 1-.6l5.2-1.5c3-1.2 6-2.6 9-4.3 2-1.7 4-3.4 5.7-5.3l1-2c.3-2.6 0-5.4-.5-8.2zM293 392.3c.3 0 .5 0 .6-.2l9.4-2.2c3-.8 4 0 3.4 3-.5 3-.4 6.2-.3 9.3.2 4.8-2 8.2-6.5 9-7 1-13.2 4.5-20 6.3-9 2.2-17.4 6-26.6 7-.8 0-1.4 0-1.6 1-15 2-30 1-44.8 3.6-15.2 2.4-30.2.6-45.2-1.8-5.3-1-10.5-1.5-15.7-3-7.7-2-14.7-5.3-20.7-10.6 1.4-2 3.4-2.8 5.7-2.7.8 0 1.6 0 2.3-.2 1-.3 2.7.3 3.2-1 .6-1.6-1.5-1.2-2-2 0-.4 0-.8-.2-1l3.3-1.4c6.6 1.7 13 4 20 4.5 7 .3 14 1.3 21 2.4 3.7.5 7.4.3 11.2-.3.6.2 1.3.3 1.6-.4.3 0 .3 0 .4-.2 5-.4 10-.5 14.8-1.2 5.8-1 11.7-1 17.5-1 14.6-.3 28.7-3 42.5-7.6l24.3-8c1-.3 2-.4 2.5-1.3z"/><path fill="#1C80CE" d="M494.5 329.5c-.5-3.5-3-5.7-4.8-8.5-1.4-2-2.8-3.6-5-4.7-2.2-1-4.2-2.3-6.3-3.4-2-1-1.8-2.2-.2-3.2 1.4-1 3-2.2 4.6-3 2.6-1.3 3.4-3.2 2.7-6-.5-2-1.8-3.8-2.7-5.7l-1.2-1c-1.5-1-3.2-1.5-5-1.7-.8 0-1.7.2-2.6.4l-3.7 1c-.2.5-.6 1-1.3 1.6-5 4.2-6.7 11-10.7 16.2-.2.6-.7 1.2-1.2 1.7 0 .4-.4 1-.7 1.3-.3.5-.8 1-1.3 1.2-.7 1-1.7 1.8-3 2.3-.5.7-1 1.3-2.3 1.3-3.2 0-4.8 2-5.2 5 .6 3.3 1.8 6.8 5 7.5 5.7 1.3 11.5 3 17.6 1 3-1 6.2-1 9.3-1.6 1.2-.2 2.2 0 3 1 2.4 3.7 6 4.4 10.2 4 4.5-.2 5.8-2 5-6.7zM81.2 383c.3-7.2-2-14-3.2-21.2-1-5.7-9.8-4.2-9.8 1.3 0 10 1 20 6.7 28.2 2 3.3 8 3.2 9-1.2 5.6-24.6-4.5-50.6-10.5-74.2-1.6-6.2-11.2-3.6-9.6 2.7 2.7 11.3 6 22.5 8.5 34 2.5 11.2 4.4 23.4 2 34.8l9-1.2c-4.6-6.8-5.3-14.8-5.3-23l-9.8 1.5c1 6.2 3 12.2 2.8 18.6-.3 6.6 9.7 6.6 10 0zM98.5 145c1.7-3.8 2.4-7.8 1.2-12-.8-2.7-3.4-3.8-6.2-3.4-6.8 1.2-9 7.6-11.6 13l8.5 5c1-2 1.8-4.3 2.5-6.5l-9.6-2.5v.5c-.5 1.2.3-1-.3.4 0 .4-.3.8-.5 1.2h8.7l-.2-.2.7 2.5c-.5 1.5-.6 2-.2 1l.4-.6c.4-1 .6-1.8.6-3 0-1.5-1-3.5-2.4-4.2H90c-2.6-1.2-5.2-.7-6.8 1.7l-.6.8-.6.8c.3-.4.3-.4 0 0l7.8 6c1.6-2.8 4-5 5.4-8 3-5.6-5.6-10.7-8.7-5-1.5 3-3.8 5.2-5.3 8-2.6 5 4 10.4 8 6 1-1 1.8-2.3 2.6-3.6l-6.8 1.8-2.4-4.3c.7-2 .7-2.4.3-1.5-.5.6-.8 1.4-1 2-.5 1.6-.3 3 .5 4.7 1.7 3 7 3.3 8.7 0 .7-1.4 1.6-3 1.8-4.6.4-2.6-.6-5.2-3.5-6-2.7-.8-5.3 1-6 3.5-.6 1.4-1 2.8-1.6 4-1.3 2.6-.8 5.5 1.7 7 2.2 1.2 5.6.6 6.8-1.8l2.7-6 .8-1.3c-.5.8.4-.4.4-.5 1-1-.6.3.6-.4-.6.3.8-.3 1.2-.3l-6.2-3.5c.4 1 .5 2.7 0 4-1.3 2.6-1 5.5 1.7 7 2 1.3 5.7.7 6.8-1.8zM84.2 185.3c11.4 2 21.4-1.4 32.2-4.4 9-2.7 15.7-10 24.5-13 6-2.2 3.3-12-2.8-9.7-7.8 2.8-14 8-21.4 11.8-4 2-9 3-13.2 4.2-5.5 1.5-11 2.4-16.7 1.4-6.5-1-9.2 8.6-2.8 9.7z"/><path fill="#1C80CE" d="M78 175.8c-1.5 20.3-2.8 40.5-5.5 60.7-.8 6.3 9.2 6.3 10 0 2.7-20.2 4-40.4 5.4-60.7.3-6.4-9.7-6.4-10 0zM316.2 478c14.7 1 24.3-14 38.7-14 6.3.2 6.3-9.8 0-10-7.4 0-13.7 3-20 6.4-5.7 3.3-11.7 8.2-18.8 7.7-6.5-.3-6.4 9.7 0 10z"/><path fill="#1C80CE" d="M286 500c9.7-6.6 23.3-7 34.5-9 14.5-2.8 27.7-10 40.2-17.5 5.5-3.4.5-12-5-8.7-13 7.7-26 14.2-40.7 17-11.3 2.3-24.2 2.8-34 9.7-5.2 3.7-.2 12.3 5 8.6z"/><path fill="#1C80CE" d="M247 510.8c25.6-1 48.7-14.5 72.5-22.8 6-2.2 3.5-11.8-2.6-9.7-23 8-45.5 21.5-70 22.5-6.6.3-6.6 10.3 0 10zM487.5 386.6c12.2-3.7 21.8-10.8 29-21.2 7-10.2 10.5-22.6 13.8-34.3 1.8-6-7.8-8.7-9.6-2.5-6 20.6-13.3 41.6-35.8 48.5-6.3 1.8-3.7 11.5 2.5 9.6z"/><path fill="#1C80CE" d="M518.7 336.7c2.5 3-2.6 12.7-3.8 15.4-2.8 5.8-6 11.7-10.3 16.3-4.6 4.7 2 11 7 7 9.6-7.7 12.2-21.6 15.3-32.8 1.8-6.3-7.4-8.7-9.6-2.7-3.7 10-6.2 20.2-11.5 29.5-3 5 3.6 10 7.7 6 9-8.5 15.8-21.6 16.2-34.2 0-4.6-7.4-7-9.5-2.4-4.2 9.3-7.5 19-11 28.5-2 5.2 4.8 8 8.2 5 8.3-7.4 9-19 12-29 1.8-6.2-7.5-8.5-9.7-2.5-3 8.3-6.5 16.4-7.5 25.3-.5 5 5.6 6 8.6 3.5 7.6-6 6-15 7.3-23.5 1-6.2-8-9-9.6-2.7-1.5 6.8-3.3 13.3-4.2 20-.6 5 5.7 6 8.6 3.7 6-5.3 6-13 7.3-20.2l-9.8-1.4c-.6 5.2-2 10-3.8 14.8-2 4.6 5.3 8.7 8.4 5 5.5-7 6.4-15.3 8-23.7 1.2-6-8-8.8-9.6-2.5-1.4 5.4-2.8 10.7-4.7 16-2 5.7 6 8 9 3.8 3.4-4.5 4.7-9.7 4.8-15.2.2-5.5-8.4-6.6-9.8-1.2-1.3 5-2.7 10-4.7 14.7-2.4 6 7.3 8.5 9.7 2.6 2-4.6 3.4-9.5 4.6-14.5l-9.8-1.4c0 4-1 7.2-3.3 10.3l9 3.8c2-5 3.5-10.5 4.8-16l-9.6-2.5c-1.2 6-1.4 14-5.4 19l8.3 5c2.3-5.6 3.5-11.4 4.2-17.4.7-5.5-8.8-6.7-9.8-1.2-1 5.2-.4 12-4.7 15.8l8.5 3.5c.8-5.7 2.5-11.4 3.8-17.2l-9.6-2.7c-1 6.3.7 15-4.7 19.3 2.8 1 5.7 2.3 8.5 3.5 1-8 4.5-15.3 7.2-22.7l-9.7-2.5c-2.3 8-2.6 18.4-9.3 24.4l8.3 4.8c3.3-8.7 6.3-17.6 10.2-26-3-1-6.2-1.8-9.3-2.7-.4 10-6.2 20.5-13.3 27.3l7.8 6c5.8-10 8.6-21 12.5-31.8l-9.6-2.7c-2.7 9.6-4.6 22-12.7 28.5l7 7c6-6.3 10.5-14.6 13.8-22.6 3-7 6-16.6.2-23-4.2-5-11.3 2-7 7zM424.2 387.7c.5 1 .7-.7 1-1 0-.7-.3-1.3-.8-1.7h-.2c-.4-.5-1-.4-1.5 0-1.7.8-3 2.5-3.3 4.4-.3 2 2.2 2.6 3 .8.7-2 2-3.8 3-5.6L423 383c-1 2-2.4 3.8-3 5.8-.4 1 .8 2.2 1.8 1.8-.4-.8-1-1.5-1.6-2.2-3 4.3-6.3 8.3-9.3 12.6l2.5 1.6c2.7-5.8 7-10.3 11-15l-2-2.2-14 18 2.5 1.5c1.4-3.8 3.6-6.7 6.3-9.5l-2.4-1.8c-2.6 3.8-5 7.5-8 11 1 .6 1.7 1.3 2.5 2l4-6c1-1.6-1.2-3.2-2.4-2-1 1.3-2 2.7-3.2 4l2.5 1.5c.3-1 .7-1.6 1.2-2.3 1-1.6-1.2-3-2.4-2l-1.2 1.4c-1.4 1.4.7 3.5 2 2 2.8-2.5 5.5-5.2 8-8-.7-.5-1.5-1-2.2-1.7l-2 3.3c-1 1.7 1.5 3.2 2.6 1.6 2.7-4.6 6.3-8.3 10.4-11.7 1-1 .2-2.7-1-2.7H424l.7 2.8c.7-.5 1.6-.8 2.5-1 2-.2 2-3 0-3-1.6 0-3 .2-4.4.7l1.6 2.5c2.8-2.6 4-1 6 1.3 1 1.5 3.2-.6 2-2-3.3-4.3-6-5.2-10-1.4-1.2 1 0 3 1.3 2.6 1-.5 2.3-.7 3.5-.6v-3c-1.7 0-2.6.6-4 1.5-1.3.8-.8 2.8.7 2.8h1.3l-1-2.6c-4.3 3.6-8 7.6-11 12.3l2.7 1.6 2-3.4c.8-1.5-1.2-3-2.4-1.8l-8 8c-1.4 1.4.7 3.5 2 2 .6-.3 1-.8 1.4-1.2l-2.3-1.8c-.7 1-1.3 2-1.6 3-.4 1.4 1.5 2.6 2.5 1.5 1-1.4 2-2.8 3.2-4l-2.3-2c-1.4 2-2.8 4-4 6-1 1.4 1.2 3.2 2.2 2 3-4 5.6-7.8 8.3-11.8 1-1.4-1.2-3-2.4-1.8-3 3.2-5.3 6.5-7 10.7-.4 1.4 1.7 2.7 2.6 1.5l14-18c1-1.5-.8-3.6-2-2-4.4 4.8-9 9.6-11.7 15.5-1 1.8 1.4 3.2 2.5 1.6 3-4.4 6.3-8.4 9.3-12.7.8-1.2-.5-2.7-1.7-2.3l2 2c.4-2 1.6-3.5 2.5-5 1-2-1.5-3.3-2.6-1.7-1.5 2-2.7 4-3.6 6.4l3 .8c.6-.8.8-1.7.5-2.6-.4-.6-.6-1.2-.8-1.7-.4 1-1.4 2-.6 3.2 1 1.7 3.5.2 2.6-1.5zM519 326.2c2.2 0 4.5 0 6.8.4 2 .3 2.7-2.6.8-3-2.6-.4-5-.6-7.7-.4-2 .2-2 3.2 0 3z"/><path fill="#1C80CE" d="M518.3 326.5c2.2-.5 4.4-.5 6.6-.5 1.5 0 2-2.6.3-3-2-.4-3.8-.6-5.8-.3-2 .2-2 3.2 0 3 1.7-.3 3.3 0 5 .2 0-1 .2-2 .4-3-2.6 0-5 0-7.5.6-1.8.4-1 3.3.8 3z"/><path fill="#1C80CE" d="M527.3 323c-3 .2-6.2.6-9.3.6-2 0-2 3 0 3 3 0 6.2-.4 9.3-.7 2-.4 2-3.4 0-3z"/><path fill="#1C80CE" d="M518.4 326.4l8.3-1c2 0 2-3 0-3l-9 1c-2 .4-1.2 3.3.7 3zM509.3 384.6c1-.2 1.5-1.2 1.2-2-1-2-3.3-1-4.3.4s.8 2.7 2 2c2-1 3.6-2 5-3.5l-2-2c-.6.5-1.3 1.3-2 1.5.4 1 1 1.7 1.4 2.5 3.4-2.8 6.5-6 9.3-9.3 1-1.5-1-3.6-2.2-2-2.8 3.3-6 6.4-9.3 9.2-1.3 1 0 2.8 1.4 2.5 1.3-.4 2.3-1.5 3.3-2.5 1.3-1.3-.8-3.4-2.2-2-1.2 1-2.6 2.2-4.2 3l2 2h-.2l-1-1 1-1.8c-2 .4-1.2 3.2.7 3zM504 285.4c5.5 3 9.3 8.5 14.4 12 5.3 3.7 10.3-5 5-8.6-5-3.6-8.7-9-14.4-12-5.8-3-10.8 5.7-5 8.6zM479.7 64h-7.3c-6.6-.2-6.2 9 0 10 10.3 1.2 20.5-.4 28.5 7.4l7-7c-6.8-5.5-13.4-10.8-22-12.3-8.4-1.3-18-2.4-26.4-1-5 1-4.6 8.6 0 9.7 4.2 1 8.4.5 12.5 1.3v-9.7c-3.6 1-7.2 0-11 0-1.8 0-7 .8-8-1-3-5.6-11.8-.5-8.6 5 2.5 4.7 7.3 5.7 12.2 6 6 .3 12.4 1 18.2-.3 4.6-1.2 5-8.7 0-9.7-4.2-.8-8.5-.2-12.5-1.2v9.7c6.7-1.2 14 .7 20.7 1 7 .4 12.8 5.6 18 9.7 4.8 4 11.7-2.4 7-7-4.7-4.6-10-7.6-16.6-8.8-6.2-1.2-12.7-1-19-1.7v10h7.3c6.4-.5 6.4-10.5 0-10zM162.2 358.5l.3 3.3c3.3-.4 6.6-1 9.8-1.3-.5-1.7-1.2-3-2-4.6-3.3-5-10.3-1.7-9.3 3.8.6 3.2 2 5.7 4 8.2 3 3.4 8.5.6 8.5-3.5v-3l-9.3 2.5c1 2.2 1.5 4.4 1.8 6.8 3.2-1 6.5-1.8 9.7-2.7-.4-1-.8-2-1-3.2-1-5.6-10.2-4.3-9.8 1.3 0 3 .6 5.5 1.4 8l9.6-2.5c-.5-2-1-3.8-1.3-5.7-3.2 1-6.5 1.8-9.7 2.7.5 2.2 1 4.4 1.7 6.6 1.8 6.3 11.2 3.7 9.6-2.5l-1-3.7c-1.8-6.2-11-3.6-9.6 2.7l1 4.6 9-3.7-1-2.5c-2-6-11-3.7-9.7 2.7l1 4.3c1.3 5.4 10.3 4.3 10-1.3-1-10.8-4.4-20.8-8.8-30.6-2.5-5.5-10.2-1.4-9.2 3.8 1 4.5 2.6 8.6 5 12.5 3 5.3 9.8 1.5 9-3.8-1.3-8-6.8-16.6-2.5-24.5l-9-4c-5.7 15.4 4.6 28.2 7 42.8l9-4c-1-2.2-1.4-4.8-1.6-7.3-.8-6.4-10.8-6.4-10 0 .3 4.4 1 8.4 3 12.5 2.5 5.5 9.8 1.3 9-4-2-12.4-11.7-24.3-7-37.2 2-5.4-6.5-8.8-9-4-6.3 11.5-.4 20.8 1.4 32.3l9-3.7c-1.7-3.3-3-6.5-3.7-10.2l-9.2 4c3.7 8 6.6 16.6 7.4 25.5l9.7-1.4-1-4.2c-3.2 1-6.5 1.8-9.7 2.7.6 1.7 1.4 3.2 2.2 4.8 2.8 5.3 10.2 1.5 9-3.8-.2-1.6-.5-3-1-4.7-3 1-6.3 1.8-9.5 2.7l1 3.6 9.6-2.5c-.6-2.2-1.2-4.4-1.6-6.7-1.3-6.3-11-3.6-9.7 2.7.4 2 .8 3.8 1.4 5.6 1.8 6.3 11.4 3.7 9.6-2.5-.5-1.8-1-3.5-1-5.4l-10 1.5 1 3.3c2.3 6 10.6 3.7 9.7-2.7-.5-3.2-1.4-6-3-9-2-4.7-9.2-2.3-9.2 2.5v3l8.6-3.6c-1-1.2-1-2.4-1.3-4l-9.2 4c.5.6 1 1.4 1.2 2 1.8 5.2 10.3 4.7 9.8-1.2l-.3-3.3c-.5-6.4-10.5-6.5-10 0z"/><path fill="#1C80CE" d="M178.2 374.3c-2.5-5-5.4-10.2-5.7-15.8-3.3.4-6.5 1-9.8 1.3 2 5.2 3 10.6 4.3 16 3.2-1 6.5-1.8 9.7-2.7l-5-12.5c-2-5-10.2-4.8-9.8 1.3 0 3 .6 5.8 1.7 8.7 2 5 9.6 4.5 9.8-1.4 0-3-.7-6-1.2-9.2-1-6.4-10.6-3.6-9.6 2.7.7 4.6 2 9 3 13.6l9.6-2.5c-.4-1.4-1-2.7-1.3-4-2-6.3-10.6-3.6-9.6 2.6.5 4 2.2 7.4 3.3 11 2 6.4 10.7 3.7 9.6-2.5-2.3-14.4-16.3-31.4-8.5-45.8 3-5.7-5.5-10.8-8.6-5-10 18.5 4.5 35.2 7.5 53.4l9.6-2.5c-1-3.7-2.7-7.2-3.3-11-3.2 1-6.4 1.7-9.6 2.6l1.3 4c2 6.3 11 3.8 9.6-2.5-1-4.6-2.2-9-3-13.7l-9.6 2.7c.4 2.2 1 4.4.8 6.6 3.3-.3 6.6-.8 9.8-1.2-.7-2-1.3-4-1.4-6-3.4.4-6.7 1-10 1.3 1.8 4.3 3.3 8.6 5 12.8 2.4 5.8 11.3 3.8 9.7-2.7-1.4-5.2-2.4-10.7-4.4-16-1.8-5-10-4.5-9.8 1.5.4 7.5 3.7 14.2 7 20.8 3 5.8 11.6.7 8.7-5z"/><path fill="#1C80CE" d="M157.2 329c-1 8.2-1 15.6 2.7 23 2.8 5.7 11.4.7 8.5-5-3-5.7-2-11.8-1.3-18 .4-2.6-2.6-5-5-5-3 0-4.6 2.4-5 5z"/></svg>