<svg xmlns="http://www.w3.org/2000/svg" width="2500" height="2438" viewBox="0 130.7 595.3 580.4"><radialGradient id="a" cx="-183.7" cy="329" r=".8" gradientTransform="matrix(545.6736 0 0 528.3113 100439.305 -173525.125)" gradientUnits="userSpaceOnUse"><stop offset="0" stop-color="#423325"/><stop offset="1" stop-color="#1c0a00"/></radialGradient><path fill="url(#a)" d="M24.8 155.5h545.7v530.8H24.8V155.5z"/><path fill="#ff7f18" d="M24.8 155.5h545.7v530.8H24.8V155.5zM0 711h595.3V130.8H0V711zm390-373.4c0-2 .7-3 3-3h38.8c2 0 3 .8 3 3v195.7c0 2-.5 3-3 3h-38.4c-2.5 0-3.2-1.3-3.2-3.2V337.7h-.3zm-2.8-56.3c0-16 11-25.3 25.3-25.3 15 0 25.3 10.2 25.3 25.3 0 16.4-10.7 25.3-25.8 25.3-14.4 0-24.8-9-24.8-25.3zm-111.6 138c-7-27.6-23.3-87.6-29.6-116.7h-.4c-5.3 29-18.4 78.2-28.8 116.6h58.8zm-69 40L187 534c-.5 2-1.2 2.5-3.7 2.5h-36.5c-2.4 0-3-.8-2.4-3.7L214.8 286c1.2-4.4 2-8.4 2.5-20.6 0-1.7.7-2.5 2-2.5h52c1.8 0 2.5.4 3 2.4l79 267.7c.4 2 0 3.3-2 3.3H310c-2 0-3.2-.5-3.7-2.3L286 459.4h-79.4z"/></svg>