<svg xmlns="http://www.w3.org/2000/svg" width="512" height="512" viewBox="0 0 438.5 438.5"><path fill="#FFFFFF" d="M422 16.6C411 5.6 397.7 0 382.3 0h-326C40.7 0 27.5 5.5 16.5 16.6 5.5 27.6 0 40.8 0 56.2v326C0 397.8 5.5 411 16.6 422c11 11 24.2 16.5 39.6 16.5h326c15.5 0 28.7-5.5 39.8-16.5 11-11 16.5-24.3 16.5-39.7v-326c0-15.5-5.5-28.7-16.5-39.7zM157.5 158c17.2-16.6 38-25 62-25 24.4 0 45.2 8.4 62.4 25 17 16.7 25.6 36.8 25.6 60.4s-8.6 43.7-26 60.4c-17 16.6-38 25-62.2 25-24.2 0-45-8.4-62-25-17.4-16.7-26-36.8-26-60.4s8.6-43.7 26-60.4zM389 370.6c0 5-2 9-5.3 12.4-3.4 3.3-7.5 5-12.3 5H66.2c-5 0-9-1.7-12.4-5-3.3-3.3-5-7.5-5-12.4v-185H89c-3.7 12-5.6 24.4-5.6 37.4 0 36.5 13.3 67.7 40 93.5 26.6 25.8 58.7 38.7 96.2 38.7 24.7 0 47.5-6 68.5-17.7 21-11.8 37.8-28 50-48 12-20.5 18-42.5 18-66.5 0-13-2-25.4-5.6-37.4H389v185zm0-255c0 5.5-2 10.2-6 14-3.7 3.8-8.3 5.7-13.8 5.7h-49.7c-5.5 0-10.2-2-14-5.7-3.8-3.8-5.7-8.5-5.7-14v-47c0-5.4 2-10 5.7-14 3.8-3.8 8.5-5.8 14-5.8h49.7c5.5 0 10 2 14 6 3.8 3.8 5.7 8.4 5.7 13.7v47z"/></svg>
