<svg xmlns="http://www.w3.org/2000/svg" width="2481" height="2500" viewBox="0 0 256 258" preserveAspectRatio="xMinYMin meet"><path fill="#F9AE41" d="M255.7 35.6C255.7 17 240.7 2 222 2c-17 0-31 12.4-33.4 28.8l-.3-.2c-27.6-12.4-50.8 9.6-50.8 9.6L76 102l24.4 23.3 49.4-48.6c23-23 35.6-7.4 35.6-7.4 17.4 14.6.6 32 .6 32l25 24c20.2-22 21.4-41 15.2-56.3 16.6-2 29.5-16.3 29.5-33.4"/><path fill="#EE4035" d="M226.5 190.5c0-.2.2-.3.2-.3 12.4-27.6-9.6-50.8-9.6-50.8L155.5 78 132 102.3l48.6 49.4c23 23 7.5 35.6 7.5 35.6-14.6 17.4-32 .6-32 .6l-24 24.8c22 20.3 41 21.5 56.3 15.3 2 16.7 16.3 29.5 33.5 29.5 18.6 0 33.6-15 33.6-33.6 0-17-12.5-31.2-29-33.5"/><path fill="#4F91CD" d="M156 133l-49.5 48.6c-23 23-35.6 7.4-35.6 7.4-17.5-14.6-.7-32-.7-32l-25-24c-20.2 22-21.3 41-15.2 56.3-16.5 2-29.3 16.3-29.3 33.4 0 18.6 15 33.7 33.7 33.7 17 0 31-12.6 33.3-29l.3.3c27.6 12.4 50.8-9.6 50.8-9.6l61.4-61.6L156 133"/><path fill="#7AC043" d="M75.7 106.6c-23-23-7.4-35.6-7.4-35.6 14.6-17.4 32-.6 32-.6l24-25c-22-20.2-41-21.4-56.3-15.2C66 13.6 51.8.7 34.6.7 16 .7 1 15.7 1 34.4c0 17 12.5 31 28.8 33.4 0 .2-.2.3-.2.3-12.4 27.7 9.6 51 9.6 51l61.7 61.3 23.3-24.3-48.6-49.4"/></svg>