<svg xmlns="http://www.w3.org/2000/svg" width="935.7" height="614.1"><path fill="#1C80CE" d="M644.5 386c-2.3-1-4.6-2.3-7-3.4-3.6-1.8-5.3-1.2-7 2.7-.7 1.7-1 3.5-3.8 2-1.7-.7-3 1.8-4.8 2 .3 1 0 1.6-.7 2.2.4 2-.5 2.8-2.3 3l-.2.2c-1 3.3-3 6-6.2 7.7 0 0 0 .2-.2.2 0 1.2-1 1.2-1.7 1.3 0 .4-.3.8-.8 1 0 0-.2 0-.3.2 0 .4.2.7-.4.8-6 7-12.4 13.8-19.6 19.8-1 .8-1.7 1.7-3 1.6-.3 1.3-1.2 2-2.2 2.6-15 10.5-29.8 21-44 32.4-.7.7-1.4 1.5-2.6 1.5-1.8 2.7-4.8 4-7 6-.6.5-1.3.4-2 0-2.4-1.7-5-1.2-7.8-.6-6.3 1.6-12.8 2.4-19 4.8-.8.4-2 .7-3 .6-6-.7-11.2 1.7-16.5 4-6.4 3-13 5-20 6-8.8 1.5-17.4 3-26 4-8.8 1-17.5.7-26 .2-10.2-.5-20.4-1.7-30.4-3-6.2-1-12.3-2.4-18.3-4.4-7.7-2.4-14.7-6.3-21.4-10.5-5.2-3.2-9.3-8.2-13.5-13l-2.7-3c-6-5-10.3-11.2-13.3-18.2-3.4-4.4-6.3-9.4-8-14.8-.3-.7-.3-1.3-.3-2l-1.2-3.4c-1.2-3.5-2.2-7-3-10.6l-.2-1-3-8.7c-3-8.2-4-17-4-25.7 0-1.3.3-2.3 1-3l-.3-2.2c-.3-3.5 2.7-16.2-1-18.3 1.4.8 3.2.5 4 2 4.8 1.2 9.4 2.4 14.3 3 6.4.8 11.5-2.7 17-4.7 1.2-.4 2.3-1 3.4-1.5l1.3-.8h.2c1.2-1.4 2.7-2.4 4.4-3 0 0 .2 0 .3-.2 2.6-1.6 5-3.5 7.3-5.6 1.2-1.8 2.6-3.4 4-5 4-6.8 8.4-13 7.6-21.6l-1.5-2.4c-1.7-1.4-3.6-2.5-5.2-4-.7-.2-1.3-.3-2-.3-1 .2-2.2.7-3.2 1.2-.6.6-1.2 1.3-1.7 2.3l-.7.8-3 5.4-2.3 5.4c-1 2-2.2 3.7-3.6 5.2-1.3 1.5-3 2.7-4.6 3.3l-1.5.7c-1.2.6-2.4 1-3.8 1-4 1.2-11.4-.5-13.7-3.3-1.7-2.3.2-3.2 1.6-3.7 5-2 7.3-6 8-11 .8-5 2-10.2-1-15-.5-1-.5-1.6 0-2 0-.4.2-.6.4-1l3-2.8c7.3-6.2 20.3.3 29.8 3.4l2.3-1c1.4-1.5 1.3-2.7.3-4.4-4-6.8-8.2-13.3-14.6-18-8.4-6.4-17.2-8-27-4-3 1.2-6 2.5-8.7 4.8l-.6.6-.7.6c0 .6-.4.8-1 1-2.2 5.6-6.5 8.6-12.6 9-2.5 2-3.2 1-3.6-2-1-8.6-1.5-17.2.4-25.8.8-3.8 2-4.5 5.2-3 7 4 14.8 6 22.5 7.7 6.4 1.6 13 1.6 19.4 1.4 1.8-1 3.7-1.8 5.8-2 7.7-.2 8-.5 7.7-7.7-.2 0-.3 0-.3-.3-3.5-3.6-8.7-5.2-11.3-9.7-2-3-4.2-5.5-7.2-7.3-1.3-.8-2.4-1.3-4-1.3-8.3 0-16.3-2.5-24.4-4h-1c-1.7 1.6-4 2.8-5.4 5-1 1.2-2.7.8-4-.6-.7-1.5-.6-3-.2-4.6-.2-.4-.2-1 0-1.3-.2-.6-.2-1.2 0-1.8-.3-1.7-.8-3.4.4-5-.2-1.5-.2-3 .3-4.2-.4-2.3-1-4.7.5-7 0-1 0-1.8.3-2.8-.3-.4-.2-.8.3-1 0-1.2-.2-2.4.3-3.6-.8-2.5-.3-5 1-7l.3-2.7c-.5-.6-.4-1 .2-1.2 0-.7.2-1.4.4-2-1-2.7 1-2.5 2.5-2.6 3.8 0 7.5-.6 11.3-1 6-.7 11.3-2.8 16.7-5.2 1.3-.6 2.5-1.2 4-.8l1-1c.8-1.6 2.6-1.4 4-1.8l.2-.2 6-4.5c1-.7 2-1.5 3 .2.3 0 .5 0 .7.2.7 0 1 .2 1 .8 4.5 1.6 8.7 4 13.4 4.2 9.7.8 19.4 1.6 28.7-2.8 7-3.4 12.6-8.6 16-15.5 1.7-3.3 2-7.5 2-11.5 0-1-.4-2-1.2-2.5-3-2-5.5-4.4-9.3-5-4.6-.5-8.8 1.8-10 6.4-2 8.4-8 11.5-15.4 12.6-2.8.3-5.5 1.3-8.3 1.4-6.6.3-10-4.5-13.2-9l-2.3-4c-3-4.2-7.5-3-11.6-3.3 0 .6-.4.7-1 .6-3.3 3.6-3.7 7.6-1.5 12 1 1.8.3 2.8-1.7 3.4l-20 7.4c-2.4 1-5 .5-7.5 1-1.2.3-1.8-.6-1.5-1.5 1.4-3.5 1.7-7.5 4.4-10.3 1-3.2 2-6.2 3.2-9.3.4-1 1-2.4.4-3.4-1-1.4-2 .2-3.2.4-2 .3-3.8.5-5.5 1.4-.6.2-1.6.4-2-.2-2.2-3-5.3-2.3-8.2-2.4l-1.2 2.5c.7 1 .2 1.3-.6 1.5l-4.5 11.4c-.5 1.3-1 3-2.7 3-1.6 0-2.2-1.7-2.7-3l-1.5-5.5c-1.3-1-2-2 0-3l2.3-.7v-.2h.3l.4-.2c1.6-2 2.8-4.4 5.2-5.6v-1.5c-1.6-1.7-3.7-2.7-6.2-2.5-.6 0-1.5 0-2-.4l-.4-.4c-1.6 0-3.2.2-4.8 0-1.4.4-2.8.4-4.3.4-.4 0-.8 0-1-.2-5.4 1-11.3 1.7-15.6-1.8-1.5-.6-2.8-1.5-4-2.6-.5 0-1-.4-1.5-1-.7-.4-1.3-1-2-1.6 0-.2 0-.4-.2-.5-2.2-2.3-3-5-2.8-9v-.2c-.2-.6-.2-1.3 0-2l.5-1.2c-.3-4.6 2-9.6 5-13.7 2-4.3 4.8-8 8.3-11l.3-.3.4-.2c.4-.8 1-1.6 2-2.2.5-.4 1-1 1.7-1.2.3 0 .4 0 .5-.2 1-1 2-1.7 3.3-2.4l1.3-1c8.2-6.4 19.8-7 30.3-4.7 1-.8 2-2 2.7-3 3.3-3.7 1.4-7.5-4.7-9.8l-6-2.2c-.4 0-1-.2-1.2-.4-1 .2-2.2 0-3.4-.3-.7 0-1.4 0-2-.4h-1.3c-.5 0-1-.2-1-.5h-.2l-.4-.4h-1c-1.5 0-1.5-2.2 0-2.3 0-.2.2-.3.4-.5.2 0 .3-.2.5-.3 0-.3.4-.4.8-.5.2 0 .4-.2.6-.4.4-1 1.3-2 2.5-2.3h.4c1.7-2 3.6-3.4 5.7-4.5 1-1 2.2-2 3.5-2.8.6-.3 1-.4 1.6-.4l.8-.6c.5-.4 1-.5 1.6-.6 3-1.7 6-3.2 8.8-5 4-2.5 8-4.6 12.3-5.7h.2l.3-.2c2-.8 4.2-1.4 6.4-2h.3l2-.8c.3 0 .6-.2.8-.3.4 0 .7-.2 1-.3 4-1.8 8.3-3.2 12.5-4.5h.6c2.7-1 5.5-1.6 8.3-2.2 7.7-1.5 15.3-3.7 23-4.4 8-.7 15.8-2 23.7-1.6 4.7.3 9.4 2 13.7 4.5 7.2 4 14 9 22 11.3 3.3 1 6.7 1.4 10 2l1.8.5 4.4.8 3-.6c5.4-1 8-2.4 12.7-5.6 0 0 .2 0 .3-.2.8-.7 1.5-1.3 2.4-1.8.3-.3.6-.5 1-.6 21.5-16 48.2-17.8 74-10.6.3 0 .5 0 .8.2 5.5 1 11 2 16.5 2.8 9.5 1.6 19 3 28.7 3.3 11 .4 22 2 32.6 5 5 1.6 8.6 5 12.8 7.6 5 3.3 10 4.4 15.7 2.3 1.6-.6 2.2-2 3.3-3 .6-3-.3-5.6-2-8-.2 0-.4 0-.5-.2-3.5-1-6.8-2.2-10-4-5.7-3.8-11-8.3-17.5-10.8-7.2-2.8-14.3-5.5-22.3-6.3-11.4-1.3-22.8-2-34-3.6l-21-3c-13.3-2.5-27-4-40.5-3-8.7.5-17.2 2.5-25.6 5.3-10.4 3.6-18.7 10.3-27 17-3 2.3-6.4 1-9.5.6-9.8-1-18.2-5.8-26.7-10.8-6.7-4-14.4-6.4-22.3-7-12-.8-23.7 1.4-35.4 3.5-9 1.5-17.6 3.6-26.2 5.8-9 2.3-17.5 6-26.2 9.6-10.4 4-20 10-29.3 15.7-8.7 5.4-17 11.2-24.4 18.4-6.4 6.5-9.5 14.7-12.8 22.8-2.6 6.3-6.2 12-9.3 18-5 9.3-6.5 18.8-3.8 29v2.2c3.3 7.8 8.6 13.7 16.2 17.4 4.4 2.3 9.3 3.7 14.4 4 4 .3 6.2 1.7 7.6 5.7 2.5 7 6.7 13.5 12.6 18.5 1.7 1.4 2.6 2.8 2 5.3-.3 2.2-1.4 3-3.2 3.2-5 .4-9 3-13.5 4.3-10 3.3-20 2.5-27.7-5.5-2.5-2.7-3.5-6-3.6-9.8-.6-.4-1-.7 0-1.2-.5-3.4-.3-6.7 1-9.8l.3-1.4.4-.8v-.4l.7-2.2.4-.8c0-.3.2-.5.3-.8v-.7c-.3-.8-.4-1.7-.3-2.5l-1-1.3-1.6-1.2-.5-.6c-2-.4-4-1-5.8-1.8h-.3c-7.5 1-9.6 2.8-10.7 10.5-.3 2.3-.8 4.6-1.3 6.8v9.3c0 .4.2.7.3 1 0 .5.2 1 .3 1.4 0 .4.2.7 0 1h.2v.7c.5 1.2 1 2.5 1.3 3.8l.5.8c.7 1.7 1.3 3.3 1.7 5l.7 2c1 1.3 2 2.6 2.8 4l.8 1.2 1.4 1.5 1 .7c.2.4.6.8 1 1 1.5 1 2.7 2.3 4.2 3.2 8.4 5 17.4 7.4 27.3 6 5.8-1 11.6-1.8 17-4 1.4-.7 2.4-.6 2.3 1.2-.8 14-1 28-3.4 42 0 .7-.5 1.2-.8 1.8 0 .4 0 .8-.2 1.2.6 3.3-.5 6.5-.6 9.7-.6 13 .6 26.3 1.6 39.4.5 5.8 1 11.7 2 17.4 1.8 8.8 3 17.7 4.8 26.5 1.7 8.6 3 17.3 2.7 26 5 4 5.6 9 2.6 14.3 2 9.6 2.7 19.4 4.3 29 1.2 8 2.8 15.8 6.3 23 1.5 3 4 5.5 4.5 9 4.4 5.3 8.7 10.8 13.2 16 2.6 3.2 5 6.5 7.8 9.5l5 4.3c1 0 2 .4 2.8 1.2 5 4.8 10.2 9.3 16.5 12.4.3 0 .6 0 1 .3 3.7 1.7 7 4 10.2 6.6l4.6 2.3c11.4 4.4 23.4 6 35.5 7.3 12.5 1.3 24.8 4 37.4 3.6l7-.2c3 0 4.8 1 5 4.2 1 12 .3 23.8.4 35.7.2 5.5-.4 11 .6 16.5 1 5.4 5.4 9 10.8 8.8 1.5 0 3 0 4.5-.2 1-2 1.5-4.5 4.3-5 1-1.4 0-2.7 0-4-1.2-2.6-.5-5.4-.3-8 1-12.8-.2-25.6-.4-38.4 0-1-.4-2.3-.6-3.5-1.3-7.7 0-8.7 7-9.8 9.4-1.4 19-2.6 27.7-6.6 3.2-1.4 5.8-3.7 9.3-4.6 12.6-3.2 25.4-6 38.2-8.3 2.6-.4 3 1 3 3 .7 7.2.4 14.5.3 21.7 0 9-.6 18.2-1 27.3 1 .8.8 2 .8 3v15.6c0 7 6.8 12 13.4 9.8 3.8-1.2 6.5-5.8 6-9.8-.3-2.7.2-5.4.7-8-1.2-2.6-.7-5.4-.7-8 0-10.3.5-20.6.7-31 0-9.5-1-19-2.3-28.4-.3-2.4-.3-4.3 2-6.2 10-8 20.4-14.7 30.3-22.4 13.5-10.2 26-21.3 36.4-34.8 2.6-3.4 5.5-6.7 8.2-10 0-.6 0-1 1-1l.3-.4c0-.3 0-.6.3-.6.8-1.8 2.4-3 3.7-4.5-.3-1 .6-1.3 1-1.8 1-.8 2.2-1.6 3-2.5 3.3-4 2.6-7.4-1.8-9.7zm-356.7-64c-.6-7.4-2.8-14.4-3-21.6.2-1.2-1-3 1-3.2 2-.2 3.5 1 3.7 3 .3 2 .7 4 .4 6-.7 4.2-.6 8.4 2.4 12 1.3 1.6-1 5.3-3 5.3-1.2 0-1.6-.7-1.6-1.6zM440 563.5v-.4c.2 0 .2 0 .3.2 0 0-.2 0-.2.2z"/><path fill="#1C80CE" d="M747 186.7c-.5-11-2.8-21.4-4.8-32-2.4-13.4-4.3-27-6-40.4l-.2-1c-.8-3.3-1.4-6.6-1.7-10l-.5-2-.5-2.3v-.2c-.8-1.7-1.3-3.5-1.7-5.3l-.2-.4c-.8-3.7-3.5-6.8-4.8-10.4-3-9-10.3-13.8-18.7-17.3-1.2-.4-2-1-3-1.8-1.3-1.3-3-2.2-5-2.4-2.5 0-4.7-.8-7-1.7-7.7-3.3-15.7-4-24-3h-2.4c-6.8-.8-13.5-.7-18.8 4.7-1.5 1.5-2 3-.3 4.4.7.6 1 1.4 1.4 2 1 2.4 3 3.5 5.7 3.5 5.4 0 11-.2 16.4.3 3.7.3 7.5-.5 11.3-.2l.4.2c1.2 0 2.4 0 3.6.2 1.2 0 2.2.7 3 1.4.2 0 .4 0 .7.2.7 0 1.5 0 2 .5 2 .5 4 1.2 5.6 2 0 .2.3.2.4.2 0-.3.2-.4.2 0 3 1.2 5.7 2.8 7.4 5.5 4 6.4 7.2 13.2 8.5 20.7 2.6 2 2 5 2.4 7.6 2.7 18.8 5.8 37.5 9.4 56 1 4.4 1.5 8.7 2 13 .3.6.5 1.4.2 2l1.6 9.3c.2 1.2 0 2.4-.7 3.3-.2 7.4.6 14.8 1 22.2.2 6.5-.6 13-.8 19.4-.2 4.7-.2 9.5-.5 14.2.2 3.2 0 6.4-.6 9.6v2.9c-.6 7-.6 14-2.3 21 0 .5-.3 1-1 1l-.7 1.7c.5 1.6-.3 2.8-1.6 3.4-1.5.8-1.3-1.5-2-1.7-3.6-1-4.3-3.4-4.5-6.5 0-.5-.2-1-.4-1.3-.5-.6-1-1-1.3-1.8l-.4-.5c-.3 0-.5-.2-.7-.3l-1-.8c0-.2 0-.3-.3-.3-1-.5-1.5-1.3-2-2.2-3.7-3-8.2-5.2-13-7-3.3-1-6.6-3-9.6-4.8-7.6-4.7-15.7-5-24-3-1 .3-2 1-2.3-.6-.3-.5-.4-1-.4-1.8-.4-.6-.6-1.4-.6-2.2l-.3-7.8c-.6-4.2-1.6-8.3-2-12.5 0-2-1-4-2.5-5-3.2-2.3-6.5-4.4-10.4-5.7-5.2-1.7-10.6-1-15.8-1.6-3-.4-4-1.8-4.8-4.3-1.7-6-2-12.3-2-18.6 0-8 .4-16.2-.6-24.4-.6-5.3-2.7-9.5-7-12.2-4.3-1-8.8-.7-11 4l-1 2.8c.6 1.8 0 3.6.4 5.4.6 3.8.2 7.7.3 11.6v11.8c.2 2.2.4 4.5.4 6.8 1 5 1.5 10 2 15 1.6 5 4.3 9.8 7.3 14 2.7 3.7 7.2 6.4 12.4 6.6h8.8c5.7 0 8.5 3.4 7 8.8v4.5c.4 1.6.4 3.4.5 5v1c1 5.7 1.6 11.6 1.6 17.5 0 .6 0 1.2-.4 1.7.8 5.6 2 11 3.3 16.4 3.5 4 7.3 4 11.2-1.3 0-.6 0-1 .2-1.6l1-4 .4-1.8c.4-2.2 1-4 2.3-6l.5-1c.4-.5 1-1 1.3-1.5.4-.6 1-1 1.6-1.5l3-1.5c4.2-3 11.6-3 16-1.2.5 0 1 .3 1.4.5 1.5.5 3 1 4 2 3 1 5.7 2.6 7.8 4.8 1 .4 1.6 1 2.3 1.6 1.8 1.5 2.8 3.5 4.4 5l.7 1c2 2.3 3.2 5.4 5 8 1 1.8 3 3 4.5 4.3 1 .7 3.2.2 4-2 1-3 2.8-3.4 5-1 5 4.7 8.2 5 14.2 1.7l1-.6 1.2-1 .4-.3v-.2l1-1.3c3-12.5 5-25 6-37.8.4-8.7 1.2-17.4 1.4-26 .4-15 0-30.2-.7-45.3zM240.7 441c0-1.5-.4-3-.4-4.4 0-.5-.2-1-.3-1.3l-.6-2.2c-1.7-6-3.5-12.2-6-18-3.2-7.5-8-13.7-14-19-4.3-4-8.4-8.2-13.4-11-3.8-2.3-7.4-4.8-11.7-6.4-3.8-1.3-7.4-3.5-11-5.3-3.5-1.7-7.4-2-11-3-4-1-8.5.2-12.6 2-3.3 1.5-7 1.6-10.3-.2-2.3-1.2-5-2.6-7.2-3-4.2-.6-8.5-1.3-12.8-1.4-6-.3-12.3-.7-18.3 1-4.6 1.6-9.5 3.3-12.8 7-2 2.4-4 4.4-7 5.5-5 2-8 7.2-12.7 9.7-1.8 1-3.3 2-4.7 3.5-2.2 3.2-4.8 6-7.7 8.8l-2 4.6c-.4 1-.7 2.3-1.6 2v.3l-1 3-.6 1.2c.3 3-1.5 5.5-2 8.3l-.8 2v2c-1.4 5.8 0 14.7-1 22.3.2 1.3 0 2.5-.4 3.7 0 .6 0 1.3-.3 2 0 .4-.3 1-.5 1.4 0 .2 0 .4-.2.6 0 .5 0 1-.2 1.7-1 5.2-5.8 8-10.6 8l-2.5 1c-3.3 1.4-7 2.3-10.6 3-4.8 2-9.6 4-14.7 5-3.2 1-6.3 2.4-9.2 4-1 1-2 2.2-3 3.5-2 3.2-3.5 6.6-4.8 10 0 3 .7 6 2 8.2 2.3 2.2 4.7 4.2 7.3 5.7.5.3 2.2.7 2.2 1 0 0 .3 0 .4.2h.2c1.6 0 3.3.2 5 .6.5 0 1 .3 1.5.5l9.2 1 3-.3 14-1h1c.6-.2 1.2-.4 1.8-.4H49c1.8-.3 3.6-.4 5.4-.5h.6c2.5-.7 5-1 7.6-1 3.3-.4 6.6-1 10-1.7h1.8c2.6-.5 5.2-.4 7.8 0 0-2 .6-4.2-.6-6.4-1-2-.7-4.7 1-6.8.7-.8 1.6-1 2.6-.7.4.2 1 1 .8 1-1.8 2.6.8 5 .5 7.4-.5 3.8 2 5 5 6 .7.2 1.2.5 1.8 1 2 1.7 3 3.8 3.7 6 3.8 4.8 3.5 12.8 3.5 20 4.7 14.6 0 31.2 1.8 46.2 0 .8 0 1.5-.2 2l.3 1c.6 7.3.7 15 3 22 2.2 6.6 6.4 10 12.8 10.5 3-1.2 3.6-3.8 2.8-8.3v-1.4c-.2-1-.2-2.3 0-3.5l-.5-11.6v-1c-.2-.6-.3-1-.3-1.6-.6-3.8-.6-7.6-.2-11.5v-.7c-.4-10.3-1-20.7-1.3-31 0-1.5 0-3-.2-4.6V537v-1c0-1.8.2-3.5.4-5.2V525c-.5-.5-.5-1 0-1.4-.3-2-.6-4-.7-6-1.2-3.5-2.4-6.7-3-10v-.3l-1.5-3-.5-1.3-6.8-6.3c0-.2-.3-.3-.4-.5l-1.5-.5c-3.4-1.5-6-4-9.6-5.3-4-1.4-8.4-.7-12.5-.7-10 0-20 0-30 1.3h-.6c-5 1.6-10.3 3.2-15.7 3l-3.6 1h-1c-4 .8-8 1-12 1-1.4 0-2.5-1-2.5-2.4-.2-7.8 8.4-8.6 14-10.3h1.3l2.8-1h1.6l5.5-2.2c.8-.3 1.6-.2 2 0 .8-.3 1.4-.3 2 0 .7-.5 1.5-.6 2.5-.5 5.4.4 10.7-1.3 16-1.6.3-.2.5-.2.8-.2.3-.4.7-.7 1.2-1 1.7-1 3-2 4-3.3.2-1 .6-2 1-3.2l-.2-1.2v-5.3c-.7-.6-1.6-1-2.5-1.3-2-.5-4.2-1-6.3-1.3-1 0-2 0-2-1 0-1.6 1.3-1.3 2.3-1.4h2c2.5 0 4.3-.7 5-2.2v-.3c-.2-1.6-.3-3.4-.2-5-.3-2.8.4-5.2 1-7.5 1-4.2.6-8.4 2-12.5l2-4.6c0-.5 0-1 .3-1.5 0-.5.3-1 .4-1.4.4-1.2.8-2.4 1-3.7.3-1 .7-1.6 1.2-2l1-2.6c.3-1.2 1-2 2-2.5 1.2-2.3 2.3-4.5 3.8-6.6.8-1 1.8-1.7 2.8-2l3-3 .7-.5c0-.4.3-.7.6-1 .8-1 1.7-1.7 2.5-2.5.7-.6 1.3-1 2-1.2.7-.7 1.6-1.4 2.5-2 1-.7 1.7-1 2.5-1 .4-.3 1-.6 1.3-1l.3-.3c1.6-1.5 3.3-2.5 5.2-3.4l1.7-.8c1-.6 2.4-.7 3.5-.4 2.7-1.3 5.4-2.5 8-4 1.6-1 3.4-1.3 5.2-1.3l1.3-.7c2.6-1.5 5-.2 6 1.8 1 .4 1 1 .6 1.6.4 1.6 0 3.3-2 4.4-9.2 5.3-15.7 15.4-19.6 25-3.6 9.2-6.8 20-4.6 30 3.6 16.4 20.4 22.2 35 27.2h7.4l3.8-.6c.2 0 .4 0 .6-.2l3.4-1c.5-.4 1-.5 1.5-.5 3.5-1.6 7-3 10.6-4.2.4 0 .8 0 1-.2l6.6-3c7.4-3 14.3-6 16-14.6 2-10.3-1.5-21.5-7.4-30-1.2-1.6-2.2-3.6-3.3-5.5-3-2.2-5.8-4-7.4-5.7l-1-1.4c0-.2-.3-.4-.5-.6l-.8-1.4c-3-1.4-6-2.5-8.7-4.4l-.4-.4c-2-1-3-3.2-2.6-5.2-.2-1 1-1.7 1.5-2.5 2.6-4.5 6-4.2 10.7-3.5 7.6 1 14 5 20.8 7.5 2 .7 3.7 2.5 5.3 4.4.8 0 1.5.5 2 1 2.4 2.2 4.2 4.7 6.2 7l1 .7c1 .7 1.6 1.6 2 2.6l2 1.7c.8.5 1.3 1.2 1.6 2 4.4 4.7 7.4 10.6 7.6 17.3 3.3 7.5 3.8 15-5 18.8-1 2-2.6 3.3-4.6 3.7 0 .2-.2.3-.3.4 0 1-.4 1.7-1 2-1 .6-1.7 1.2-2 2l-.4 2c0 .6.3 1.2.2 1.7v2.1c.7 2 1.3 3.6.3 5 0 1.2 0 2.3.2 3.4v2.2c.2 3.6 0 7.3 0 11 .8 7 0 14 .3 20.7l1.4 33.5c.5 20 1.8 40.3 0 60.4.5 1 1 2 1.2 3 .2 1 .2 1.7 0 2.4l1 1.5c0 .3.2.5.3.7l1.8.6h.8c7.6 1.2 9.6-15 10.3-19.7.6-4.7 1-9.5 1-14.2l-.2-1.8c.3-6.4-.4-12.8-.5-19.3-1-6-.7-12.3 0-18.4v-4.7-.6c-.4-.7-.5-1.4-.5-2-.7-4.5-1-9-1-13.5 0-4-.2-8.4.7-12.5-.3-5-.4-10 .4-15V485.2v-.3c0-.8 0-1.6.2-2.3v-1c-.2-1 0-1.8.2-2.7-.4-2.5-1-5-1.2-7.6-.3-2.7 2-3.8 4-4.7 5.4-2.3 10.3-9.7 10.4-15.7 0-3.2-.2-6.5 0-9.7zm-70.2-28.6c2 2 3 4 3.7 6.2 4 3 5.3 7 4.8 11 .7 2.7 1 5.4 1 8.3-.4 7.2-5.6 13-13 15.2-5.6 4.5-14 6.6-20.8 6-3.4 1-6.8 1-10-.3-3.8-1.4-7.5-3-11.5-3.2-1.4 0-1.8-.7-1-1.8 1-1 .5-2 0-3-3.3-5-4-10.3-3-15.6-.2-2 .2-4 .8-6.2 1.4-10.4 9-19.2 18.8-22.8.5-.5 1-.6 1.6-.6 2-.6 4.4-1 6.8-1 7.5-.5 16.5 1.7 21.7 7.6zM427.6 375.2v2c-2.5 1.2-4.8 3.4-7.3 3.6l-10.5 1c-8.5 1.3-16.8 3.5-25.3 4h-6.7l-3-1-.4-.4c0-.2 0-.2-.2-.3 0 0-.3 0-.4-.3 0-.2-.3-.5-.5-.7.6-1.3-2.4-3.3.8-4.2.7 0 .3-.7 0-1-2-1-1.3-1.5 0-3 2.8-3.3 3-7.4 1-11.4-1.4-2.4-3.8-3.4-6.6-3.2l-.7-.6c.3-5-3.6-8.8-4.6-13.6v-2.2c.5 0 1 0 1-.5-.3-3.3-.3-6.6-1.5-9.7.2-4 1-8 2.4-12 .6-2 1.7-4 1.6-6.2l.2-.7c1-2 1.4-4.2 1.8-6.3l.5-1c2.2-3 3.3-6.5 4.6-10 3-7.5 7.2-14.2 13-20 3-2.7 5.7-2.4 8.5.5 2.8 2.7 3.4 5.8 2 9.6-3.4 10.5-8.8 20.2-12 30.8-2.2 7.2-4.8 14.3-4 21.8.6 7 2.2 14 3.3 21.2.4 2.5 1.6 3.2 4 3.4 7.7.5 15.2-.2 22.8 0 7.6.4 13 4 16.6 10.4zM510 292c-.5-.5-.7-1-.7-2l-.4-.8c-3-5-7.2-9-11.6-12.5-.4 0-.6-.2-.7-.5l-1-1c-1.7-.6-3-1.7-4-3.2h-.2s-.3 0 0 0l-1-.5c-.7-.3-1.2-.6-1.6-1-1.3-.5-2.3-1.2-3-2.4v-.5c-7-2.4-14.3-3.2-21.7-1.7l-5.3 2.4c-4.8 2-8.6 5-10.3 10-1.4 4.3-2.2 8.6-3 13-.3 2.5.4 4.6 2.3 6 2 1.6 2 3.4 1.7 5.6-.5 2.2-.6 4.4.2 6.7 1.6 5.5 4.5 10 9 13.8 3.2.7 6.2 1.6 9.5.4 3.6-1.3 6-4 5.6-7.7-.3-4.3 2-8.2 1-12.5-.4-1.2.8-1.4 1.7-1.4 2.3 0 4.8-.2 7 .4 4 1 8 1 12 1.2-.2-.8.2-1.2 1-1.2.7 0 1 .3 1 1h3.7c.2-.3.5-.5.8 0l1.5-.5c.7-.6 1.5-.8 2.3-.8l2-1c0-1 .4-2 1-3 .7-.5 1.2-1.2 1.5-1.8 0-1.5 0-3-.5-4.4zM577 164.6c7-3.6 14.7-4.8 22-7.7.2-.2.5-.3.7-.3 1-1.2 2.4-2 3.5-3 3-2.8 5-5.8 3.4-10.2-1-.4-1.7-1-2-2 0-.2-.3-.4-.5-.6-3-1.3-5.4-3.8-9-2.5l-5.7 2c-7.7 3.2-15.7 5-24 5.5-7.3.4-12-3-14.5-10-1-2.5-1.5-5-2.3-7.7-1-4-1.6-8-4.6-11.3-3.8-3.8-10.6-5.3-12.7 1.6-.5 1.6-1.4 3-2 4.7v2c1.4 6.4 2.6 13 6 19 4.3 7.8 10 14.3 18 18 6.2 2.6 13.2 3.5 20 2.8 1.3 0 2.5-.2 3.7-.4zM506.5 249.6c-2-2-3-4.8-5-7-1-1.2-2.4-2.4-3-3.7-2-5-6.4-6.6-10.8-8-1.5-.4-3-.5-4.5-.2-6.4 1.3-13 1.6-19.2 3.5h-1.2c-.3 0-.5.2-.7.3v.2H460c-.3.3-.6.4-1 .5-3 2-6.8 3-8.8 6.4.4 1.5-.2 2.6-1.6 3.3 0 .5 0 1-.2 1.4.6.6.6 1.2 0 1.8l1 2.2c1.4 1.5 1.4 3 0 4.4 0 .6.3 1.3.5 2 0 0 0 .3.2.5l.4 1.3c2.6 2 5.3 3.3 8.7 4 8.3 1.4 16.3-.6 24.5-1.5 1.6 0 3.2 0 4.7-.6h.2c.4-.4 1-.6 1.4-.8.6-.4 1-1 1.5-1.6.8-1.2 1.5-.2 2.2.2l2.2.8c1 0 2 .3 3 .5h.4c1 0 2-.3 3-1 .4 0 1 0 1.3-.2 1.7-.2 4.2.6 4.6-2 .3-2.2.4-4.7-1.8-6.7zM490.5 324.4c-.6.7-1.3 1.2-2 1.5l-2 2c-6.4 5.8-13.8 8.7-22.7 7.3-2-.3-4-.8-5.5-2.5-3-3.5-7.4-2-11.3-2.5-.7 0-1.5.6-2 1.5-1.5 4-.5 8.3 2.7 11.3 3 2.8 5.7 6 9 8.2l13.8 3c8.8.8 14.8-5.4 22-8.6 3-1.3 5.7-3.3 8.7-4.8 3.4-1.7 5.2-5 7-8.4 2.4-9.7-11.3-17-17.7-8zM928.3 478.5c-3.4-4-8.4-6-13.3-8-6.6-2.3-13.5-4-20-6.7-5.2-2-10.2-3.3-15.6-3.4-11 0-22.2-1.8-33.4-1.3-2.7.2-4-.7-4.4-4-.8-7.6-1-15.5-4-23-.8-1.8-2.4-3.6-2.8-5.6-.6-4-3.2-6.6-5.5-9-6.8-7-14.4-12.7-23-17.4-8-4.4-16.7-6.2-25.8-5.2-9 1-18 2.5-24 10.3-2.2 2.8-4.2 2.4-6-.3-1.3 0-2.5-.2-3.4-1-2.4-2.8-5.8-3.8-9-4.4-10-1.7-19.3-1-27.3 5.8-2.2 2-4.5 3.5-7 5-3.2 3-6.4 6.2-9.8 9l-1 1c-.4.6-1 1-1.6 1.5l-1 1c0 .4-.2.6-.5.8l-1.3 1.3-3 5c-6 9-11.7 18-12.8 29-1 10.2.6 20.3 1.2 30.4.5 7.7 3.2 15 3.6 22.7 3.3 3.3 7.6 4 12 4.2 1 0 2 .3 2 1.5 0 .4 0 1-.3 1-1 1-1.4-.4-2-.8-1-.7-2.2-1-3 0-.8 1 .3 1.7 1 2.4 2.2 2.2 4 4.6 6.4 6.4 1.4 1.2 1.4 2.4 1 4-.2 2-2.3 4 0 6 .3 0 .2.7 0 1-2.8 2-.4 3 1 4.2.2.3 1 .6.8 1.2-.2 1-1 .7-1.6.8-2.2.4-4.5-.3-7 .7 1.6 1.4 3.5 1.8 4.6 3.3-1.4 1-2.8.3-4 .7l-.2.2c-.3 1.8 0 4.5-1.6 5.2-2 1-2.7 2.2-3 3.7.6 2.2 1 4.4 1.5 6.7v1.5c.4 1.8.5 3.7.5 5.7l.3 2.5c1 3.3 1.8 6.6 2 10 .3 1.3.3 2.6.4 4l.7 2.5c1 3 2 6 2.8 9 1.5 1.7 3 3.6 4.4 5.5 1.7 1 3.4 1.7 5 2.5 1.2 0 2 0 3-.4 1.6-.7 3.4-2 3.5-4 .4-3.6.7-7.6 0-11.2-1.3-5-2.3-10.3-3.2-15.4-1-6.2-2-12.4-2.8-18.7-.7-2.7-.8-5.6-.7-8.5l-.2-6.2c0-2 0-4-3.2-5 3-.7 2.6-2 2.4-3.5-.6-6.2-2.3-12.3-2.5-18.6-.4-.4-.3-.8 0-1.2-.6-1.2-1.5-2.4-1-4-1-4.8-1.8-9.6-3-14.4-.3-1.4-.3-2.7 0-4 .2-3.3.7-6.5-1-9.6-1-2 .4-4 .2-6-.6-4.4-.5-8.7-.3-13 .2-5 3.5-8.8 6-13 4-7.3 8.4-14.5 14-21 3-3.4 7.5-5.2 11.4-7.6 2-1.2 1.7.8 1.4 2-1.8 5.7-3.7 11.5-5.3 17.3-2.7 10.2-4.5 20.8-1 30.8 5 15 11.6 20 29.3 21 15.7 1 29-5.2 39-17 8.2-9.6 12.2-25 5.6-37.6-.5-.8-.6-1.7-.8-2.5-.3 0-.4-.2-.3-.5-.3 0-.4 0-.4-.3-.6-.2-.7-.6-.7-1l-.2-.2c-1.5-.8-2-2.3-2.3-4l-1-1.7c-3-2.2-4.5-6-7.4-8.2l-.5-.8c-.7-1-3-1.4-2.2-3.2.7-1.3 2.5-1.4 4-1.6 10.5-1.8 19 2 27.4 8 5.3 3.6 8.3 8.4 10.4 13.8 1.8 4.3 2.2 9.2 2.6 14 .5 6 .5 11.8.6 17.8 0 1.6.4 3.2 1 4.7 1.2 0 2 .7 2.8 1.5 2.6 3 6.3 3.5 9.8 3.2 10.2-1 20.3-1 30.5 0 6.2.4 12.5.6 18.6 2.2 3.5 1 6.8 2.6 10.3 3.6 7 2 13.7 4 20 6.8 1.6.7 3.4 1.7 3 3.8-.5 2.2-2.2 3.2-4.3 3.3-6.2.4-12.3 1.2-18.5 1.4-6 .2-12 1-17.8 1-7.3.3-14.3 2.7-21.5 3.2-13.5 1-27-.5-40.5 1-6 .7-9.8 3.6-13.6 7.4v1.2c1.2 4.6 6.8 9 11.7 9 15.4 0 31 .6 46.2-.4 15.2-1 30.5-3 45.8-4 7.3-.5 14.7-1 21.8-3.2 2.6-.7 4-2.5 5.5-4.6 2.3-3 1.7-6 2.3-9.2 1.7-8.4-2-15.2-7-21.3zm-157.2-18c0 .5-.3.7-.8.8l-.7 1c0 1-.5 1.3-1.3 1.5l-.4.7v.2h-.2l-1 .5c-5.5 4-11.6 6.6-18.2 7.7-3 .4-5.7 1.4-8.4-.6-1.8-.3-2-1.7-2-3.2-.6-.4-1-.8-.5-1.5-.6-1.3-.5-2.6-.3-4v-1.2c-.4-3.2 0-6.3 1-9.2 0-.3 0-.5.3-.6-.2-.5 0-1 .2-1.5v-.4c.7-6.8 3.4-13 6.3-19 1-1.7 2-2 4.3-1.4 3.8 1.2 8 1.3 11.8.8 5.8-.8 7-.3 9.6 4.8 1.4 2.8 2.8 5.6 4 8.5 2.2 6 .6 11.3-3.5 16z"/><path fill="#1C80CE" d="M784.3 575.6c-.2-8.8-.8-18.7-.5-28.5.3-10.2 0-20.7 3.2-30.8.7-2.2 1-5 3.5-6.3 1.2-.7 2.3-1.2 2.5.8 0 1.6 2.6 2.7.8 5-.6.7.7 1 1.6 1.3 4.3 1 6.8 2.8 6.6 7.8v9c-.3 10.7-.8 21.4-1 32-.2 2-.3 4-1 5.8-1.6 4.4-.8 8.6.3 12.8 1 4.3-.4 6-5 5.3-7.8-1.2-11-5.2-11-14zM734 352.6h.3l1-.8c0-1.6.7-2.7 2-3.7 0-1.2 0-2.6.2-4 0-1.7 0-3.5.4-5.2v-.6-.6c-.5-.6-.8-1.3-.8-2 0-2.7 0-5-.4-7.6l-1-3-.3-1h-.3c-1-.6-2.3-1-3.6-1.2l-.3.3c-2.6 2-6 2.5-8.8 1.2-1.8 1-3 2.7-4 4.8v.2l-.4 1.3c-.3 5.2-1.3 10.4-2 15.5-.4 2.5-1 5-3 7 0 .5 0 1-.3 1.4-.7 1.7-1.5 3.4-3 4.6 0 .2 0 .4-.2.6-1.6 3.6-5.5 4.5-8.3 6.6-4.7 4.3-10 6.8-16.6 6.6-2.6 0-5.7.2-6.5 2.6-1.2 3.4-2 7.4 1.4 10.5.7.6 1 1.6 1.5 2.4.6 0 1 .4 1 1l.3.4c2.5 1.4 5.3 1.4 8 2.3.2 0 .3.2.5.3 7.6 1.4 13.6-2.5 19.8-6 .7-.4 1.3-.8 2-.6l.4-.2c0-2 1.2-2.5 3-2.4.3-.7 1-.8 2-.7 0-.4.4-.8.7-1.3 0-1.4 1-2 2-2.7 3.6-3.3 7-6.7 8-12 1-4.8 3-9.3 5.5-13.6h-.2zM502.3 121.2c-.6-4-3.6-4.6-6.5-5.3-2.6-.8-4.4.6-6 2.7-1.8 2.2-3.2 5.4-6 6.3-5.4 1.7-11 3-16.8 4-10.8 1.8-21.8 3-33 2.4-10-.6-18.4-4-23.4-13.4-1-2-2.2-4.3-3-6.4-.7-1.2-1.3-2.5-2.7-1.8-4.2 2-9 3-11.5 7v4.6c4.7 8.8 11.6 15.6 20 21 1.2 0 2 .5 3 1.2l3 1.2c.8 0 1.5.4 2.2.6 5.6 1.5 11.3 2.5 17 2.8 12 .6 24-.2 35.7-3 2.2-.5 4.2-1.7 6.4-2 .3-.3.7-.5 1-.6 1.7-.6 3.4-1 5.2-1.5 3-1.2 6.2-2.6 9-4.3 2-1.7 4-3.4 5.8-5.3l1-2c.3-2.6-.2-5.4-.5-8.2zM498 392.3c.3 0 .5 0 .7-.2l9.4-2.2c3-.8 4 0 3.4 3-.5 3-.3 6.2-.2 9.3 0 4.8-2 8.2-6.6 9-7 1-13.2 4.5-20 6.3-9 2.2-17.4 6-26.6 7-.7 0-1.3 0-1.5 1-15 2-30 1-44.8 3.6-15.2 2.4-30.2.6-45.3-1.8-5.2-1-10.4-1.5-15.6-3-7.7-2-14.7-5.3-20.8-10.6 1.5-2 3.5-2.8 5.8-2.7.8 0 1.6 0 2.3-.2 1.2-.3 2.8.3 3.3-1 .6-1.6-1.5-1.2-2-2 0-.4 0-.8-.2-1l3.4-1.4c6.6 1.7 13 4 20 4.5 7 .3 14 1.3 21 2.4 3.7.5 7.4.3 11.2-.3.6.2 1.2.3 1.6-.4 0 0 .2 0 .2-.2 5-.4 10-.5 15-1.2 5.7-1 11.5-1 17.3-1 14.7-.3 28.7-3 42.6-7.6l24.3-8c1-.3 2-.4 2.5-1.3zM699.6 329.5c-.6-3.5-3-5.7-4.8-8.5-1.4-2-3-3.6-5-4.7-2.2-1-4.3-2.3-6.4-3.4-1.8-1-1.7-2.2-.2-3.2s3-2.2 4.7-3c2.5-1.3 3.3-3.2 2.6-6-.6-2-1.8-3.8-2.7-5.7l-1.3-1c-1.5-1-3.2-1.5-5-1.7-.8 0-1.7.2-2.7.4l-3.6 1c-.3.5-.6 1-1.3 1.6-5 4.2-6.6 11-10.6 16.2-.2.6-.7 1.2-1.2 1.7l-.8 1.3c-.3.5-.8 1-1.3 1.2-.7 1-1.7 1.8-3 2.3-.4.7-1 1.3-2.2 1.3-3.2 0-4.8 2-5.2 5 .6 3.3 1.8 6.8 5 7.5 5.7 1.3 11.5 3 17.6 1 3-1 6-1 9.2-1.6 1.2-.2 2.2 0 3 1 2.4 3.7 6 4.4 10.2 4 4.5-.2 5.8-2 5-6.7zM286.3 383c.2-7.2-2-14-3.2-21.2-.8-5.7-9.8-4.2-9.7 1.3 0 10 1 20 6.7 28.2 2.2 3.3 8 3.2 9-1.2 5.7-24.6-4.4-50.6-10.4-74.2-1.6-6.2-11.2-3.6-9.7 2.7 2.8 11.3 6.2 22.5 8.6 34 2.5 11.2 4.4 23.4 1.8 34.8l9.2-1.2c-4.6-6.8-5.3-14.8-5.3-23l-9.8 1.5c1 6.2 3 12.2 2.8 18.6-.3 6.6 9.7 6.6 10 0zM303.6 145c1.7-3.8 2.3-7.8 1.2-12-1-2.7-3.5-3.8-6.2-3.4-7 1.2-9 7.6-11.6 13l8.6 5c1-2 1.8-4.3 2.5-6.5l-9.6-2.5v.5c-.4 1.2.4-1-.2.4l-.6 1.2h8.7l-.2-.2c.4.8.6 1.7.8 2.5-.6 1.5-.6 2-.2 1l.3-.6c.5-1 .7-1.8.7-3 0-1.5-1-3.5-2.4-4.2h-.2c-2.5-1.2-5-.7-6.7 1.7l-.6.8-.6.8c.4-.4.4-.4 0 0l8 6c1.4-2.8 3.7-5 5.3-8 3-5.6-5.6-10.7-8.7-5-1.5 3-3.8 5.2-5.3 8-2.6 5 4 10.4 7.8 6 1.2-1 2-2.3 3-3.6l-7 1.8h.2l-2.5-4.3c.7-2 .7-2.4.3-1.5l-1 2c-.4 1.6-.2 3 .6 4.7 1.7 3 7 3.3 8.7 0 .7-1.4 1.6-3 1.8-4.6.5-2.6-.5-5.2-3.4-6-2.7-.8-5.3 1-6.2 3.5-.4 1.4-.8 2.8-1.4 4-1.2 2.6-.8 5.5 1.7 7 2.3 1.2 5.7.6 7-1.8.8-2 1.6-4 2.6-6l.8-1.3c-.4.8.5-.4.5-.5 1-1-.6.3.5-.4-.6.3 1-.3 1.3-.3l-6.2-3.5c.4 1 .6 2.7 0 4-1.2 2.6-.8 5.5 1.7 7 2.2 1.3 5.8.7 7-1.8zM289.3 185.3c11.3 2 21.4-1.4 32.2-4.4 9-2.7 15.7-10 24.4-13 6-2.2 3.4-12-2.7-9.7-7.8 2.8-14 8-21.4 11.8-4 2-9 3-13.3 4.2-5.5 1.5-11 2.4-16.8 1.4-6.4-1-9 8.6-2.7 9.7z"/><path fill="#1C80CE" d="M283 175.8c-1.4 20.3-2.8 40.5-5.4 60.7-.8 6.3 9.2 6.3 10 0 2.6-20.2 4-40.4 5.3-60.7.4-6.4-9.6-6.4-10 0zM521.3 478c14.7 1 24.3-14 38.6-14 6.4.2 6.4-9.8 0-10-7.3 0-13.7 3-19.8 6.4-6 3.3-11.8 8.2-19 7.7-6.4-.3-6.3 9.7 0 10z"/><path fill="#1C80CE" d="M491 500c9.8-6.6 23.4-7 34.6-9 14.4-2.8 27.7-10 40.2-17.5 5.5-3.4.5-12-5-8.7-13 7.7-26 14.2-40.7 17-11.3 2.3-24 2.8-34 9.7-5.2 3.7-.2 12.3 5 8.6z"/><path fill="#1C80CE" d="M452 510.8c25.7-1 48.8-14.5 72.6-22.8 6-2.2 3.4-11.8-2.7-9.7-22.8 8-45.5 21.5-70 22.5-6.5.3-6.5 10.3 0 10zM74 500.8h16.6c6.5 0 6.5-10 0-10H74c-6.5 0-6.5 10 0 10z"/><path fill="#1C80CE" d="M86 505.4c20.7 14.7 15.7 41.2 15.6 63 0 6.5 10 6.5 10 0 0-13 1.3-26.2-.5-39.3-1.8-13.4-9-24.4-20-32.2-5-3.7-10 5-5 8.6zM692.6 386.6c12-3.7 21.8-10.8 29-21.2 7-10.2 10.5-22.6 13.8-34.3 1.8-6-7.8-8.7-9.6-2.5-6 20.6-13.3 41.6-36 48.5-6 1.8-3.4 11.5 2.8 9.6z"/><path fill="#1C80CE" d="M723.7 336.7c2.6 3-2.5 12.7-3.7 15.4-2.7 5.8-6 11.7-10.3 16.3-4.5 4.7 2.2 11 7 7 9.7-7.7 12.2-21.6 15.4-32.8 2-6.3-7.4-8.7-9.6-2.7-3.6 10-6 20.2-11.4 29.5-3 5 3.7 10 7.8 6 9-8.5 15.8-21.6 16-34.2.3-4.6-7-7-9.2-2.4-4.2 9.3-7.5 19-11.2 28.5-2 5.2 5 8 8.4 5 8.3-7.4 9-19 12-29 1.8-6.2-7.5-8.5-9.7-2.5-3 8.3-6.4 16.4-7.4 25.3-.5 5 5.6 6 8.5 3.5 7.6-6 6-15 7.4-23.5 1-6.2-8-9-9.6-2.7-1.5 6.8-3.3 13.3-4.2 20-.6 5 5.7 6 8.5 3.7 6.2-5.3 6-13 7.4-20.2l-9.8-1.4c-.6 5.2-2 10-3.8 14.8-2 4.6 5.3 8.7 8.3 5 5.6-7 6.5-15.3 8-23.7 1.3-6-8-8.8-9.5-2.5-1.4 5.4-2.8 10.7-4.7 16-2 5.7 6 8 9 3.8 3.4-4.5 4.6-9.7 4.8-15.2.2-5.5-8.4-6.6-9.8-1.2-1.3 5-2.7 10-4.7 14.7-2.3 6 7.3 8.5 9.8 2.6 2-4.6 3.4-9.5 4.6-14.5l-9.8-1.4c0 4-1 7.2-3.3 10.3l9 3.8c2-5 3.4-10.5 4.8-16l-9.5-2.5c-1.2 6-1.4 14-5.4 19l8.4 5c2.3-5.6 3.5-11.4 4.2-17.4.7-5.5-8.8-6.7-9.8-1.2-1 5.2-.4 12-4.7 15.8l8.6 3.5c.8-5.7 2.5-11.4 3.8-17.2l-9.6-2.7c-1 6.3.6 15-4.7 19.3 3 1 5.8 2.3 8.6 3.5 1-8 4.4-15.3 7.2-22.7l-9.7-2.5c-2.3 8-2.5 18.4-9.3 24.4l8.4 4.8c3.4-8.7 6.4-17.6 10.3-26-3-1-6.3-1.8-9.4-2.7-.4 10-6.2 20.5-13.3 27.3l8 6c5.7-10 8.5-21 12.4-31.8-3-1-6.3-1.8-9.5-2.7-2.7 9.6-4.6 22-12.8 28.5l7 7c6.2-6.3 10.6-14.6 14-22.6 2.8-7 5.8-16.6 0-23-4-5-11.2 2-7 7zM700.8 537.8c-1.3-4.4-2-9-3.4-13.3-1.7-6.2-11.4-3.6-9.6 2.6 1.2 4.5 2 9 3.3 13.5 1.8 6.2 11.5 3.5 9.8-2.7zM814.6 512c-12.7 1.3-20.6 10-24.2 21.8-1.6 5.4 6.7 9 9.2 4 3.8-8.2 9-18 19-18.3-.4-3.3-1-6.6-1.3-10-8 3-16 5.8-23.2 10.6l7.4 5.8c1.5-5.4 7.5-8.6 12.5-9.8l-2.7-9.7c-7.7 2.5-14.4 6.4-20.2 12 3 1 5.8 2.3 8.6 3.5.3-3.8 4.5-5.6 7.7-6.5l-5-8.4c-3.3 3.2-7.4 5.6-11.6 7.8l7.4 3c.2 1 1.4-.7 2.4-1.3 2-1 4.3-1.5 6.4-2 3.8-1 8-1.4 11.8-1 5.7.5 6.7-8.5 1.3-10-9.5-2.2-20.6 1.6-28.6 6.7l7 6.8c3.8-7.2 15-7.7 22.2-8 9.3-.6 18.5.2 27.8.4 11.3.4 22.5.8 33.8.8 12 0 24.6-1 35.6-6 5.8-3 .7-11.5-5-8.7-11 5.2-24.7 4.8-36.6 4.6-10.7 0-21.4-.3-32-.7-10.3-.5-20.4-1-30.5.3-9 1-19.4 3.7-24 12.3-2.4 4.2 2.4 9.6 6.8 6.8 5.6-3.6 14-7.2 20.8-5.5.4-3.3 1-6.6 1.3-9.8-10.4-1-32.4 2.5-30 17 .4 3.3 4.6 4.3 7.2 3 5-2.6 9.6-5.7 13.7-9.5 3.6-3.5 0-9.7-5-8.4-7.8 2.3-14.2 7.6-15 16.2-.2 4.5 5.7 6.4 8.6 3.5 4.7-4.4 10-7.4 16-9.3 6-2 3.6-11.3-2.7-9.7-8.5 2.2-17.2 8-19.5 16.8-1 4.2 3.6 8.3 7.3 5.8 6.6-4.4 13.6-7 21-9.5 5-1.7 4.5-10-1.4-9.8-14 .5-22 11.4-27.6 23l9 4c2.3-7.2 6.6-13.6 14.6-14.4 6.4-.5 6.4-10.5 0-10z"/><path fill="#1C80CE" d="M679.6 471c.5.4.8 1 .8 1.5l9.7-2.7c0-.7-.4-1.3-.6-2-2-6.2-10.8-3.6-9.6 2.7.6 3 1 6 1 9.3h10c0-1.6-.4-3-.5-4.7-3.3.6-6.6 1-10 1.5.8 2.8 1 5.7 1.5 8.6l9.6-2.5-1.3-7.4c-3 1-6.3 2-9.6 2.8.6 1.8 1 3.4 1.2 5.3h10c0-2-.5-4-.7-6-3.3.6-6.6 1-10 1.5 1 3 1.5 6.2 2 9.3l9.8-2.7c-.6-2-.8-4.3-1.4-6.5-1.6-6.3-11.2-3.6-9.6 2.6l2 8c1.6 6.4 11 3.7 9.6-2.5-.5-2.7-1-5.3-1-8-3.4.4-6.7 1-10 1.3.6 2 .5 4 .5 6h10c-.2-3-.7-6.2-.7-9.3-3.3.4-6.6 1-10 1.3 1 3 1.3 5.6 1.3 8.7l9.8-1.4c-.5-2-1-4.2-1-6.5-3.4.4-6.7 1-10 1.3.6 3 .8 5.8 1.4 8.7l9.6-2.7-2-6c-2-6-11.3-3.6-9.6 2.7 1.3 4.8 2 9.7 2.6 14.6.8 5.7 10.4 4.4 10-1.2l-.8-4.7-9.8 1.5c.5 3 .5 6.2.5 9.3 3.2-.4 6.5-1 9.8-1.3-.6-3.4-1.2-6.7-2-10-3 1-6.3 1.7-9.6 2.6 2 6 2.8 12 4 18 1.4 6.4 11 3.8 9.7-2.5l-2-9.4c-1.2-6.3-10.4-3.4-9.6 2.8.8 5.5 2.2 10.8 4 16 2.2 6 11 3.7 9.7-2.7-.4-2-.6-4.3-1.2-6.5-1.8-6.3-11-3.6-9.7 2.6 1.3 5.6 2 11.2 2.6 16.8.7 6.3 10.4 6.5 10 0 0-2.2-.5-4.4-.7-6.7-.4-6.3-10.2-6.4-10 0 0 5.7 1 11.2 1.3 16.8 3.2-.4 6.5-1 9.8-1.3 0-1-.4-1.8-.6-2.7l-9.6 2.7c1.3 4 2 8.3 2.6 12.6l9.7-2.5c-.3-1.6-.4-3-.4-4.7-3.3.4-6.5 1-9.8 1.3 1.3 4.5 2 9 2.6 13.5l9.7-2.7c-.5-1.8-1-3.5-1-5.3-.4-6.4-10-6.5-10 0 0 5.7.5 11.5.6 17.3 3.3-.4 6.6-1 9.8-1.3l-1.3-4.7-9 4c1.2 2.5 2 5.2 3.3 8l8.6-5.2c-1.6-3.2-2.3-6.6-3-10l-9 3.7c1 2 1.5 4 2 6.2l9.3-4c-1.6-2.5-2.5-5-2.7-8l-9.8 1.3c5 14 10.2 29 7.3 44-1 5.3 6.4 9 9.3 4 4-7.4.7-16.5-1.8-23.7-2.7-8-7.5-16.4-8.2-25-3 1-6.2 1.8-9.3 2.7 2 2.5 4 5 4.8 8l9.6-2.6c-1-3-2.3-6-3.8-9-3-5.8-11.5-.8-8.6 5 1 2.2 2 4.4 2.8 6.8 1.8 6.2 11.4 3.6 9.6-2.7-1-4-3.3-7-5.8-10.4-2.7-3.5-9.8-3-9.3 2.5.6 8 4 15.7 7 23 1.4 4.2 3 8.4 4 12.6.5 2.3 1.5 5.8.3 8l9.2 4c3.2-17.2-1.6-33.5-7.4-49.5-1.8-5-10-4.5-9.8 1.5.2 4.8 1.6 9 4 13.2 3 5 10.6 1.6 9.2-4-.8-3-2-5.6-3.2-8.4-2.6-5.5-10-1.4-9 3.8.6 4.6 1.8 8.6 3.7 12.7 2.7 5.8 11.3.7 8.6-5-1.3-2.7-2.2-5.5-3.4-8-2.4-5.2-11-1.6-9 3.8.4 1.5.6 3 1.2 4.6 1.8 5.3 10 4.7 9.8-1.2 0-5.8-.6-11.5-.7-17.3h-10c0 2.7.6 5.3 1.4 8 2 6.3 10.6 3.5 9.7-2.7-.6-4.5-1.2-9-2.6-13.3-1.6-5.4-9.8-4.5-9.8 1.3 0 2.5.2 5 .8 7.3 1.7 6.5 10.6 3.7 9.7-2.5-.5-4.3-1.3-8.5-2.6-12.7-2-6.2-11-3.6-9.6 2.7.2 1 .5 1.7.6 2.6 1.2 5.7 10 4.4 10-1.2-.3-5.6-1.3-11-1.5-16.7h-10c0 2.4.5 4.6.6 6.8h10c-.7-6.5-1.5-13-2.8-19.3-3.3 1-6.5 1.7-9.7 2.6.7 2.3 1 4.6 1.4 6.8l9.7-2.7c-1.8-5-3-10.4-4-16-3 1-6.3 2-9.6 2.8l2 9.3 9.7-2.5c-1.2-6-2-12.2-4-18-2-6-10.8-3.7-9.6 2.6l2 10c1.2 5.8 10 4.3 10-1.2 0-4-.3-8-1-12-1-5.5-10.3-4.3-9.8 1.3l.7 4.8c3.2-.4 6.5-1 9.8-1.3-.6-5-1.3-10-2.6-14.7l-9.6 2.7 2 6c2 6 11 3.6 9.6-2.7-.6-3-.7-5.8-1.3-8.7-1-5.4-10-4-9.7 1.5 0 3.2.7 6.2 1.5 9.3 1.3 5.5 9.8 4.3 9.8-1.3 0-4-.3-7.7-1.5-11.4-1.7-5-10-4.4-9.7 1.5 0 3 .5 6.2.6 9.3.2 6.4 10 6.5 10 0 0-3-.2-5.8-1-8.7-1.3-5.3-10-4.2-9.7 1.5 0 3.6.8 7 1.5 10.6l9.6-2.5-2-8c-3.2 1-6.4 1.7-9.6 2.6.6 2.3.7 4.6 1.3 6.8 1.8 6.3 11 3.6 9.8-2.7l-2-9.2c-1.3-5.4-10.3-4.3-10 1.3.3 2 .7 4 .8 6 .4 6.5 10.3 6.6 10 0 0-2.6-.6-5.2-1.5-8-2-6-11-3.5-9.5 2.8l1.3 7.3c1.4 6.5 10.7 3.7 9.6-2.5-.5-3-.7-5.8-1.3-8.7-1-5.5-10.3-4.3-9.7 1.3 0 1.7.5 3.2.6 4.8.5 6.3 10 6.5 10 0-.2-4-.8-8-1.6-12l-9.6 2.7.7 2c2 6 11 3.6 9.6-2.7-.2-1.4-.8-2.7-1.7-4-4-5-12.6 0-8.7 5.2zM629.2 387.7c.5 1 .8-.7 1-1 .2-.7-.2-1.3-.7-1.7h-.2c-.4-.5-1-.4-1.5 0-1.8.8-3 2.5-3.3 4.4-.3 2 2 2.6 3 .8.7-2 2-3.8 3-5.6L628 383c-1 2-2.3 3.8-3 5.8-.3 1 .8 2.2 2 1.8-.6-.8-1-1.5-1.7-2.2-3 4.3-6.4 8.3-9.3 12.6l2.6 1.6c2.7-5.8 7-10.3 11-15l-2-2.2-14 18 2.5 1.5c1.4-3.8 3.6-6.7 6.3-9.5l-2.3-1.8c-2.5 3.8-5 7.5-7.8 11l2.4 2 4-6c1-1.6-1.3-3.2-2.4-2l-3.3 4 2.4 1.5c.2-1 .7-1.6 1.2-2.3 1-1.6-1.2-3-2.4-2l-1.3 1.4c-1.5 1.4.6 3.5 2 2 2.7-2.5 5.3-5.2 8-8-.8-.5-1.6-1-2.4-1.7l-2 3.3c-1 1.7 1.6 3.2 2.6 1.6 2.8-4.6 6.4-8.3 10.5-11.7 1-1 0-2.7-1-2.7h-1.4l.7 2.8c.8-.5 1.7-.8 2.6-1 2-.2 2-3 0-3-1.6 0-3 .2-4.4.7l1.5 2.5c2.8-2.6 4-1 5.8 1.3 1.3 1.5 3.4-.6 2.2-2-3.4-4.3-6-5.2-10.2-1.4-1 1 0 3 1.5 2.6 1.2-.5 2.4-.7 3.6-.6v-3c-1.7 0-2.6.6-4 1.5-1.4.8-.8 2.8.7 2.8h1.3l-1-2.6c-4.3 3.6-8 7.6-11 12.3l2.6 1.6 2-3.4c1-1.5-1-3-2.3-1.8-2.8 2.7-5.5 5.3-8 8-1.5 1.4.6 3.5 2 2l1.3-1.2-2.3-1.8c-.7 1-1.2 2-1.5 3-.4 1.4 1.5 2.6 2.5 1.5l3.3-4-2.3-2-4 6c-1 1.4 1.3 3.2 2.3 2 3-4 5.6-7.8 8.3-11.8 1-1.4-1.2-3-2.4-1.8-3 3.2-5.5 6.5-7 10.7-.6 1.4 1.5 2.7 2.5 1.5l14-18c1-1.5-1-3.6-2.2-2-4.2 4.8-8.7 9.6-11.5 15.5-1 1.8 1.5 3.2 2.6 1.6 3-4.4 6.3-8.4 9.3-12.7.6-1.2-.6-2.7-1.8-2.3l1.7 2c.5-2 1.7-3.5 2.6-5 1-2-1.6-3.3-2.6-1.7-1.4 2-2.6 4-3.5 6.4l3 .8c.6-.8.8-1.7.4-2.6l-.8-1.7c-.3 1-1.3 2-.6 3.2 1 1.7 3.6.2 2.6-1.5zM724 326.2c2.3 0 4.6 0 7 .4 1.8.3 2.6-2.6.7-3-2.6-.4-5.2-.6-7.8-.4-2 .2-2 3.2 0 3z"/><path fill="#1C80CE" d="M723.4 326.5c2.2-.5 4.3-.5 6.5-.5 1.6 0 2-2.6.3-3-2-.4-3.8-.6-5.7-.3-2 .2-2 3.2 0 3 1.7-.3 3.3 0 5 .2l.3-3c-2.5 0-5 0-7.4.6-2 .4-1 3.3.8 3z"/><path fill="#1C80CE" d="M732.4 323c-3 .2-6.2.6-9.3.6-1.8 0-1.8 3 0 3 3.2 0 6.3-.4 9.4-.7 2-.4 2-3.4 0-3z"/><path fill="#1C80CE" d="M723.5 326.4l8.3-1c2 0 2-3 0-3l-9 1c-2 .4-1.2 3.3.7 3zM714.3 384.6h.2c.7-.2 1.3-1.2 1-2-.8-2-3.2-1-4.2.4s.8 2.7 2 2c2-1 3.5-2 5-3.5l-2-2c-.6.5-1.3 1.3-2 1.5.4 1 1 1.7 1.4 2.5 3.4-2.8 6.5-6 9.3-9.3 1.2-1.5-1-3.6-2-2-3 3.3-6 6.4-9.5 9.2-1.2 1 .2 2.8 1.5 2.5 1.3-.4 2.4-1.5 3.3-2.5 1.4-1.3-.7-3.4-2-2-1.4 1-3 2.2-4.5 3l2 2-1.2-1c.4-.6.8-1.2 1-1.8-2 .4-1.2 3.2.7 3zM141.7 468.2c-6-2-12.5-2.8-18.3-5.8-5.6-3-9-9.4-13.5-13.8-1.3-1-3.3.4-2.5 2 7 11.7 19 18.5 32.6 20v-3c-7.2-.5-13-4.7-18.8-8.8l-1.5 2.6c6.2 3.8 12.4 7.4 19.4 10 2 .5 2.7-2.4 1-3-6.8-2.4-12.8-6-18.8-9.6-1.7-1-3 1.5-1.5 2.6 6.2 4.5 12.5 8.6 20.4 9.2 2 .2 2-2.8 0-3-12.3-1.3-23.5-7.7-30-18.7l-2.2 1.8c4.5 4.3 7.8 9.6 12.8 13.3 5.7 4.4 13.7 4.8 20.3 7 1.7.7 2.5-2.2.7-2.8zM173.4 463.5l3.6-2.6-2.5-1.6c0 .3-.2.5-.3.8-.2.8.3 1.6 1 2 1 0 1.7-.4 2-1.2 0-.3 0-.5.2-.8.2-.6 0-1.4-.7-1.7-.6-.4-1.3-.2-1.8.2l-3 2.2c-.8.4-1 1.2-.6 2 .3.6 1.3 1 2 .5zM92 496.8c-3.7-1.5-7.7-1.6-11.7-2.2v10c2 0 4 0 5.6.4 2.6.5 5.3-.8 6-3.5.8-2.6-.7-5.6-3.4-6.2-2.7-.6-5.5-.7-8.3-.7-2.8 0-5 2.3-5 5 0 3 2.3 4.7 5 5 3 .5 6.2.7 9 2 2.7 1 5.6-1.2 6.3-3.6.8-3-1-5.2-3.5-6.2z"/><path fill="#1C80CE" d="M107.2 447.5l1.3 2c.6.8 1.2 1.5 2.3 1.6.8.2 1.5-.6 1.5-1.4 0-.8-.7-1.4-1.5-1.5l.6.3-.2-.2s-.3-.3 0 0l-.4-.5-1-1.5c-1-1.7-3.5-.2-2.6 1.5z"/><path fill="#1C80CE" d="M106.7 444.2c.6 2.6 1.6 5 3.3 7.2 1 1.2 3.3.6 2.7-1.2-.7-2-1.5-3.6-2.6-5.3-.8-1.5-3.2-.6-2.7 1 .6 1.8 1 3.7 1.5 5.5l2.8-1-1.6-4c-.6-1.7-3.5-1-3 1l2 4.4c.7 1.5 3 .3 2.7-1.3l-1.5-5.5-2.7 1.2c1 1.5 1.7 3 2.3 4.6l2.8-1c-1.5-2-2.5-4.2-3-6.6-.5-2-3.4-1-3 .8zM66.8 456c1.3 3.3 1.4 6.4.5 9.7h3c-.6-3-1-6-2-9-.6-1.6-3-1.3-3 .4 0 2.3-.5 4.5-.5 6.6 1 0 2-.2 3-.4-.6-1.5-1-3-1-4.6 0-1.7-2.4-2-3-.4-.4 1.2-.5 2.2-.5 3.4l2.2-1.3c.6.4.2-.3 0-.8s-.5-1-1-1.2c-.6-.3-1.7-.2-2 .6-.5.8-.4 1.7-.7 2.7l2.5-.6c-.8-1-.7-1.8-1.8-2.7-1-.7-2.2.3-2.2 1.3 0 .5 0 1-.2 1.3l3-.4h-.2c0 .3 0 .7.2 1 0-.3 0-.7.2-1 .4-2-2.5-2.8-3-1 0 1-.3 1.7 0 2.5.7 1.2 2.5 1 2.8-.3l.3-2-2.3 1.2c.4.2.8 1.7 1.2 2.2.7 1 2.2.3 2.5-.7.2-.6 0-1.6.4-2-.6 0-1.3.2-2 .4-.6-.4 0 .2 0 .7.2.5.5 1 1 1.2 1 .4 2.3-.2 2.3-1.4 0-1 0-1.7.4-2.6-1 0-2-.2-3-.4 0 2 .6 3.7 1 5.4.6 1.6 3 1.3 3-.4 0-2 .5-4.3.6-6.5-1 .3-2 .4-3 .5 1 3 1.5 6 2 9 .3 1.5 2.6 1.4 3 0 1-3.8 1-7.6-.6-11.3-.7-1.7-3.6-1-3 .8zM709 285.4c5.6 3 9.3 8.5 14.5 12 5.3 3.7 10.3-5 5-8.6-5.2-3.6-8.7-9-14.5-12-5.7-3-10.7 5.7-5 8.6zM684.8 64h-7.3c-6.6-.2-6.2 9 0 10 10.3 1.2 20.5-.4 28.5 7.4l7-7c-6.7-5.5-13.3-10.8-22-12.3-8.3-1.3-18-2.4-26.3-1-5 1-4.6 8.6 0 9.7 4 1 8.3.5 12.5 1.3v-9.7c-3.8 1-7.3 0-11 0-2 0-7.2.8-8-1-3.2-5.6-12-.5-8.7 5 2.5 4.7 7.3 5.7 12.2 6 6 .3 12.4 1 18-.3 4.8-1.2 5-8.7 0-9.7-4-.8-8.3-.2-12.4-1.2v9.7c6.8-1.2 14 .7 20.8 1 7 .4 13 5.6 18 9.7 5 4 11.8-2.4 7-7-4.6-4.6-10-7.6-16.5-8.8-6.2-1.2-12.7-1-19-1.7v10h7.3c6.4-.5 6.4-10.5 0-10zM367.3 358.5l.3 3.3c3.3-.4 6.6-1 9.8-1.3-.5-1.7-1.2-3-2-4.6-3.3-5-10.3-1.7-9.3 3.8.7 3.2 2 5.7 4 8.2 3 3.4 8.6.6 8.6-3.5v-3l-9.3 2.5c1 2.2 1.5 4.4 1.8 6.8l9.8-2.7c-.5-1-.8-2-1-3.2-1-5.6-10.2-4.3-10 1.3.3 3 1 5.5 1.6 8l9.7-2.5c-.5-2-1-3.8-1.2-5.7l-9.7 2.7 1.8 6.6c1.7 6.3 11.2 3.7 9.6-2.5l-1-3.7c-1.8-6.2-11-3.6-9.6 2.7l1 4.6 9-3.7-1-2.5c-2-6-11.2-3.7-9.7 2.7.5 1.4.8 3 1 4.3 1.4 5.4 10.4 4.3 10-1.3-1-10.8-4.3-20.8-8.7-30.6-2.5-5.5-10.2-1.4-9.2 3.8 1 4.5 2.7 8.6 5 12.5 3 5.3 10 1.5 9-3.8-1.2-8-6.7-16.6-2.4-24.5l-9.2-4c-5.5 15.4 4.8 28.2 7 42.8l9.2-4c-1-2.2-1.4-4.8-1.7-7.3-.7-6.4-10.7-6.4-10 0 .4 4.4 1 8.4 3 12.5 2.6 5.5 10 1.3 9-4-1.8-12.4-11.6-24.3-7-37.2 2-5.4-6.4-8.8-9-4-6.2 11.5-.4 20.8 1.4 32.3l9.2-3.7c-2-3.3-3-6.5-3.8-10.2l-9.2 4c3.7 8 6.6 16.6 7.3 25.5l9.8-1.4-1-4.2-9.7 2.7c.7 1.7 1.4 3.2 2.3 4.8 2.8 5.3 10.2 1.5 9-3.8-.2-1.6-.5-3-1-4.7-3 1-6.3 1.8-9.5 2.7l1 3.6 9.6-2.5c-.6-2.2-1.2-4.4-1.6-6.7-1.3-6.3-11-3.6-9.7 2.7l1.4 5.6c2 6.3 11.5 3.7 9.7-2.5-.4-1.8-1-3.5-1-5.4-3.3.6-6.6 1-10 1.5l1 3.3c2.4 6 10.7 3.7 9.8-2.7-.5-3.2-1.4-6-3-9-2-4.7-9.2-2.3-9.2 2.5v3l8.5-3.6c-.8-1.2-1-2.4-1.2-4l-9.2 4c.5.6 1 1.4 1.2 2 1.7 5.2 10.3 4.7 9.8-1.2l-.3-3.3c-.5-6.4-10.5-6.5-10 0z"/><path fill="#1C80CE" d="M383.3 374.3c-2.5-5-5.4-10.2-5.7-15.8-3.3.4-6.5 1-9.8 1.3 2 5.2 3 10.6 4.3 16l9.8-2.7c-1.8-4-3.3-8.3-5-12.5-2-5-10.2-4.8-10 1.3.3 3 1 5.8 2 8.7 2 5 9.6 4.5 9.8-1.4 0-3-.7-6-1.2-9.2-1-6.4-10.6-3.6-9.6 2.7.7 4.6 2 9 3 13.6l9.6-2.5c-.4-1.4-1-2.7-1.3-4-2-6.3-10.5-3.6-9.6 2.6.6 4 2.3 7.4 3.4 11 2 6.4 10.7 3.7 9.6-2.5C380 366 366 349 374 334.7c3-5.7-5.7-10.8-8.7-5-10 18.5 4.5 35.2 7.5 53.4l9.6-2.5c-1-3.7-2.7-7.2-3.3-11-3 1-6.3 1.7-9.6 2.6l1.4 4c2 6.3 11 3.8 9.6-2.5-1-4.6-2.2-9-3-13.7l-9.6 2.7c.3 2.2 1 4.4.8 6.6 3.3-.3 6.6-.8 9.8-1.2-.7-2-1.3-4-1.5-6-3.3.4-6.6 1-10 1.3 1.8 4.3 3.4 8.6 5 12.8 2.5 5.8 11.4 3.8 9.8-2.7-1.4-5.2-2.4-10.7-4.4-16-1.8-5-10-4.5-9.8 1.5.4 7.5 3.7 14.2 7 20.8 3 5.8 11.5.7 8.7-5z"/><path fill="#1C80CE" d="M362.3 329c-1 8.2-1 15.6 2.7 23 3 5.7 11.5.7 8.6-5-3-5.7-2-11.8-1.3-18 .3-2.6-2.6-5-5-5-3 0-4.7 2.4-5 5zM676.6 507.5c1 9.3 2.6 18.4 5 27.4 2.3 9 2.6 18 5.8 26.8 2.3 6 12 3.4 9.7-2.7-3-8-3.6-16.5-5.4-25-1.8-8.8-4-17.4-5-26.5-.8-6.4-10.8-6.4-10 0z"/><path fill="#1C80CE" d="M678.8 519.8c2.4 7 1.3 14.7 2.3 22 1.3 8 4.4 15.7 6.4 23.7 1.7 6.2 11.3 3.5 9.7-2.7-1.8-7.3-4.7-14.4-6-22-1.4-7.8 0-16-2.6-23.7-2-6-11.7-3.3-9.6 2.8z"/><path fill="#1C80CE" d="M683 528.5c1 6 .3 12.4.5 18.5.2 6 1.7 12 3.3 17.8 2.8-1.6 5.6-3.2 8.3-5v-.2c-2.8-5.8-11.5-.7-8.7 5 .4 1 1 1.7 1.8 2.4 3.7 3.2 9.8.2 8.4-5-1.6-6-3-12-3-18.6 0-6 .3-11.7-.6-17.6-1-6.4-10.7-3.6-9.7 2.7z"/><path fill="#1C80CE" d="M682.3 530.5c-1.2 13 .6 25.6 4.8 38 2.2 6 12 3.4 9.8-2.7-4-11.6-5.7-23-4.5-35.3.6-6.5-9.4-6.4-10 0zM108.4 447.3c-10.8 33.7 77.5 35.2 83.2.7 1-6.3-8.6-9-9.7-2.7-2.4 14.4-24.4 17.2-36 17.6-7 0-15-.5-21.6-3.4-2.2-1-4.8-2.5-5.8-4-1.4-2-1.3-3-.5-5.6 2-6.2-7.6-8.8-9.6-2.7z"/><path fill="#1C80CE" d="M132.8 458.8c-3.8-1.7-5.8-6.7-7.5-10.2-2-4-4-9.3-3.5-14 .6-6.4-9.4-6.3-10 0-.6 6 2 12.4 4.3 18 2.4 5.3 6 12.3 11.7 14.8 6 2.7 11-6 5-8.6z"/><path fill="#1C80CE" d="M117.3 448c.2-5.7-1.8-11.7-.7-17.5 1.2-6.2 4.8-11.3 7.5-16.8 3-5.8-5.8-11-8.5-5-3 5.8-6.5 11.2-8.2 17.5-2 7.3.3 14.5 0 22-.3 6.4 9.7 6.4 10 0zM147.2 407.4c11 5 34.4 7.8 36 22.7 2.6-1.3 5-2.7 7.6-4.2-5.2-4-9.2-9.4-13.5-14.2l-7 7c5.7 6.5 10.4 18.8 4.4 26.5-4 5 3.2 12.3 7 7.2 9.7-12.5 5.5-29.6-4.4-40.6-4.3-4.8-11.3 2.3-7 7 5 5.6 9.4 11.4 15.4 16 3 2 8-1 7.6-4.5-2.4-21.3-25-23.7-41-31.2-5.8-2.7-11 6-5 8.6z"/><path fill="#1C80CE" d="M154 400.8c-19.7-6.5-40.7 9.5-46.6 28-2 6.2 7.8 8.8 9.7 2.7 4.4-13.6 20-25.8 34.4-21 6.2 2 8.8-7.7 2.7-9.7z"/><path fill="#1C80CE" d="M170.2 421.2l3.5 3c4.8 4.2 11.8-2.7 7-7-9.8-9.3-20.4-17.6-34.4-18.6-6.5-.4-6.4 9.6 0 10 11 .8 19.7 8.3 27.4 15.6l7-7-3.4-3c-4.8-4.4-12 2.7-7 7zM177.2 442.6c-3.6 3-6.3 6.6-10 9.5-4.3 3.5-9.4 5.7-14 8.8-5.3 3.6-.3 12.2 5 8.6 4.6-3 9.5-5.2 13.8-8.4 4.6-3.4 8-8 12.3-11.3 5-4-2-11-7-7z"/><path fill="#1C80CE" d="M118 459.5c7 1.4 13.3 5 20 7 7.6 2 15.6 1.6 23.3 1 6.4-.2 6.4-10.2 0-10-7 .5-13.7 1-20.5-.7-7-1.7-13.2-5.5-20.2-7-6.3-1.3-9 8.4-2.7 9.7z"/></svg>