<svg xmlns="http://www.w3.org/2000/svg" width="2500" height="1660" viewBox="0 0 256 170" preserveAspectRatio="xMinYMin meet"><path fill="#002B64" d="M250.4 0c-4 0-2.7 1.3-11.2 3.4-8.7 2-19.2 1.4-28.5 5.3C183 20.4 177.5 60 152.3 74.3c-19 10.6-37.8 11.5-55 16.8C86.3 95 74 102 63.7 111c-8 6.8-8 12.8-16.3 21.3-9 9-35 0-47 14 3.8 4 5.5 5 13 4-1.5 3-10.7 5.6-9 10 2 4.5 24.3 7.6 44.5-4.6 9-5.7 17-14 31.3-16 19-2.4 41 1.8 63 5-3.3 9.7-10 16-15 24-1.7 1.6 3 1.8 8.7.8 10-2.3 17.4-4.3 25-8.7 9.2-5.4 10.7-19.3 22-22.3 6.4 9.7 23.7 12 34.4 4.2-9.4-2.7-12-22.7-8.8-31.6 3-8.3 6-21.7 9-32.8 3.4-12 4.6-27 8.4-33 6-9 12.6-12.2 18.3-17.4 5.7-5 11-10 10.7-21.8 0-3.8-2-6-5.6-5.8z"/><path fill="#FFF" d="M8.6 159c14.4 2 23.2 0 34.8-5 9.8-4.3 19.3-13 31-16.8 17-5.5 35.8 0 54 1 4.5.3 9 .3 13.3 0 6.8-4.3 6.6-20 13.3-21.4-.2 22-9.2 35-18.6 47.8 19.8-3.5 31.7-15 39.7-30.3 2.7-4.6 4.8-9.6 6.6-14.8 3 2 1.2 8.8 2.7 12.4 13.7-8 21.4-25 26.7-43 6-20.3 8.4-41 12.2-47 3.8-5.8 9.7-9.4 15-13 6-4.4 11.6-9 12.5-17-6.4-.6-8-2-9-5.3-3 1.7-6 2-9.4 2.2-2.8 0-6 0-9.8.2-32.2 3.3-36.3 38.8-57 59a48.3 48.3 0 0 1-4.7 4c-7.3 5.4-16 9.2-24.3 12.3-13 5-25.7 5.3-38 9.7-9 3.2-18.3 7.8-25.8 13a76.4 76.4 0 0 0-5.2 3.8c-4.4 3.6-7.3 7.5-10 11.6-3 4.2-5.7 8.6-10 12.7-6.8 6.7-32.3 2-41.3 8.2-1 .6-2 1.4-2.4 2.4 5 2 8.2 1 13.8 1.4.7 5.3-11.6 8.4-9.8 11zm194.8-38.6c.4 6.2 4 18.4 7 21.3-6 1.5-16.7-1-19.4-5.3 1.4-6.3 8.7-12 12.4-16z"/><path fill="#002B64" d="M212.5 23c4.5 4 14 .7 12.4-7-7.4-.7-11.5 1.7-12.7 7zm31.7-9.3c-1.2 2.6-3.5 6-3.5 12.3 0 1-1 2-1 .2.2-6.3 2-9 3.6-12.7 1-1.4 1.4-.8 1 .2z"/><path fill="#002B64" d="M243 12.8c-1.4 2.4-5 6.8-5.4 13.3-.2 1.4-1 2-1 .4.7-6.3 3.5-10.3 5.5-13.7 1-1.4 1.7-.7 1 .3zm-1-1.3c-1.8 2.3-7 7.6-8.2 14-.2 1-1 1.7-.8 0 1-6.2 5.7-11 8-14.3 1-1.3 1.5-.7 1 .3zm-1-1.4c-2 2-8.4 9-10.4 15-.3 1-1.3 1.8-.8 0 2-6 7.5-12.3 10.3-15.2 1.6-1 1.8-.4 1 .5z"/></svg>