<svg xmlns="http://www.w3.org/2000/svg" width="2500" height="605" viewBox="0 0 512 124" preserveAspectRatio="xMinYMin meet"><g fill-rule="evenodd"><path fill="#DF4F4F" d="M303.8.2L411 114s3.7 2.4 6.5-.6.6-6 .6-6L304 .2zm34 10.8l81.6 88s3.7 2.6 6.5-.4c2.7-3 .5-6 .5-6L337.7 11zm-24 23l81.8 88s3.6 2.6 6.4-.4c2.8-3 .7-6 .7-6L314 34zM366.5 20l57 61.5s2.7 1.8 4.6-.3c2-2 .5-4.2.5-4.2l-62-57zm-44.7 40.4l57 61.5s2.7 2 4.6-.2c2-2 .5-4.2.5-4.2l-62-57zm74-27l26 28s1.2.7 2.2-.3c.8-1 0-2 0-2L396 33.6zM336 88.8l26 28s1 .8 2-.2.3-2 .3-2l-28.3-26z"/><path fill="#26262C" d="M446.2 46.2v75.5h17V97.3H476l16.5 24.4H512l-18.3-26.2S510 89 510 71.7c0-24.6-22.4-25.5-22.4-25.5h-41.4zm17 14.6v22h22s8.4 0 8.4-11c0-11.4-10.2-11-10.2-11h-20.2zm-206-14.6v75.5h57.3V107h-40.2V91.3H309V76.6h-34.7V60.8h40.2V46.2h-57.3zm-83 0v14.6H197v61h17v-61h22.5V46.2h-62.2zm-78 0v75.5h57.4V107h-40.2V91.3H148V76.6h-34.6V60.8h40.2V46.2H96.3zM0 46.2v75.5h17V74.2L38 104.6l20.7-30.4v47.5h17V46.2h-17l-20.7 31-20.7-31H0z"/></g></svg>