<!DOCTYPE svg PUBLIC "-//W3C//DTD SVG 1.1//EN" "http://www.w3.org/Graphics/SVG/1.1/DTD/svg11.dtd" [
	<!ENTITY ns_flows "http://ns.adobe.com/Flows/1.0/">
]><svg xmlns="http://www.w3.org/2000/svg" width="261" height="70" overflow="visible"><radialGradient id="a" cx="138.2" cy="48.1" r="123.3" gradientUnits="userSpaceOnUse"><stop offset="0" stop-color="#FAAF40"/><stop offset="0" stop-color="#F9A538"/><stop offset=".1" stop-color="#F89D31"/><stop offset=".2" stop-color="#F89A2F"/><stop offset=".5" stop-color="#F7922D"/><stop offset="1" stop-color="#F37B28"/></radialGradient><path fill="url(#a)" d="M62.4 65.2V42.4c0-4.8-2-7.2-6-7.2-3.8 0-5.8 2.4-5.8 7.2v22.8H39V42.4c0-4.8-2-7.2-6-7.2-3.8 0-5.8 2.4-5.8 7.2v22.8H15.6v-24c0-5 1.7-8.8 5.2-11.4 3-2.3 7.2-3.4 12.3-3.4 5.5 0 9.3 1.3 11.8 4 2-2.7 6-4 11.7-4 5.2 0 9.3 1 12.3 3.4C72.2 32.4 74 36 74 41v24.3H62.3z"/><radialGradient id="b" cx="138.2" cy="48.1" r="123.3" gradientUnits="userSpaceOnUse"><stop offset="0" stop-color="#FAAF40"/><stop offset="0" stop-color="#F9A538"/><stop offset=".1" stop-color="#F89D31"/><stop offset=".2" stop-color="#F89A2F"/><stop offset=".5" stop-color="#F7922D"/><stop offset="1" stop-color="#F37B28"/></radialGradient><path fill="url(#b)" d="M96 66.2c-6 0-10.7-2-14.6-5.6-3.8-3.7-5.8-8.5-5.8-14.4 0-6 2-10.7 5.8-14.4C85.2 28 90 26.2 96 26.2s10.8 2 14.6 5.6c4 3.7 5.8 8.5 5.8 14.4 0 6-2 10.7-5.8 14.4-4 3.7-8.8 5.6-14.6 5.6zm0-30.7c-2.8 0-5 1-6.5 3.2-1.5 2-2.3 4.6-2.3 7.6s.7 5.4 2 7.4C91 56 93.2 57 96 57s5-1 6.5-3.3c1.5-2 2.2-4.5 2.2-7.4 0-3-.7-5.4-2-7.4-1.6-2.5-4-3.6-6.7-3.6z"/><radialGradient id="c" cx="138.2" cy="48.1" r="123.3" gradientUnits="userSpaceOnUse"><stop offset="0" stop-color="#FAAF40"/><stop offset="0" stop-color="#F9A538"/><stop offset=".1" stop-color="#F89D31"/><stop offset=".2" stop-color="#F89A2F"/><stop offset=".5" stop-color="#F7922D"/><stop offset="1" stop-color="#F37B28"/></radialGradient><path fill="url(#c)" d="M138 66.2c-6 0-10.7-2-14.6-5.6-3.8-3.7-5.8-8.5-5.8-14.4 0-6 2-10.7 5.8-14.4 3.8-3.7 8.7-5.6 14.6-5.6 6 0 10.8 2 14.6 5.6 4 3.7 5.8 8.5 5.8 14.4 0 6-2 10.7-5.8 14.4-4 3.7-8.8 5.6-14.6 5.6zm0-30.7c-2.8 0-5 1-6.5 3.2-1.5 2-2.3 4.6-2.3 7.6s.7 5.4 2 7.4c1.7 2.3 4 3.4 6.7 3.4s5-1 6.4-3.2c1.5-2 2.2-4.5 2.2-7.4 0-3-.7-5.4-2-7.4-1.6-2.4-4-3.5-6.7-3.5z"/><radialGradient id="d" cx="138.2" cy="48.1" r="123.3" gradientUnits="userSpaceOnUse"><stop offset="0" stop-color="#FAAF40"/><stop offset="0" stop-color="#F9A538"/><stop offset=".1" stop-color="#F89D31"/><stop offset=".2" stop-color="#F89A2F"/><stop offset=".5" stop-color="#F7922D"/><stop offset="1" stop-color="#F37B28"/></radialGradient><path fill="url(#d)" d="M189.8 65v-3.7c-1 1.4-2.8 2.5-5.3 3.3-2.2.8-4.3 1-6.3 1-5.5 0-10-1.8-13.3-5.6-3.6-3.8-5-8.5-5-14 0-5.6 1.4-10.3 4.7-14 3.3-3.7 7.7-5.6 13-5.6 6.3 0 10.2 1.7 12 5V0H201v65h-11zm0-21.5c0-2-1-4-3-6s-4-3-6-3c-3 0-5.4 1.3-7.2 3.7-1.5 2-2.3 4.8-2.3 8 0 3 .8 5.5 2.3 7.7 1.7 2.3 4 3.5 7 3.5 2 0 3.8-.8 6-2.5 2-1.6 3.2-3.3 3.2-5v-6.5z"/><radialGradient id="e" cx="138.2" cy="48.1" r="123.3" gradientUnits="userSpaceOnUse"><stop offset="0" stop-color="#FAAF40"/><stop offset="0" stop-color="#F9A538"/><stop offset=".1" stop-color="#F89D31"/><stop offset=".2" stop-color="#F89A2F"/><stop offset=".5" stop-color="#F7922D"/><stop offset="1" stop-color="#F37B28"/></radialGradient><path fill="url(#e)" d="M205.2 65V0h11.6v65h-11.6z"/><radialGradient id="f" cx="138.2" cy="48.1" r="123.3" gradientUnits="userSpaceOnUse"><stop offset="0" stop-color="#FAAF40"/><stop offset="0" stop-color="#F9A538"/><stop offset=".1" stop-color="#F89D31"/><stop offset=".2" stop-color="#F89A2F"/><stop offset=".5" stop-color="#F7922D"/><stop offset="1" stop-color="#F37B28"/></radialGradient><path fill="url(#f)" d="M230.7 49.7c.5 2.4 1.7 4.4 3.5 6 2 1.8 4 2.7 6.2 2.7 1.6 0 3.3-.4 5.2-1.2 2.3-1 3.4-2 3.4-3.4h12.2c-1.7 4-4.7 7.2-8.8 9.4-4 2-8 3.2-12.8 3.2-6 0-11-2-14.8-5.5-4-4-6-8.7-6-14.7 0-6.2 2-11 6-14.7 4-3.6 9-5.4 15.2-5.4 6.8 0 12 2.2 16 6.7 3.4 4 5.2 9.6 5.2 16.6h-30.5zm19-7.2c-.5-2.5-1.5-4.5-3-6-2-1.8-4-2.7-6.3-2.7-2.4 0-4.4.8-6 2.5-1.7 1.7-2.8 3.7-3.4 6.2h18.7z"/><path fill="#58595B" d="M16.7 32.2l-1.2 6c11 3.7 21.4 0 27-9.5-8.2-5.6-15.7 0-25.8 3.5"/><linearGradient id="g" x1="15.6" x2="41.8" y1="31.9" y2="31.9" gradientUnits="userSpaceOnUse"><stop offset="0" stop-color="#929497"/><stop offset=".1" stop-color="#757578"/><stop offset=".3" stop-color="#575658"/><stop offset=".4" stop-color="#403E3F"/><stop offset=".6" stop-color="#302D2E"/><stop offset=".8" stop-color="#262223"/><stop offset="1" stop-color="#231F20"/></linearGradient><path fill="url(#g)" d="M16.7 30.7l-1 6.8C26 41 36.4 38 42 28.5c-7-8-15-1.3-25.4 2.2"/><linearGradient id="h" x1="20.6" x2="31.5" y1="23.1" y2="38.7" gradientUnits="userSpaceOnUse"><stop offset="0" stop-color="#231F20"/><stop offset="1" stop-color="#231F20" stop-opacity="0"/></linearGradient><path fill="url(#h)" d="M29.2 33.4c-4.8-1-10 1.5-13.6 4-2.3-16.7 8-16.3 21.7-12-1 4-2.4 9.5-5 12.8 0-2.2-1-3.7-3-4.8"/><linearGradient id="i" x1="1.2" x2="49.2" y1="23.6" y2="23.6" gradientUnits="userSpaceOnUse"><stop offset="0" stop-color="#929497"/><stop offset=".1" stop-color="#757578"/><stop offset=".3" stop-color="#575658"/><stop offset=".4" stop-color="#403E3F"/><stop offset=".6" stop-color="#302D2E"/><stop offset=".8" stop-color="#262223"/><stop offset="1" stop-color="#231F20"/></linearGradient><path fill="url(#i)" d="M1.2 30.7C18.8 20 28.7 18 49.2 16c-23.8 18.8-24.4 14.7-48 14.7"/><path fill="#383738" stroke="#4A4A4C" stroke-width=".5" d="M49.2 16l-19 14"/><path fill="#231F20" d="M26.7 23.4c.2 2.2-.3-2 0 0" opacity=".2"/><path fill="#FFF" stroke="#A8ABAD" stroke-width=".5" d="M1.2 30.7l29-1"/><path fill="none" stroke="#F16922" stroke-width=".5" d="M25 23.6c-5 1.4-21.5 5-21.7 7-.5 4 0 10.2 0 10.2"/><path fill="#F16922" d="M4.7 55.7C3 51.2.7 46.2 3.3 40 5 45.8 4.7 50.2 4.7 55.7"/><ellipse cx="24.2" cy="23.3" fill="#6D6E70" transform="rotate(-19.61 24.19 23.28)" rx=".8" ry=".4"/></svg>