<svg xmlns="http://www.w3.org/2000/svg" width="2500" height="527" viewBox="0 0 512 108" preserveAspectRatio="xMinYMin meet"><path fill="#090" d="M96.2 107.2c-3 0-5.8-1.2-8-3.3L22.6 38v58c0 6.2-5 11.2-11 11.2-6.2 0-11.2-5-11.2-11.2V11.3C.3 6.8 3 2.7 7.3 1a11 11 0 0 1 12 2.4L85 69.2v-58c0-6 5-11 11.2-11 6 0 11 5 11 11V96a11 11 0 0 1-11 11.2M147.6.2l-3 5.8L121 49l-3 5.3 3 5.4 23.6 41.6 3.2 5.7h61.8l3-6.3 17.7-35.5 8-16.2h-18l-45.2.2c-5.7 0-11 5.2-11 11 0 6 5.3 11.3 11 11.2h27.4l-6.7 13.3h-35l-17.4-30.5 17.5-31.7H198l8.8 17.8H229L215 6.5l-3-6.2h-64.4M260.2 0c-5.8.2-11 5.6-11 11.4v29h22.3v-29c0-6-5.4-11.3-11.3-11.3M296 107.5a11 11 0 0 1-11.3-11.2V11.5c0-6 5-11 11.2-11 6 0 11 5 11 11v58l65.7-66A11 11 0 0 1 385 1.3a11 11 0 0 1 6.7 10.3v84.8c0 6-5 11-11 11-6.2 0-11.2-5-11.2-11v-58L303.7 104a11 11 0 0 1-7.8 3.4m178-53.6l34.6-34.5C513 15 513 8 508.6 3.6c-4.3-4.3-11.3-4.3-15.7 0L458.2 38 423.7 3.7c-4.4-4.3-11.4-4.3-15.7 0-4.4 4.4-4.4 11.4 0 15.7l34.6 34.5L408 88c-4.3 4.5-4.3 11.5 0 16a11 11 0 0 0 8 3c2.8 0 5.6-1 7.8-3l34.5-34.5 34.5 34.4a11 11 0 0 0 8 3c2.7 0 5.6-1 7.7-3 4.4-4.5 4.4-11.5 0-16L474 54M260.2 107c-5.8 0-11-5.4-11-11.2V49.3h22.3v46.5c0 6-5.4 11.3-11.3 11.2"/></svg>