<svg xmlns="http://www.w3.org/2000/svg" width="2270" height="2500" viewBox="0 0 256 282" preserveAspectRatio="xMinYMin meet"><g fill="#8CC84B"><path d="M116.5 3.6c7-4 16-4 23 0l105 59.3c6.6 3.6 11 11 11 18.5v119c0 8-5 15.4-11.8 19-35 19.6-69.8 39.3-104.7 59-7 4-16.3 3.8-23.2-.6-10.4-6.2-21-12.2-31.4-18.3-2-1.3-4.5-2.3-6-4.4 1.3-1.8 3.7-2 5.6-2.8 4.4-1.3 8.4-3.6 12.4-5.7 1-.7 2.3-.5 3.2.2 9 5 17.8 10.4 26.8 15.4 2 1 4-.3 5.5-1.2 34-19.4 68.4-38.7 102.6-58 1.3-.6 2-2 2-3.4V82c0-1.5-1-3-2.3-3.6L130 19.7a3.6 3.6 0 0 0-4 0L21.7 78.5c-1.4.6-2.4 2-2.2 3.6v118a3.3 3.3 0 0 0 2 3.2L49 219c5.3 2.7 11.7 4.4 17.4 2.2 5-1.8 8.7-7 8.6-12.4v-117c0-1.8 1.5-3.2 3.2-3h13.4c2 0 3 1.8 3 3.5V210c0 10.6-4.4 22-14 27-12 6.3-26.7 5-38.5-1-10.2-5-20-11-30-16.5-7-3.6-11.7-11-11.7-19v-119c0-7.7 4.5-15.2 11.3-19C46.7 43 81.5 23.4 116.4 3.6z"/><path d="M147 86c15-1 31.4-.6 45 7 10.7 5.6 16.6 17.7 16.8 29.5-.3 1.6-2 2.4-3.5 2.3H192c-1.8 0-3-1.7-3-3.3-1.4-5.6-4.5-11.2-9.8-14-8-4-17.6-3.8-26.4-3.7-6.5.3-13.5 1-19 4.7-4.2 3-5.5 8.7-4 13.4 1.5 3.3 5.3 4.3 8.5 5.3 18.4 4.8 37.8 4.4 55.8 10.7 7.5 2.5 14.8 7.5 17.3 15.3 3.4 10.5 2 23-5.5 31.4-6 7-14.8 10.6-23.6 12.7-11.6 2.6-23.7 2.6-35.5 1.5-11.2-1.4-22.7-4.3-31.3-12-7.4-6.3-11-16.2-10.6-25.8 0-1.6 1.7-2.7 3.3-2.6h13.4c1.8 0 3 1.4 3.2 3 .8 5.4 2.8 11 7.5 14.3 9 5.7 20.4 5.3 30.8 5.4 8.6-.3 18.2-.4 25.2-6 3.7-3.3 4.7-8.7 3.8-13.4-1-4-5.2-5.7-8.8-7-18-5.7-37.7-3.6-55.6-10-7.3-2.6-14.3-7.5-17-15-4-10.5-2.2-23.6 6-31.7 8-8 19.5-11.2 30.5-12.3z"/></g></svg>