<svg xmlns="http://www.w3.org/2000/svg" width="2500" height="2438" viewBox="0 130.7 595.3 580.4"><radialGradient id="a" cx="-183.7" cy="329" r=".8" gradientTransform="matrix(545.6736 0 0 528.3113 100439.305 -173525.125)" gradientUnits="userSpaceOnUse"><stop offset="0" stop-color="#34364e"/><stop offset="1" stop-color="#0c0824"/></radialGradient><path fill="url(#a)" d="M24.8 155.5h545.7v530.8H24.8V155.5z"/><path fill="#31c5f0" d="M24.8 155.5h545.7v530.8H24.8V155.5zM0 711h595.3V130.8H0V711zm401.3-342c-19.6 0-26.3 9.8-26.3 18 0 9 4.5 15 30.8 28.7 39 19 51 37 51 63.5 0 39.7-30.2 61-71 61-21.7 0-40.3-4.4-51-10.6-1.7-.8-2-2-2-4v-36.4c0-2.5 1.3-3.3 3-2 15.7 10 33.5 14.6 50 14.6 19.5 0 27.7-8.2 27.7-19.3 0-9-5.7-17-30.8-29.8-35.2-17-49.8-34-49.8-62.5 0-32 25-58.5 68.3-58.5 21.3 0 36.2 3.2 44.4 7 2 1 2.5 3 2.5 5v33.8c0 2-1.2 3.3-3.7 2.5-11-7-27-11-43.2-11zM188 398.3c5.7.5 10.2.5 20 .5 29 0 56.4-10.3 56.4-49.7 0-31.5-19.6-47.4-52.6-47.4-10 0-19.3.4-23.8.6v95.8zm-44-131.7c0-1.8 3.3-3 5.3-3 16-.8 39.5-1.2 64-1.2 68.7 0 95.5 37.7 95.5 85.8 0 63-45.6 90-101.7 90-9.3 0-12.5-.5-19.2-.5V533c0 2-.8 3-3 3h-38c-2 0-3-.7-3-3V266.8z"/></svg>