<svg xmlns="http://www.w3.org/2000/svg" width="2500" height="1875" viewBox="0 0 512 384"><path fill="#CF649A" d="M440.6 220.6c-18 0-33.4 4.4-46.4 10.8-4.8-9.5-9.6-17.8-10.4-24-1-7.2-2-11.6-1-20.2 1.2-8.6 6.2-20.8 6.2-21.8s-1-5.3-11.4-5.4-19.2 2-20.2 4.7-3 9-4.3 15.3c-1.7 9.4-20.5 42.7-31.2 60.2-3.5-6.8-6.5-12.8-7-17.6-1-7.2-2-11.6-1-20.2s6-20.8 6-21.8-1-5.3-11.3-5.4c-10.3 0-19.2 2-20.2 4.7s-2 9-4.3 15.2c-2 6.2-27 61.8-33.6 76.3-3.3 7.4-6.2 13.3-8.3 17.3-2 4 0 .3-.2.7l-2.8 5.3c-1.4 2.6-3 5-3.6 5-.5 0-1.5-6.7.2-16 3.7-19.2 12.7-49.3 12.6-50.4 0-.5 1.7-5.8-5.8-8.5-7.3-2.8-10 1.7-10.5 1.7-.7 0-1.2 1.6-1.2 1.6s8-34-15.5-34c-14.8 0-35.2 16.2-45.3 31L135.6 244c-5.5 3-11.2 6.2-16.6 9l-1-1c-28.7-30.6-81.6-52.2-79.4-93.2.8-15 6-54.2 101.6-101.8 78.3-39 141-28.3 152-4.5 15.4 34-33.6 97.2-115 106.3-31 3.5-47.3-8.5-51.4-13-4.3-4.7-5-5-6.5-4-2.6 1.4-1 5.6 0 8 2.4 6.4 12.4 17.6 29.4 23.2 15 5 51.3 7.6 95.3-9.4 49.3-19 87.8-72 76.5-116.4-11.5-45-86.3-60-157-34.8-42 15-87.7 38.4-120.5 69C4 118-2.2 149.8.4 163c9 47 74 77.7 100 100.4l-3.6 2c-13 6.4-62.5 32.3-75 59.7-14 31 2.3 53.4 13 56.4 33.5 9.3 67.7-7.4 86.2-35 18.4-27.4 16.2-63 7.7-79.4l-.3-.6 10.2-6c6.6-4 13-7.5 18.8-10.6-3.2 8.7-5.5 19-6.7 34-1.4 17.6 5.8 40.4 15.3 49.4 4.2 4 9.2 4 12.3 4 11 0 16-9 21.5-20 6.8-13.3 12.8-28.7 12.8-28.7s-7.5 41.7 13 41.7c7.5 0 15-9.7 18.4-14.7s.2-.2.6-1a36 36 0 0 0 1.2-1.8v-.2c3-5.2 9.7-17 19.7-36.8 13-25.4 25.3-57.2 25.3-57.2s1.2 7.8 5 20.6c2 7.7 7 16 10.6 24l-4.8 6.7c-2.3 3.3-5 6.7-7.8 10-10.2 12.3-22.4 26.2-24 30.2-2 4.6-1.5 8 2.2 11 2.7 2 7.5 2.3 12.6 2 9.2-.7 15.6-3 18.8-4.4 5-1.8 10.7-4.5 16.2-8.5 10-7.3 16-17.8 15.5-31.8-.2-7.7-2.7-15.3-5.8-22.5 1-1.3 1.8-2.6 2.7-4 15.7-23 28-48.5 28-48.5s1 7.8 4.8 20.6c2 6.5 5.7 13.6 9 20.6-14.7 12-24 26-27.2 35.3-6 17-1.3 24.7 7.4 26.5 4 .8 9.5-1 13.7-2.8 5.2-1.7 11.5-4.6 17.3-9 10-7.3 19.6-17.6 19-31.5-.2-6.5-2-12.8-4.2-18.8 12.6-5.2 29-8.2 49.6-5.7 44.5 5.2 53.3 33 51.6 44.6-1.7 11.7-11 18-14 20-3.2 2-4.2 2.7-4 4 .5 2.2 2 2 4.6 1.7 3.7-.6 23.4-9.5 24.2-31 1.2-27.4-25-57.4-71.2-57zM97.4 336.3c-14.7 16-35.4 22.2-44.2 17-9.5-5.5-5.8-29.2 12.3-46.3 11-10.4 25.3-20 34.7-26 2-1.2 5.3-3 9-5.4l1-.6 2.4-1.4c6.7 24.4.3 45.8-15.2 62.7zm107.5-73c-5.2 12.4-16 44.5-22.5 42.7-5.6-1.5-9-25.8-1-49.8 4-12 12.4-26.5 17.4-32 8-9 16.8-12 19-8.4 2.6 4.8-10 39.6-13 47.4zm88.6 42.3c-2.2 1-4.2 2-5 1.3-.8-.5.8-2 .8-2s11-12 15.5-17.4l8.6-11v1c0 14.5-13.8 24-20 28zM362 290c-1.6-1.2-1.4-5 4-16.5 2-4.6 7-12.3 15.2-19.6 1 3 1.6 5.8 1.5 8.5 0 18-13 24.7-20.7 27.5z"/></svg>