<svg xmlns="http://www.w3.org/2000/svg" width="512" height="512" viewBox="0 0 438.5 438.5"><path fill="#FFFFFF" d="M415.7 262c3-14.6 4.6-28.8 4.6-42.7 0-27.3-5.3-53.3-16-78-10.4-25-24.7-46.4-42.7-64.4-18-18-39.4-32.3-64.2-43-25-10.4-51-15.7-78-15.7-14 0-28.3 1.5-43 4.5C156.7 7.6 134.4 0 109.6 0 79.4 0 53.6 10.7 32 32 10.8 53.6 0 79.5 0 109.7c0 24.8 7.6 47 22.8 66.8-3 14.7-4.5 29-4.5 43 0 27 5.3 53 15.8 78 10.7 24.8 25 46.2 43 64.2s39.3 32.2 64.2 42.8c24.8 10.6 51 16 78 16 14 0 28.2-1.7 43-4.7 19.7 15.2 42 22.8 66.7 22.8 30.2 0 56-10.7 77.4-32 21.4-21.5 32-47.3 32-77.6 0-24.8-7.5-47-22.7-67zm-90.2 42.5c-6.3 11-14.7 20-25.3 26.7-10.6 6.6-22.2 11.7-35 15.3-12.7 3.5-26 5.2-40 5.2-32 0-59.8-6.2-83-18.7-23.2-12.4-34.8-27.4-34.8-45 0-8.5 2.4-15.6 7.2-21.3 5-5.8 12-8.6 21.6-8.6 5.5 0 10.6 1.6 15.4 4.7 4.8 3 9 6.7 13 11 4 4.2 8.5 8.5 13 12.8 4.8 4.3 11 8 18.7 11 7.7 3 16.4 4.6 26 4.6 12.5 0 22.5-2.3 30-7.2 7.7-5 11.5-11 11.5-18.4 0-7.6-3-13.3-9-17.2-4.3-2.6-15-6-32-10.2L181 238.7c-11.4-2.7-21.2-5.8-29.4-9.3-8.2-3.5-15.8-8-22.8-13.8-7-5.7-12.4-13-16-21.6-3.6-8.7-5.4-18.8-5.4-30.4 0-14 3-26 9.5-36.7 6.3-10.7 14.8-19 25.3-25 10.6-6 22-10.4 34-13.3 12.3-3 25-4.5 37.8-4.5 18.4 0 35.7 2.2 52 6.6 16.5 4.4 30 10.8 40.6 19.3 10.7 8.5 16 18 16 28.5 0 8.5-2.7 16-8 22-5.5 6-12.7 9-21.7 9-5 0-9.6-1-13.8-3.3-4.2-2.3-8-5-11.4-8.3-3.4-3.3-7-6.5-11-9.7-3.7-3-8.8-5.8-15.3-8-6.4-2.4-13.8-3.5-22-3.5-27.4 0-41 7.3-41 22 0 3.2.7 6 2 8.5 1.5 2.5 3 4.5 4.8 6 1.7 1.5 4.6 3 8.6 4.6 4 1.4 7.2 2.5 9.8 3.2l12.6 3L246 191c9.4 2 17.8 4.3 25 6.6 7.4 2.3 15.3 5.5 23.6 9.7 8.4 4.2 15.4 8.8 21 14 5.4 5 10 11.6 13.7 19.5 3.7 8 5.6 16.6 5.6 26 0 14-3.2 26.6-9.5 37.7z"/></svg>
