<svg xmlns="http://www.w3.org/2000/svg" width="512" height="512" viewBox="0 0 450 450"><path fill="#FFFFFF" d="M450 85.7c-17.7 7.6-35.5 12.3-53 14.2 19.8-12 33.4-29 40.4-51C419 60 399.6 67.5 379 71.5c-18.4-19.4-41-29-67.5-29-25.5 0-47.3 9-65.3 26.8-18 18-27 39.8-27 65.3 0 6.8.8 14 2.4 21-37.7-1.8-73-11.3-106-28.3s-61.2-39.7-84.2-68C23 73.3 18.8 88.8 18.8 105.5c0 15.8 3.8 30.5 11.2 44 7.4 13.5 17.4 24.5 30 32.8-15-.5-28.8-4.4-41.7-11.7v1.2c0 22 7 41.7 21 58.5 14 17 31.6 27.5 53 32-8 2-16.2 3-24.4 3-5.4 0-11.2-.5-17.5-1.4 6 18.6 16.8 33.7 32.6 45.6 16 12 33.8 18 53.8 18.4-33.5 26.3-71.7 39.4-114.5 39.4-8.2 0-15.6-.3-22.3-1 42.8 27.5 90 41.3 141.6 41.3 32.7 0 63.5-5.2 92.2-15.6 28.8-10.2 53.3-24 73.7-41.5 20.3-17.5 38-37.5 52.7-60 14.7-22.8 25.7-46.4 33-71 7.2-24.7 10.8-49.4 10.8-74.2 0-5.3 0-9.3-.3-12 18-13 33.5-29 46.3-47.6z"/></svg>
