<svg xmlns="http://www.w3.org/2000/svg" id="Layer_1" viewBox="0 0 164.6 164.1"><style>.st0{fill:#3185B8;} .st1{fill:#61A5CE;} .st2{fill:#EAE9E6;}</style><path d="M156.5 20c-1-.8-9.5-5.3-9.5-5.3l-9 5.2 9-5.3-9-5.3V20l-9.2-5.3-11.3 6.6-16 9.5v10L92 65.6v13.3l-6.6 4-2.6 6.8L64 41.4V30.8L27 9.3 8.6 20v11L20 58.7l7 4v12.8L55 143l27.7 15.8 27.7-16 46.3-112V20" class="st0"/><path d="M82.6 158.7l-27.8-16L27 75.6V62.8l-7-4-11.4-28V20.2l9 5.4V36l9.5 5.6V30.8l18.5 10.6 1 10.6L73 121.5l18.6 10.8v21.2l-9.2-5.4v10.7" class="st0"/><path d="M64 41.4l18.6 48V116l-9.4 5.3L46.4 52l-1-10.6L64 30.8v10.6M17.7 25.4V36L27 31l-9.3-5.4" class="st1"/><path d="M27 41.6V30.8L17.8 36l9.4 5.6" class="st2"/><path d="M82.5 116l9.3 5.3 10.3-26 8 4.8V75.4l2.6-6 6.8 4V62.7l-9.2-5.4 9.3-5.4-9-5.4V36l-9.2-5.4v10L92 65.4v13.3l-6.7 4-2.6 6.8-.2 26.6" class="st0"/><path d="M82.4 127l9.3 5.3v21.2l18.6-10.7 46.3-112V20l-27.8 16v21.4l-9.3 5.3v10.5l-6.8-4-2.5 6V100l-13 7.6-5.3 13.7-9.6 5.6" class="st1"/><path d="M45.5 52l9.3-5.3v10.7L45.5 52" class="st2"/><path d="M54.8 57.4l9.2 5.2V52l-9.2-5.3v10.7" class="st0"/><path d="M36.3 78.6v10.8l9.3-5.4-9.3-5.4" class="st1"/><path d="M55 89.4l-9.5 5.4-9.3-5.5 9.3-5.4 9.4 5.4" class="st2"/><path d="M54.8 121.5v11l9.4-5.5-9.4-5.5" class="st1"/><path d="M73.2 142.7l9.4 5.5v-11l-9.4 5.5" class="st2"/><path d="M82.6 158.8v-10.6l9 5.3-9 5.3" class="st1"/><path d="M82.5 116l-9.4 5.3 9.4 5.5 9.4-5.5-9.3-5.3" class="st2"/><path d="M128.7 57.4V36l-9.2-5v10.5l-9.2 5.3 18.4 10.6" class="st0"/><path d="M110.2 57.4l9.3-5.4 9.3 5.4-9.3 5.3-9.3-5.3" class="st2"/><path d="M110.3 46.8l9.2-5.3V31l-9.2 5V47" class="st1"/><path d="M138 20V9.3l9 5.3-9 5.2" class="st0"/><path d="M156.5 20l-27.7 16-9.2-5-9.2 5-9-5.2 16-9.5c3.7-2 11.3-6.6 11.3-6.6L138 20l9-5.3s8.4 4.5 9.5 5.4c-2.6 1.6 0 0 0 0M64 30.8L45.5 41.4 8.5 20 27.2 9.5l37 21.4" class="st2"/><path d="M147 35.8V25.5l-9 5.2 9 5M119.8 84l9-5V89l-9-5" class="st0"/><path d="M101 126.8v10.7l9.4-5.4-9.4-5.2" class="st2"/><path d="M110.4 132v-10.5l-9.4 5.3 9.4 5.3" class="st0"/></svg>