<svg xmlns="http://www.w3.org/2000/svg" width="2500" height="2500" xmlns:xlink="http://www.w3.org/1999/xlink" viewBox="0 0 122.5 122.5"><defs><path id="a" d="M0 0h122.5v122.5H0z"/></defs><clipPath id="b"><use xlink:href="#a" overflow="visible"/></clipPath><g clip-path="url(#b)"><path fill="#00749a" d="M313.2 48.2H292v2.3c6.6 0 7.7 1.4 7.7 9.8v15.2c0 8.5-1 10-7.8 10-5.2-.7-8.6-3.4-13.4-8.7l-5.4-6c7.3-1.2 11.3-5.8 11.3-11 0-6.6-5.6-11.6-16-11.6h-21v2.3c6.7 0 7.7 1.4 7.7 9.8v15.2c0 8.5-1 10-7.7 10v2.3h23.7v-2.3c-6.7 0-7.8-1.5-7.8-10v-4.2h2l13.2 16.5h34.6c17 0 24.3-9 24.3-20 0-10.7-7.3-19.6-24.3-19.6zm-49.8 19.4V51.8h5c5.2 0 7.6 3.7 7.6 8 0 4-2.4 7.8-7.7 7.8h-5zm50 16.5h-.7c-4.3 0-5-1-5-6.4V51.8h5.8c12.4 0 14.7 9 14.7 16 0 7.3-2.3 16.3-14.7 16.3zm-132-12l8.2-24.3c2.3-7 1.3-9-6.3-9v-2.3h22.3v2.3c-7.5 0-9.3 1.8-12.2 10.5l-13.6 40.6h-1.5l-12-37.2-12.5 37.2h-1.5L139 49.2c-2.7-8.7-4.6-10.5-11.5-10.5v-2.3h26.3v2.3c-7 0-9 1.7-6.4 9l8 24.3 12-35.6h2.2L181.4 72zm40.4 17.3c-13 0-23.8-9.6-23.8-21.4 0-11.7 10.7-21.3 23.8-21.3s23.7 9.6 23.7 21.2c0 11.7-10.7 21.3-23.7 21.3zm0-39c-11 0-14.8 10-14.8 17.6 0 7.8 3.8 17.5 14.8 17.5s14.8-9.7 14.8-17.6c0-7.8-3.8-17.6-14.8-17.6z"/><path fill="#464342" d="M367 85.4v2.4h-27.3v-2.4c8 0 9.4-2 9.4-14v-19c0-11.8-1.4-13.7-9.3-13.7v-2.4h24.6c12.2 0 19 6.3 19 14.8 0 8.3-6.8 14.7-19 14.7h-6.8v5.8c0 12 1.4 14 9.4 14zm-2.7-44.8h-6.8v20.7h6.8c6.6 0 9.7-4.6 9.7-10.2s-3-10.4-9.7-10.4zm100.5 36l-.6 2c-1 4-2.3 5.5-10.8 5.5h-1.6c-6.2 0-7.3-1.3-7.3-9.8v-5.4c9.3 0 10 .8 10 7h2.3V58h-2.3c0 6.3-.7 7-10 7V52h6.6c8.5 0 9.8 1.4 11 5.3l.5 2.4h2l-1-11.2h-35v2.3c6.8 0 7.8 1.4 7.8 9.8v15.2c0 7.8-1 9.7-6 10-5-.8-8.5-3.5-13.2-8.7l-5.4-6C419 69.7 423 65 423 60c0-6.6-5.7-11.6-16-11.6h-21v2.3c6.6 0 7.7 1.4 7.7 9.8v15.2c0 8.5-1 10-7.7 10v2.3h23.6v-2.3c-6.6 0-7.7-1.5-7.7-10v-4.2h2l13 16.5h49l.6-11.2h-1.8zm-63-9V51.8h5c5.3 0 7.7 3.7 7.7 8 0 4-2.4 7.8-7.7 7.8h-5zm87 21.7c-4.6 0-8.8-2.5-10.5-4-.6.6-1.7 2.4-2 4h-2.2V73h2.5c1 7.8 6.4 12.4 13.4 12.4 3.7 0 6.8-2 6.8-5.7 0-3-2.8-5.5-7.6-7.7l-6.8-3.2c-4.7-2.3-8.3-6.2-8.3-11.4 0-5.7 5.4-10.6 12.8-10.6 4 0 7.2 1.4 9.3 3 .7-.4 1.3-1.7 1.6-3h2.3v14h-2.6c-1-5.7-4-10.3-10.2-10.3-3.4 0-6.5 2-6.5 5s2.5 4.6 8.2 7.2l6.5 3.2c5.7 2.7 8 7 8 10.6 0 7.5-6.6 12.7-14.6 12.7zm36.7 0c-4.7 0-9-2.5-10.7-4-.6.6-1.6 2.4-2 4h-2V73h2.2c1 7.8 6.5 12.4 13.5 12.4 3.8 0 7-2 7-5.7 0-3-3-5.5-7.7-7.7l-6.8-3.2c-4.8-2.3-8.3-6.2-8.3-11.4 0-5.7 5.3-10.6 12.7-10.6 4 0 7.2 1.4 9.2 3 .6-.4 1.2-1.7 1.6-3h2.2v14H534c-1-5.7-4-10.3-10.3-10.3-3.3 0-6.4 2-6.4 5s2.5 4.6 8.2 7.2L532 66c5.7 2.7 8 7 8 10.6 0 7.5-6.5 12.7-14.5 12.7z"/><g fill="#00749a"><path d="M8.7 61.3c0 20.8 12 38.7 29.6 47.3L13.3 40a52.4 52.4 0 0 0-4.6 21.3zm88-2.7c0-6.5-2.3-11-4.3-14.5-2.7-4.2-5.2-8-5.2-12.2 0-4.8 3.7-9.3 9-9.3h.6C87.4 14 74.8 8.7 61.3 8.7c-18.4 0-34.6 9.4-44 23.7h3.4c5.5 0 14-.6 14-.6 3-.2 3.2 4 .4 4.3 0 0-2.8.5-6 .6l19.2 57L59.7 59l-8.2-22.4c-2.8 0-5.5-.5-5.5-.5-2.8 0-2.5-4.4.3-4.2 0 0 8.7.7 14 .7 5.4 0 14-.7 14-.7 2.7-.2 3 4 .2 4.3 0 0-2.8.5-6 .6l19 56.5 5.2-17.4c2.3-7.3 4-12.5 4-17z"/><path d="M62.2 66l-15.8 45.7a52.5 52.5 0 0 0 15 2c6 0 12-1 17.3-3a4.5 4.5 0 0 1-.4-.6l-16-44zm45.2-30c.2 1.7.3 3.5.3 5.4 0 5.4-1 11.4-4 19l-16 46.3c15.6-9 26-26 26-45.4a52.3 52.3 0 0 0-6.3-25.3z"/><path d="M61.3 0C27.5 0 0 27.5 0 61.3c0 33.7 27.5 61.2 61.3 61.2 33.7 0 61.2-27.5 61.2-61.2C122.5 27.5 95 0 61.3 0zm0 119.7C29 119.7 2.8 93.5 2.8 61.3 2.8 29 29 2.8 61.3 2.8c32.2 0 58.4 26.2 58.4 58.5 0 32.2-26.2 58.4-58.4 58.4z"/></g></g></svg>